<svg xmlns="http://www.w3.org/2000/svg" width="2070.812" height="994.343" viewBox="0 0 2070.812 994.343">
  <g id="BG" transform="translate(-116.205 -99.324)" opacity="0.25">
    <g id="man" transform="translate(116.205 184.155) rotate(-45)">
      <g id="Group_71" data-name="Group 71" transform="translate(0 0)">
        <path id="Path_30" data-name="Path 30" d="M105.547,9.489a1.9,1.9,0,0,0-.692-1.363,1.942,1.942,0,0,0-2.725.2h0c-8.481,9.781-14.461,5.047-21.1-.151C76,4.22,70.645.01,63.6.01a16.443,16.443,0,0,0-6.864,1.464A14.537,14.537,0,0,0,52.92,3.987a14.544,14.544,0,0,0-3.814-2.524A16.443,16.443,0,0,0,42.242,0C35.124,0,28.869,4.25,23.073,8.166c-1.922,1.3-3.783,2.574-5.553,3.583-5.085,2.9-9.59,3.735-13.576-3.028A1.929,1.929,0,0,0,1.35,7.915,1.908,1.908,0,0,0,.334,9.368,28.978,28.978,0,0,0,.568,19.462,16.316,16.316,0,0,0,6.73,29.314a22.309,22.309,0,0,0,10.6,3.977A51.138,51.138,0,0,0,34.483,32.16,45.992,45.992,0,0,0,46.554,27.9a24.9,24.9,0,0,0,6.366-4.795A24.919,24.919,0,0,0,59.286,27.9a45.985,45.985,0,0,0,12.051,4.27,51.131,51.131,0,0,0,17.176,1.12A22.31,22.31,0,0,0,99.13,29.324a16.316,16.316,0,0,0,6.163-9.852A28.839,28.839,0,0,0,105.547,9.489Zm-4.037,9.156a12.594,12.594,0,0,1-4.729,7.611,18.52,18.52,0,0,1-8.786,3.24,47.3,47.3,0,0,1-15.834-1.08,42.163,42.163,0,0,1-11.044-3.9,18.933,18.933,0,0,1-6.62-5.542,1.939,1.939,0,0,0-3.193,0,18.962,18.962,0,0,1-6.6,5.511,42.175,42.175,0,0,1-11.044,3.9,47.3,47.3,0,0,1-15.834,1.08,18.514,18.514,0,0,1-8.786-3.24A12.594,12.594,0,0,1,4.31,18.614a20.3,20.3,0,0,1-.458-3.7c4.749,4.7,9.925,3.351,15.58.121,1.892-1.09,3.814-2.382,5.786-3.725,5.329-3.594,11.105-7.47,17.024-7.47a12.581,12.581,0,0,1,5.258,1.1A10.391,10.391,0,0,1,51.4,7.965a1.929,1.929,0,0,0,3.051,0A10.4,10.4,0,0,1,58.34,4.936a12.581,12.581,0,0,1,5.258-1.1c5.715,0,10.515,3.775,15.03,7.328,7.383,5.8,14.095,11.1,23.39,2.816A21.177,21.177,0,0,1,101.51,18.644Z"/>
      </g>
    </g>
    <path id="Path_48" data-name="Path 48" d="M20.3,46.184c17.468-.005,23.2-16.966,25.646-24.208l.135-.4a29.762,29.762,0,0,1,1.375-3.439,2.088,2.088,0,0,1,3.461-.006,30.066,30.066,0,0,1,1.376,3.445l.135.4c2.447,7.242,8.178,24.2,25.647,24.208l.005-.9v.9h0A17.27,17.27,0,0,0,92.653,38.93c5.836-7.863,6.335-20.195,5.264-23.724C95.466,7.124,86.28,3.115,81.023,1.444,78.01.486,72.019,0,63.221,0,55.893,0,49.2.35,49.229.353,49.162.35,42.471,0,35.145,0c-8.8,0-14.788.486-17.8,1.444C12.086,3.115,2.9,7.124.45,15.206-.62,18.735-.118,31.063,5.715,38.928A17.272,17.272,0,0,0,20.3,46.184ZM55.635,10.606c.022-.069,2.273-6.8,14.989-6.8.828,0,1.694.028,2.61.088,14.356.946,20.193,8.38,20.827,14.457.445,4.256-.1,13.843-5.35,19.671-2.9,3.21-6.864,4.841-11.807,4.841-8.337,0-13.707-6.062-16.744-11.142C55.142,23.321,54.075,13.544,55.635,10.606ZM4.305,18.355C4.94,12.278,10.777,4.844,25.134,3.9q1.366-.09,2.608-.088c12.618,0,14.9,6.525,15.057,6.954,1.494,2.779.425,12.556-4.593,20.96-3.037,5.082-8.4,11.141-16.755,11.143-4.932,0-8.9-1.628-11.8-4.84C4.4,32.2,3.859,22.611,4.305,18.355Z" transform="matrix(0.978, -0.208, 0.208, 0.978, 237.053, 376.145)"/>
    <path id="Path_60" data-name="Path 60" d="M20.3,46.184c17.468-.005,23.2-16.966,25.646-24.208l.135-.4a29.762,29.762,0,0,1,1.375-3.439,2.088,2.088,0,0,1,3.461-.006,30.066,30.066,0,0,1,1.376,3.445l.135.4c2.447,7.242,8.178,24.2,25.647,24.208l.005-.9v.9h0A17.27,17.27,0,0,0,92.653,38.93c5.836-7.863,6.335-20.195,5.264-23.724C95.466,7.124,86.28,3.115,81.023,1.444,78.01.486,72.019,0,63.221,0,55.893,0,49.2.35,49.229.353,49.162.35,42.471,0,35.145,0c-8.8,0-14.788.486-17.8,1.444C12.086,3.115,2.9,7.124.45,15.206-.62,18.735-.118,31.063,5.715,38.928A17.272,17.272,0,0,0,20.3,46.184ZM55.635,10.606c.022-.069,2.273-6.8,14.989-6.8.828,0,1.694.028,2.61.088,14.356.946,20.193,8.38,20.827,14.457.445,4.256-.1,13.843-5.35,19.671-2.9,3.21-6.864,4.841-11.807,4.841-8.337,0-13.707-6.062-16.744-11.142C55.142,23.321,54.075,13.544,55.635,10.606ZM4.305,18.355C4.94,12.278,10.777,4.844,25.134,3.9q1.366-.09,2.608-.088c12.618,0,14.9,6.525,15.057,6.954,1.494,2.779.425,12.556-4.593,20.96-3.037,5.082-8.4,11.141-16.755,11.143-4.932,0-8.9-1.628-11.8-4.84C4.4,32.2,3.859,22.611,4.305,18.355Z" transform="translate(887.313 940.573) rotate(19)"/>
    <g id="laptop" transform="translate(124.498 647.225) rotate(-8)">
      <path id="Path_59" data-name="Path 59" d="M11.08,67.337h93.8a3.521,3.521,0,0,0,3.518-3.518V3.518A3.521,3.521,0,0,0,104.883,0H11.08A3.521,3.521,0,0,0,7.563,3.518v60.3A3.522,3.522,0,0,0,11.08,67.337Zm-.5-63.819a.5.5,0,0,1,.5-.5h93.8a.5.5,0,0,1,.5.5v60.3a.5.5,0,0,1-.5.5H11.08a.5.5,0,0,1-.5-.5ZM115.963,70.028v2.815a1.351,1.351,0,0,1-1.351,1.351H1.351A1.351,1.351,0,0,1,0,72.843V70.028H47.625a1.9,1.9,0,0,0,1.816,1.361H66.523a1.9,1.9,0,0,0,1.816-1.361Z" transform="translate(0 0)"/>
    </g>
    <g id="laptop-2" data-name="laptop" transform="translate(1105.308 496.215) rotate(-8)">
      <path id="Path_59-2" data-name="Path 59" d="M9.683,58.846H91.658a3.077,3.077,0,0,0,3.074-3.074V3.074A3.077,3.077,0,0,0,91.658,0H9.683A3.077,3.077,0,0,0,6.609,3.074v52.7A3.078,3.078,0,0,0,9.683,58.846ZM9.244,3.074a.439.439,0,0,1,.439-.439H91.658a.439.439,0,0,1,.439.439v52.7a.439.439,0,0,1-.439.439H9.683a.439.439,0,0,1-.439-.439Zm92.1,58.124v2.46a1.181,1.181,0,0,1-1.18,1.18H1.18A1.181,1.181,0,0,1,0,63.659V61.2H41.62a1.659,1.659,0,0,0,1.587,1.189H58.135A1.66,1.66,0,0,0,59.722,61.2Z" transform="translate(0 0)"/>
    </g>
    <g id="drink" transform="translate(1701.391 930.633)">
      <path id="Path_12" data-name="Path 12" d="M150.984,1.315a2.879,2.879,0,0,0-3.976-.856L131.287,10.612l-.009,0-.008.006-11.182,7.222H80.752A4.287,4.287,0,0,0,76.454,22a83.072,83.072,0,0,0,.434,11.932,45.882,45.882,0,0,0,3.891,14.885,67.517,67.517,0,0,1,6.787,29c0,1.387,0,2.959,0,4.377a1.627,1.627,0,1,0,3.255,0c0-1.42,0-2.995,0-4.383A70.794,70.794,0,0,0,83.71,47.4a35.714,35.714,0,0,1-2.564-7.646c6.948-.7,14.308.781,21.444,2.217a86,86,0,0,0,16.843,2.122,32.374,32.374,0,0,0,13.81-2.75,33.678,33.678,0,0,1-2.178,6.057,70.792,70.792,0,0,0-7.111,30.408c-.019,9.109.015,16.589.1,22.272H90.722c.054-3.341.081-6.365.095-10.281a1.627,1.627,0,1,0-3.255-.011c-.015,4.534-.123,16.715-.123,16.715a4.737,4.737,0,0,0,4.732,4.732h30.412a4.737,4.737,0,0,0,4.732-4.732s-.125-18.688-.1-28.689a67.522,67.522,0,0,1,6.787-29,42.643,42.643,0,0,0,3.451-11.673q.251-1.542.426-3.095a21.675,21.675,0,0,0,13.842-10.508,1.628,1.628,0,0,0-2.846-1.581,18.321,18.321,0,0,1-10.684,8.619c.07-1.05.117-2.063.146-3.023a15.976,15.976,0,0,0,2.921-1.487,15.871,15.871,0,0,0,5.108-21.317L148.452,3.4a18.364,18.364,0,0,1,2.593,11.887,1.627,1.627,0,1,0,3.23.4,21.624,21.624,0,0,0-3.291-14.376ZM124.06,106.5a1.479,1.479,0,0,1-1.477,1.477H92.17a1.479,1.479,0,0,1-1.477-1.477v-3.169H124.06Zm6.831-91.76.418,3.1h-5.22Zm1.467,23.419c-9.048,4.483-19.676,2.516-29.125.617-7.474-1.5-15.185-3.054-22.7-2.236a77.576,77.576,0,0,1-.825-14.431A1.044,1.044,0,0,1,80.752,21.1h53.272a1.044,1.044,0,0,1,1.045,1.013,76.81,76.81,0,0,1-.927,15.048A19.9,19.9,0,0,1,132.357,38.162Zm7.132-14.829a12.585,12.585,0,0,1-1.121.642c-.008-.72-.025-1.385-.045-1.978a4.283,4.283,0,0,0-3.725-4.111l-.362-2.69,8.4,5.242A12.555,12.555,0,0,1,139.489,23.333Zm4.779-5.712L135.2,11.961l8.428-5.443A12.619,12.619,0,0,1,144.269,17.622Z" transform="translate(-76.403 0)"/>
    </g>
    <g id="drink-2" data-name="drink" transform="translate(378.587 822.174)">
      <path id="Path_12-2" data-name="Path 12" d="M150.984,1.315a2.879,2.879,0,0,0-3.976-.856L131.287,10.612l-.009,0-.008.006-11.182,7.222H80.752A4.287,4.287,0,0,0,76.454,22a83.072,83.072,0,0,0,.434,11.932,45.882,45.882,0,0,0,3.891,14.885,67.517,67.517,0,0,1,6.787,29c0,1.387,0,2.959,0,4.377a1.627,1.627,0,1,0,3.255,0c0-1.42,0-2.995,0-4.383A70.794,70.794,0,0,0,83.71,47.4a35.714,35.714,0,0,1-2.564-7.646c6.948-.7,14.308.781,21.444,2.217a86,86,0,0,0,16.843,2.122,32.374,32.374,0,0,0,13.81-2.75,33.678,33.678,0,0,1-2.178,6.057,70.792,70.792,0,0,0-7.111,30.408c-.019,9.109.015,16.589.1,22.272H90.722c.054-3.341.081-6.365.095-10.281a1.627,1.627,0,1,0-3.255-.011c-.015,4.534-.123,16.715-.123,16.715a4.737,4.737,0,0,0,4.732,4.732h30.412a4.737,4.737,0,0,0,4.732-4.732s-.125-18.688-.1-28.689a67.522,67.522,0,0,1,6.787-29,42.643,42.643,0,0,0,3.451-11.673q.251-1.542.426-3.095a21.675,21.675,0,0,0,13.842-10.508,1.628,1.628,0,0,0-2.846-1.581,18.321,18.321,0,0,1-10.684,8.619c.07-1.05.117-2.063.146-3.023a15.976,15.976,0,0,0,2.921-1.487,15.871,15.871,0,0,0,5.108-21.317L148.452,3.4a18.364,18.364,0,0,1,2.593,11.887,1.627,1.627,0,1,0,3.23.4,21.624,21.624,0,0,0-3.291-14.376ZM124.06,106.5a1.479,1.479,0,0,1-1.477,1.477H92.17a1.479,1.479,0,0,1-1.477-1.477v-3.169H124.06Zm6.831-91.76.418,3.1h-5.22Zm1.467,23.419c-9.048,4.483-19.676,2.516-29.125.617-7.474-1.5-15.185-3.054-22.7-2.236a77.576,77.576,0,0,1-.825-14.431A1.044,1.044,0,0,1,80.752,21.1h53.272a1.044,1.044,0,0,1,1.045,1.013,76.81,76.81,0,0,1-.927,15.048A19.9,19.9,0,0,1,132.357,38.162Zm7.132-14.829a12.585,12.585,0,0,1-1.121.642c-.008-.72-.025-1.385-.045-1.978a4.283,4.283,0,0,0-3.725-4.111l-.362-2.69,8.4,5.242A12.555,12.555,0,0,1,139.489,23.333Zm4.779-5.712L135.2,11.961l8.428-5.443A12.619,12.619,0,0,1,144.269,17.622Z" transform="translate(-76.403 0)"/>
    </g>
    <g id="audio" transform="translate(1891.185 116.776)">
      <g id="Group_49" data-name="Group 49" transform="translate(27.119 0) rotate(16)">
        <path id="Path_9" data-name="Path 9" d="M117.663,28.845v0C103.585,4.112,67.068-6.821,36.1,4.423c-13.554,4.921-24.416,13.6-30.578,24.42A40.688,40.688,0,0,0,0,49.2V64.6a10.386,10.386,0,0,0,4.211,8.114l8.3,6.629,1.127,2.482c3.478,7.363,12.378,12.184,22.231,12.041.431,0,.868-.043,1.3-.059l.1.226c1.552,3.426,6.288,5.2,10.577,3.958h0l.337-.1c4.288-1.235,6.511-5.012,4.965-8.436h0L36.89,53.551c-1.564-3.419-6.292-5.187-10.582-3.958l-.333.1c-3.645,1.041-5.885,3.973-5.377,7.037a21.157,21.157,0,0,0-8.056,8.019,1.384,1.384,0,0,1-.224-.71V49.2c0-21.733,22.061-39.35,49.274-39.35s49.274,17.618,49.274,39.35V64.036a1.274,1.274,0,0,1-.086.343,21.369,21.369,0,0,0-7.857-7.655c.507-3.063-1.731-5.992-5.373-7.034l-.341-.1c-4.287-1.228-9.01.541-10.569,3.958L70.376,89.456c-1.548,3.424.673,7.2,4.96,8.437l.337.1c4.29,1.236,9.023-.536,10.578-3.96l.1-.226c.433.016.873.059,1.3.059,9.852.143,18.752-4.677,22.231-12.039L111.2,78.92l7.771-6.207a10.386,10.386,0,0,0,4.211-8.113V49.2A40.689,40.689,0,0,0,117.663,28.845ZM25.021,54.48a3.908,3.908,0,0,1,2.351-1.708l.333-.1c2.158-.624,4.541.267,5.324,1.99L49.291,90.573c.777,1.718-.338,3.613-2.489,4.233l-.006,0-.337.1c-2.158.621-4.538-.269-5.322-1.99l-.616-1.372L24.877,57A2.68,2.68,0,0,1,25.021,54.48Zm-3.133,5.581v-.007L35.724,90.587c-7.438.069-14.266-3.274-17.564-8.6h.318c.205,0,.39-.031.585-.046s.337-.015.505-.038a7.716,7.716,0,0,0,.795-.164c.148-.036.3-.059.439-.1a7.044,7.044,0,0,0,.8-.318c.121-.054.248-.093.365-.154,2.966-1.528,3.82-4.687,1.907-7.056a5.525,5.525,0,0,0-.864-.852l-7.356-5.88A16.533,16.533,0,0,1,21.888,60.062ZM8.212,49.2V64.036a4.448,4.448,0,0,0,1.8,3.478l10.089,8.059a1.59,1.59,0,0,1,0,2.6,2.73,2.73,0,0,1-3.256,0L7.114,70.394A7.415,7.415,0,0,1,4.106,64.6V49.2A37.785,37.785,0,0,1,8.73,31.162h4.488A35.7,35.7,0,0,0,8.212,49.2ZM61.593,6.568C42.522,6.572,24.9,14.7,15.359,27.883H10.676C25.415,5.426,60.16-3.237,88.28,8.533c10.352,4.333,18.8,11.083,24.23,19.35h-4.683C98.286,14.7,80.664,6.572,61.593,6.568ZM85.239,86.626l-2.228,4.919L82.4,92.917c-.781,1.724-3.165,2.616-5.324,1.993h0l-.337-.1c-2.154-.619-3.271-2.515-2.5-4.235L90.5,54.669c.779-1.722,3.158-2.614,5.315-1.992h0l.341.1c2.152.618,3.27,2.512,2.5,4.231l0,0Zm2.573,3.961,9.073-20.034,4.753-10.493a16.667,16.667,0,0,1,6.159,7.116l-7.609,6.078a4.431,4.431,0,0,0,0,7.237,6.34,6.34,0,0,0,1.086.689c.129.066.265.11.4.164a7.216,7.216,0,0,0,.821.308c.16.048.322.079.487.115a7.849,7.849,0,0,0,.8.146c.175.02.347.03.521.039.142,0,.279.033.411.033s.248-.023.374-.03.205.01.3,0C102.1,87.3,95.263,90.654,87.811,90.587ZM119.08,64.6a7.421,7.421,0,0,1-3.008,5.8l-8.091,6.463-1.642,1.312a2.73,2.73,0,0,1-3.256,0,1.59,1.59,0,0,1,0-2.6l10.089-8.059a4.453,4.453,0,0,0,1.8-3.476V49.2a35.7,35.7,0,0,0-5.005-18.035h4.488A37.786,37.786,0,0,1,119.08,49.2Z" transform="translate(0 0)"/>
      </g>
    </g>
    <g id="audio-2" data-name="audio" transform="translate(1996.652 938.494)">
      <g id="Group_49-2" data-name="Group 49" transform="translate(27.119 0) rotate(16)">
        <path id="Path_9-2" data-name="Path 9" d="M117.663,28.845v0C103.585,4.112,67.068-6.821,36.1,4.423c-13.554,4.921-24.416,13.6-30.578,24.42A40.688,40.688,0,0,0,0,49.2V64.6a10.386,10.386,0,0,0,4.211,8.114l8.3,6.629,1.127,2.482c3.478,7.363,12.378,12.184,22.231,12.041.431,0,.868-.043,1.3-.059l.1.226c1.552,3.426,6.288,5.2,10.577,3.958h0l.337-.1c4.288-1.235,6.511-5.012,4.965-8.436h0L36.89,53.551c-1.564-3.419-6.292-5.187-10.582-3.958l-.333.1c-3.645,1.041-5.885,3.973-5.377,7.037a21.157,21.157,0,0,0-8.056,8.019,1.384,1.384,0,0,1-.224-.71V49.2c0-21.733,22.061-39.35,49.274-39.35s49.274,17.618,49.274,39.35V64.036a1.274,1.274,0,0,1-.086.343,21.369,21.369,0,0,0-7.857-7.655c.507-3.063-1.731-5.992-5.373-7.034l-.341-.1c-4.287-1.228-9.01.541-10.569,3.958L70.376,89.456c-1.548,3.424.673,7.2,4.96,8.437l.337.1c4.29,1.236,9.023-.536,10.578-3.96l.1-.226c.433.016.873.059,1.3.059,9.852.143,18.752-4.677,22.231-12.039L111.2,78.92l7.771-6.207a10.386,10.386,0,0,0,4.211-8.113V49.2A40.689,40.689,0,0,0,117.663,28.845ZM25.021,54.48a3.908,3.908,0,0,1,2.351-1.708l.333-.1c2.158-.624,4.541.267,5.324,1.99L49.291,90.573c.777,1.718-.338,3.613-2.489,4.233l-.006,0-.337.1c-2.158.621-4.538-.269-5.322-1.99l-.616-1.372L24.877,57A2.68,2.68,0,0,1,25.021,54.48Zm-3.133,5.581v-.007L35.724,90.587c-7.438.069-14.266-3.274-17.564-8.6h.318c.205,0,.39-.031.585-.046s.337-.015.505-.038a7.716,7.716,0,0,0,.795-.164c.148-.036.3-.059.439-.1a7.044,7.044,0,0,0,.8-.318c.121-.054.248-.093.365-.154,2.966-1.528,3.82-4.687,1.907-7.056a5.525,5.525,0,0,0-.864-.852l-7.356-5.88A16.533,16.533,0,0,1,21.888,60.062ZM8.212,49.2V64.036a4.448,4.448,0,0,0,1.8,3.478l10.089,8.059a1.59,1.59,0,0,1,0,2.6,2.73,2.73,0,0,1-3.256,0L7.114,70.394A7.415,7.415,0,0,1,4.106,64.6V49.2A37.785,37.785,0,0,1,8.73,31.162h4.488A35.7,35.7,0,0,0,8.212,49.2ZM61.593,6.568C42.522,6.572,24.9,14.7,15.359,27.883H10.676C25.415,5.426,60.16-3.237,88.28,8.533c10.352,4.333,18.8,11.083,24.23,19.35h-4.683C98.286,14.7,80.664,6.572,61.593,6.568ZM85.239,86.626l-2.228,4.919L82.4,92.917c-.781,1.724-3.165,2.616-5.324,1.993h0l-.337-.1c-2.154-.619-3.271-2.515-2.5-4.235L90.5,54.669c.779-1.722,3.158-2.614,5.315-1.992h0l.341.1c2.152.618,3.27,2.512,2.5,4.231l0,0Zm2.573,3.961,9.073-20.034,4.753-10.493a16.667,16.667,0,0,1,6.159,7.116l-7.609,6.078a4.431,4.431,0,0,0,0,7.237,6.34,6.34,0,0,0,1.086.689c.129.066.265.11.4.164a7.216,7.216,0,0,0,.821.308c.16.048.322.079.487.115a7.849,7.849,0,0,0,.8.146c.175.02.347.03.521.039.142,0,.279.033.411.033s.248-.023.374-.03.205.01.3,0C102.1,87.3,95.263,90.654,87.811,90.587ZM119.08,64.6a7.421,7.421,0,0,1-3.008,5.8l-8.091,6.463-1.642,1.312a2.73,2.73,0,0,1-3.256,0,1.59,1.59,0,0,1,0-2.6l10.089-8.059a4.453,4.453,0,0,0,1.8-3.476V49.2a35.7,35.7,0,0,0-5.005-18.035h4.488A37.786,37.786,0,0,1,119.08,49.2Z" transform="translate(0 0)"/>
      </g>
    </g>
    <g id="Outline" transform="translate(1131.561 985.465)">
      <g id="Group_50" data-name="Group 50" transform="translate(0 0)">
        <path id="Path_17" data-name="Path 17" d="M71.1,52.826a1.827,1.827,0,0,0-2.057,1.562L67.464,65.947H39.827a1.827,1.827,0,1,0,0,3.654H69.059a1.827,1.827,0,0,0,1.811-1.581l1.792-13.137A1.827,1.827,0,0,0,71.1,52.826Z" transform="translate(12.666 5.676)"/>
        <path id="Path_18" data-name="Path 18" d="M92.54,48.373a1.849,1.849,0,0,0-1.226-.436H83.659l2.733-11.246a.985.985,0,0,0,0-.452l.751-2.738,2.431,3.176-1.958,7.2c-.188.689.372,1.367,1.251,1.515a2.108,2.108,0,0,0,.344.028A1.588,1.588,0,0,0,90.8,44.415l2.1-7.7a1.038,1.038,0,0,0-.2-.924l-4.886-6.38a1.818,1.818,0,0,0-1.66-.6,1.519,1.519,0,0,0-1.328.987L83.5,34.666,77.254,32.71a2.031,2.031,0,0,0-1.429.084,1.307,1.307,0,0,0-.791.936L73.683,42.2,72.6,41.988l-.826-8.19a1.169,1.169,0,0,0-.423-.745l.326-3.286,1.549-.364L77.515,31.2a1.875,1.875,0,0,0,2.2-.524,1.152,1.152,0,0,0-.669-1.727l-4.886-2.042a2.037,2.037,0,0,0-1.234-.1l-3.257.766a1.394,1.394,0,0,0-1.156,1.12l-.2,1.973L66.4,29.17A1.9,1.9,0,0,0,65.14,28.8a1.786,1.786,0,0,0-1.186.506L62,31.349V30.073c0-2.114-2.187-3.828-4.886-3.828H53.857V24.968c0-2.114-2.187-3.828-4.886-3.828H40.828V15.1L53.31,8.584a1.119,1.119,0,0,0,.451-1.77L50.149,2.568a1.922,1.922,0,0,0-2.259-.353L33.233,9.871a3.688,3.688,0,0,0-2.176,3.185V21.14H22.914c-2.7,0-4.886,1.714-4.886,3.828v1.276H14.771c-2.7,0-4.886,1.714-4.886,3.828v2.552c0,.026.977,6.722.977,6.722a1.538,1.538,0,0,0,1.616,1.132,1.807,1.807,0,0,0,.186-.009c.893-.08,1.534-.712,1.433-1.411L13.338,33.9H26.171A1.485,1.485,0,0,0,27.8,32.625a1.485,1.485,0,0,0-1.629-1.276H13.143V30.073A1.485,1.485,0,0,1,14.771,28.8H57.114a1.485,1.485,0,0,1,1.629,1.276v1.276H32.686a1.485,1.485,0,0,0-1.629,1.276A1.485,1.485,0,0,0,32.686,33.9H59.557l-.489.51a1.091,1.091,0,0,0-.326.872l.489,4.6-.59-1.3a1.5,1.5,0,0,0-1-.781l-4.825-1.3a1.768,1.768,0,0,0-2.068.792L49.862,39.3l-1.008-2.031a1.669,1.669,0,0,0-1.511-.814H40.828A1.8,1.8,0,0,0,39.491,37,1.049,1.049,0,0,0,39.3,38.17l1.015,2.155c-.371-.019-.738-.045-1.114-.045H22.914a21.506,21.506,0,0,0-9.877,2.33,1.12,1.12,0,0,0-.457,1.769,1.921,1.921,0,0,0,2.258.358,17.593,17.593,0,0,1,8.076-1.905H39.2c7.461.007,13.728,4.4,14.566,10.208H8.348a10,10,0,0,1,2.342-5.052,1.123,1.123,0,0,0-.5-1.72,1.934,1.934,0,0,0-2.215.316A11.937,11.937,0,0,0,5,54.317a1.485,1.485,0,0,0,1.629,1.276h.205A5.129,5.129,0,0,0,8.5,58a4.9,4.9,0,0,0-.239,1.419,5.726,5.726,0,0,0,2.3,4.423c-1.958.934-2.8,2.826-2,4.509H6.629A1.485,1.485,0,0,0,5,69.629v2.552c.005,3.522,3.648,6.376,8.143,6.38h4.886a1.314,1.314,0,1,0,0-2.552H13.143c-2.7,0-4.886-1.714-4.886-3.828V70.905h25.6l.814.8a1.928,1.928,0,0,0,2.544,0l6.026-5.9h5.731a1.314,1.314,0,1,1,0,2.552H45.388a1.314,1.314,0,1,0,0,2.552h8.469v1.276c0,2.114-2.187,3.828-4.886,3.828H24.543a1.314,1.314,0,1,0,0,2.552H48.971c4.495,0,8.137-2.858,8.143-6.38V69.629a1.485,1.485,0,0,0-1.629-1.276H53.557c.8-1.684-.039-3.575-2-4.509a5.726,5.726,0,0,0,2.3-4.423,4.929,4.929,0,0,0-.2-1.344A3.764,3.764,0,0,0,55.4,55.593h.086a1.935,1.935,0,0,0,.3-.047,20.88,20.88,0,0,0,12.729,3.875c8.291,0,15.154-3.9,16.159-8.932h4.775L87.291,62.877c-.121.7.5,1.341,1.4,1.436a1.836,1.836,0,0,0,.22.013,1.55,1.55,0,0,0,1.614-1.1l2.407-13.836A1.1,1.1,0,0,0,92.54,48.373ZM34.314,13.056a1.232,1.232,0,0,1,.725-1.062l13.3-6.948,1.808,2.123L38.3,13.357a1.232,1.232,0,0,0-.725,1.062V21.14H34.314ZM21.286,26.245V24.968a1.485,1.485,0,0,1,1.629-1.276H48.971A1.485,1.485,0,0,1,50.6,24.968v1.276Zm50.375,18.2,3.291.638-.827,11.022a19.878,19.878,0,0,1-3.339.638Zm-6.228-12.43,3.133,2.455.744,7.287q-.069.021-.135.047a1.228,1.228,0,0,0-.651.956l-1,14.066a20.769,20.769,0,0,1-3.257-.406L62.045,35.559ZM43.165,39h3.063l1.466,2.96a20.9,20.9,0,0,0-3.685-1.155Zm7.384,20.021a2.715,2.715,0,0,1,.05.4c0,2.114-2.187,3.828-4.886,3.828H16.4c-2.613-.007-4.757-1.624-4.865-3.67l.15.06a8.67,8.67,0,0,0,6.171,0l2.62-1.021a2.256,2.256,0,0,1,1.619,0l3.438,1.346a6.366,6.366,0,0,0,4.534,0L33.5,58.613a2.256,2.256,0,0,1,1.619,0l3.438,1.346a6.366,6.366,0,0,0,4.534,0l3.438-1.346a2.256,2.256,0,0,1,1.619,0,6.257,6.257,0,0,0,2.4.412ZM13.143,68.353a1.314,1.314,0,1,1,0-2.552h15.5l2.606,2.552Zm22.8.51L32.817,65.8h6.25ZM51.37,56.269q-.09.038-.186.068h-.037c-.021.006-.033.02-.054.027a2.2,2.2,0,0,1-1.484-.037,6.366,6.366,0,0,0-4.534,0l-3.433,1.35a2.256,2.256,0,0,1-1.619,0l-3.438-1.346a6.366,6.366,0,0,0-4.534,0l-3.438,1.346a2.256,2.256,0,0,1-1.619,0l-3.438-1.346a6.366,6.366,0,0,0-4.534,0L16.4,57.351a4.576,4.576,0,0,1-3.257,0L11.9,56.869a3.305,3.305,0,0,1-1.6-1.276H52.085a1.535,1.535,0,0,1-.715.675Zm5.62-3.546a12.083,12.083,0,0,0-2.493-5.68l-2.182-5.473.985-2.25,2.542.685L60.3,49.873l.585,5.495a11.01,11.01,0,0,1-3.9-2.645Zm20.5,2.026.8-10.565a1.356,1.356,0,0,0-1.231-1.313l-.182-.038,1.14-7.136,4.936,1.548L78.927,53.8a11.3,11.3,0,0,1-1.438.953Z" transform="translate(-5 -2)"/>
        <ellipse id="Ellipse_14" data-name="Ellipse 14" cx="2.587" cy="3.104" rx="2.587" ry="3.104" transform="translate(27.096 42.618)"/>
        <circle id="Ellipse_15" data-name="Ellipse 15" cx="3.104" cy="3.104" r="3.104" transform="translate(20.436 41.364)"/>
        <ellipse id="Ellipse_16" data-name="Ellipse 16" cx="3.104" cy="2.587" rx="3.104" ry="2.587" transform="translate(15.563 44.254)"/>
        <ellipse id="Ellipse_17" data-name="Ellipse 17" cx="3.104" cy="2.587" rx="3.104" ry="2.587" transform="translate(39.388 44.254)"/>
        <circle id="Ellipse_18" data-name="Ellipse 18" cx="3.104" cy="3.104" r="3.104" transform="translate(18.355 42.618)"/>
        <circle id="Ellipse_19" data-name="Ellipse 19" cx="3.104" cy="3.104" r="3.104" transform="translate(32.891 41.364)"/>
      </g>
    </g>
    <g id="send" transform="translate(1349.446 996.845)">
      <path id="Path_47" data-name="Path 47" d="M87.884,36.62a2.579,2.579,0,0,0-3.436-2.955L1.658,65.32a2.582,2.582,0,0,0-.009,4.818l23.257,9v28.337a2.576,2.576,0,0,0,4.877,1.161L39.4,89.515l23.474,17.449a2.576,2.576,0,0,0,4-1.319C88.792,33.671,87.845,36.8,87.884,36.62Zm-20.436,9.07L27.117,74.458,9.765,67.745ZM30.059,78.7,65.213,53.62c-30.25,31.963-28.67,30.281-28.8,30.459-.2.264.341-.765-6.352,12.539Zm32.954,21.943L42.351,85.28,79.711,45.8Z" transform="translate(-0.001 -33.492)"/>
    </g>
    <g id="agreement_2_" data-name="agreement (2)" transform="translate(201.596 1031.473)">
      <g id="Group_34" data-name="Group 34" transform="translate(14.508 4.403)">
        <g id="Group_33" data-name="Group 33" transform="translate(0 0)">
          <path id="Path_1" data-name="Path 1" d="M138.709,156.9c-1.953-4.072-8.94-9.723-15.69-15.184-3.765-3.044-7.323-5.921-9.591-8.189a2.073,2.073,0,0,0-2.168-.485c-1.4.506-2.26.9-2.94,1.2a6.856,6.856,0,0,1-2.782.763,2.073,2.073,0,0,0-1.518.908c-2.932,4.383-5.967,4.009-7.994,3.33-.647-.216-.763-.493-.825-.759-.435-1.82,1.75-6.058,4.582-8.89,6.738-6.742,10.213-8.43,17.552-5.15,8.326,3.723,16.668,6.638,16.751,6.667a2.074,2.074,0,1,0,1.364-3.918c-.083-.029-8.26-2.886-16.42-6.539-9.508-4.25-14.724-1.451-22.175,6-2.836,2.836-6.688,8.575-5.693,12.783a5.128,5.128,0,0,0,3.562,3.736c4.7,1.551,8.985.066,12.178-4.171a10.467,10.467,0,0,0,3.114-.987c.39-.174.846-.377,1.451-.622,2.372,2.227,5.573,4.818,8.944,7.542,6.1,4.93,13.007,10.519,14.562,13.754a2.429,2.429,0,0,1-.618,3.114,2.285,2.285,0,0,1-2.554.5,2.073,2.073,0,0,0-3.238,1.928,2.5,2.5,0,0,1-1.588,2.334,3.182,3.182,0,0,1-3.23.075,2.073,2.073,0,0,0-3.479,1.323,3.94,3.94,0,0,1-2.446,3.176,2.186,2.186,0,0,1-2.38-.369,2.1,2.1,0,0,0-1.895-.481,2.07,2.07,0,0,0-1.455,1.306c-.079.207-.257.7-2.2.7a11.939,11.939,0,0,1-5.079-1.737c-1.455-.958-10.582-7.766-18.464-14.367-1.107-.933-3.023-2.932-4.714-4.7-1.5-1.567-2.873-2.989-3.578-3.587a2.074,2.074,0,0,0-2.678,3.168c.643.543,1.887,1.857,3.259,3.288,1.849,1.932,3.761,3.931,5.046,5.009,7.721,6.464,17,13.443,18.849,14.657a15.906,15.906,0,0,0,7.36,2.413,7.136,7.136,0,0,0,4.706-1.385,6.454,6.454,0,0,0,4.714-.05,8.167,8.167,0,0,0,4.316-3.985,8.018,8.018,0,0,0,5.2-.75,7.035,7.035,0,0,0,3.462-3.616,6.78,6.78,0,0,0,4.756-1.7A6.592,6.592,0,0,0,138.709,156.9Z" transform="translate(-74.642 -118.658)"/>
        </g>
      </g>
      <g id="Group_36" data-name="Group 36" transform="translate(20.732 8.291)">
        <g id="Group_35" data-name="Group 35">
          <path id="Path_2" data-name="Path 2" d="M127.4,138.663H108.739a2.073,2.073,0,1,0,0,4.147H127.4a2.073,2.073,0,1,0,0-4.147Z" transform="translate(-106.666 -138.663)"/>
        </g>
      </g>
      <g id="Group_38" data-name="Group 38" transform="translate(74.793 37.312)">
        <g id="Group_37" data-name="Group 37">
          <path id="Path_3" data-name="Path 3" d="M394.667,288.9a2.068,2.068,0,0,0-2.878-.564l-6.062,4.072a2.074,2.074,0,0,0,2.314,3.442l6.062-4.072A2.075,2.075,0,0,0,394.667,288.9Z" transform="translate(-384.811 -287.977)"/>
        </g>
      </g>
      <g id="Group_40" data-name="Group 40" transform="translate(55.979 35.241)">
        <g id="Group_39" data-name="Group 39">
          <path id="Path_4" data-name="Path 4" d="M303.814,290.2c-1.484-1.169-8.123-7.965-12.228-12.244a2.073,2.073,0,0,0-2.994,2.869c1.066,1.111,10.465,10.909,12.651,12.634a2.065,2.065,0,0,0,1.281.444,2.1,2.1,0,0,0,1.634-.792A2.072,2.072,0,0,0,303.814,290.2Z" transform="translate(-288.015 -277.317)"/>
        </g>
      </g>
      <g id="Group_42" data-name="Group 42" transform="translate(49.758 41.464)">
        <g id="Group_41" data-name="Group 41" transform="translate(0 0)">
          <path id="Path_5" data-name="Path 5" d="M269.741,320.158c-2.484-1.986-8.724-8.616-10.134-10.15a2.075,2.075,0,0,0-3.056,2.807c.075.079,7.522,8.119,10.6,10.582a2.074,2.074,0,0,0,2.592-3.238Z" transform="translate(-256.005 -309.337)"/>
        </g>
      </g>
      <g id="Group_44" data-name="Group 44" transform="translate(41.466 45.605)">
        <g id="Group_43" data-name="Group 43" transform="translate(0 0)">
          <path id="Path_6" data-name="Path 6" d="M227.12,341.5c-2.956-2.492-9.006-8.931-10.188-10.2a2.074,2.074,0,0,0-3.031,2.832c1.7,1.82,7.488,7.957,10.544,10.536a2.074,2.074,0,1,0,2.674-3.172Z" transform="translate(-213.343 -330.644)"/>
        </g>
      </g>
      <g id="Group_46" data-name="Group 46" transform="translate(0 0)">
        <g id="Group_45" data-name="Group 45">
          <path id="Path_7" data-name="Path 7" d="M24.232,100.717C20.678,97.35,6.468,96.259,2.2,96.006A2.071,2.071,0,0,0,0,98.075v37.318a2.074,2.074,0,0,0,2.073,2.073H14.512a2.071,2.071,0,0,0,1.969-1.431c.3-.929,7.447-22.855,8.388-33.635A2.063,2.063,0,0,0,24.232,100.717ZM13,133.32H4.146V100.3c6.663.527,13.853,1.671,16.465,2.94C19.513,112.318,14.541,128.452,13,133.32Z" transform="translate(0 -96.003)"/>
        </g>
      </g>
      <g id="Group_48" data-name="Group 48" transform="translate(70.562 4.145)">
        <g id="Group_47" data-name="Group 47" transform="translate(0 0)">
          <path id="Path_8" data-name="Path 8" d="M389.924,117.33c-16.279,0-25.31,4.167-25.687,4.341a2.063,2.063,0,0,0-1.107,1.29,2.091,2.091,0,0,0,.228,1.683c2.562,4.126,10.586,27.039,12.128,32.628a2.073,2.073,0,0,0,2,1.522h12.439A2.074,2.074,0,0,0,392,156.721V119.4A2.071,2.071,0,0,0,389.924,117.33Zm-2.073,37.318h-8.815c-1.965-6.4-7.77-23.1-11.009-29.995a67.524,67.524,0,0,1,19.824-3.151Z" transform="translate(-363.046 -117.33)"/>
        </g>
      </g>
    </g>
    <g id="rock-and-roll" transform="translate(1808.758 378.081)">
      <path id="Path_39" data-name="Path 39" d="M169.11,62.431V12.082a11.934,11.934,0,1,0-23.867,0V38.7a11.76,11.76,0,0,0-6.6-2.022,11.967,11.967,0,0,0-11.326,8.283,11.9,11.9,0,0,0-13.807-.433V40.375a11.934,11.934,0,1,0-23.867,0V91.513c0,24.832,19.9,45.035,44.367,45.035s44.366-20.2,44.366-45.035v-17.3a12.072,12.072,0,0,0-9.267-11.778ZM150.577,12.082a6.6,6.6,0,1,1,13.2,0V62.127h-13.2c0-.038,0-.075,0-.113V12.082ZM132.043,48.763a6.6,6.6,0,1,1,13.2,0V62.014c0,.038,0,.076,0,.113H134.39a7.573,7.573,0,0,0-2.347.372V48.763Zm-11.934-.9a6.607,6.607,0,0,1,6.6,6.6V74.358a6.6,6.6,0,0,1-13.2,0V54.467A6.607,6.607,0,0,1,120.11,47.867Zm52.932,43.646c0,21.891-17.51,39.7-39.033,39.7s-39.033-17.81-39.033-39.7V40.374a6.6,6.6,0,1,1,13.2,0V74.358a11.929,11.929,0,0,0,22.255,5.978,16.188,16.188,0,0,0,8.6,5.483,28.471,28.471,0,0,0-12.322,23.5,2.667,2.667,0,0,0,5.334,0A22.857,22.857,0,0,1,154.67,86.291a2.667,2.667,0,1,0,0-5.334H142.9a10.975,10.975,0,0,1-10.852-11.069,2.391,2.391,0,0,1,2.347-2.427h32.052a6.683,6.683,0,0,1,6.6,6.748Z" transform="translate(-89.643 0)" fill-rule="evenodd"/>
      <path id="Path_40" data-name="Path 40" d="M178.453,339.486c-3.841,3.921-7.729,13.849-8.218,19.227a2.667,2.667,0,0,0,2.415,2.9c.082.007.163.011.245.011a2.667,2.667,0,0,0,2.653-2.426c.427-4.7,4-13.209,6.716-15.977a2.667,2.667,0,0,0-3.81-3.733Z" transform="translate(-148.733 -248.359)" fill-rule="evenodd"/>
      <path id="Path_41" data-name="Path 41" d="M331.59,97.746c2.259,0,4.1-.719,4.1-1.6s-1.842-1.6-4.1-1.6-4.1.719-4.1,1.6S329.332,97.746,331.59,97.746Z" transform="translate(-264.057 -69.331)" fill-rule="evenodd"/>
      <path id="Path_42" data-name="Path 42" d="M331.59,177.747c2.259,0,4.1-.719,4.1-1.6s-1.842-1.6-4.1-1.6-4.1.719-4.1,1.6S329.332,177.747,331.59,177.747Z" transform="translate(-264.057 -127.996)" fill-rule="evenodd"/>
      <path id="Path_43" data-name="Path 43" d="M123.114,204.547c-2.258,0-4.1.719-4.1,1.6s1.842,1.6,4.1,1.6,4.1-.719,4.1-1.6S125.373,204.547,123.114,204.547Z" transform="translate(-111.181 -149.995)" fill-rule="evenodd"/>
      <path id="Path_44" data-name="Path 44" d="M123.114,284.547c-2.258,0-4.1.719-4.1,1.6s1.842,1.6,4.1,1.6,4.1-.719,4.1-1.6S125.373,284.547,123.114,284.547Z" transform="translate(-111.181 -208.66)" fill-rule="evenodd"/>
    </g>
    <g id="sandwich" transform="translate(1644.1 696.809)">
      <path id="Path_45" data-name="Path 45" d="M76.316,17.675A10.473,10.473,0,0,0,62.077,3.437a12.865,12.865,0,0,0-17.818.341l-40.5,40.5A12.865,12.865,0,0,0,3.419,62.1,10.473,10.473,0,0,0,17.655,76.335,12.865,12.865,0,0,0,35.476,76l40.5-40.5a12.85,12.85,0,0,0,.338-17.821ZM5.96,46.481l40.5-40.5a9.748,9.748,0,0,1,13.11-.6L5.36,59.591a9.748,9.748,0,0,1,.6-13.109Zm1.411,25.9a7.361,7.361,0,0,1,0-10.4L61.966,7.391a7.353,7.353,0,1,1,10.4,10.4L17.77,72.384A7.361,7.361,0,0,1,7.371,72.384Zm66.4-39.09-40.5,40.5a9.748,9.748,0,0,1-13.109.6L74.375,20.184a9.736,9.736,0,0,1-.6,13.11Z" transform="translate(0 -0.02)"/>
      <path id="Path_46" data-name="Path 46" d="M104.881,150.793a13.805,13.805,0,0,0,9.971-9.971,10.7,10.7,0,0,1,7.838-7.838,13.8,13.8,0,0,0,9.97-9.97,10.7,10.7,0,0,1,7.837-7.837,12.827,12.827,0,0,0,6.354-3.616,1.558,1.558,0,1,0-2.2-2.2,9.79,9.79,0,0,1-5.012,2.825,13.8,13.8,0,0,0-9.97,9.97,10.7,10.7,0,0,1-7.838,7.837,13.8,13.8,0,0,0-9.97,9.97,10.7,10.7,0,0,1-7.838,7.838,12.83,12.83,0,0,0-6.354,3.616,1.558,1.558,0,1,0,2.2,2.2,9.79,9.79,0,0,1,5.013-2.825Z" transform="translate(-82.068 -91.943)"/>
    </g>
    <g id="watch" transform="matrix(0.966, -0.259, 0.259, 0.966, 442.125, 172.889)">
      <g id="Group_82" data-name="Group 82" transform="translate(46.918 8.192)">
        <g id="Group_81" data-name="Group 81" transform="translate(0 0)">
          <path id="Path_52" data-name="Path 52" d="M4.385,1.781a2.235,2.235,0,0,0-.126-.414,2.186,2.186,0,0,0-.2-.383A2.2,2.2,0,0,0,3.442.373a2.24,2.24,0,0,0-.381-.2A2.07,2.07,0,0,0,2.647.043a2.19,2.19,0,0,0-.865,0,2.075,2.075,0,0,0-.414.126,2.355,2.355,0,0,0-.383.2A2.211,2.211,0,0,0,.649.648,2.118,2.118,0,0,0,.374.984a2.184,2.184,0,0,0-.2.383,2.234,2.234,0,0,0-.126.414,2.126,2.126,0,0,0,0,.863A2.308,2.308,0,0,0,.17,3.06a2.245,2.245,0,0,0,.2.381,2.118,2.118,0,0,0,.275.336,2.221,2.221,0,0,0,.336.275,2.336,2.336,0,0,0,.383.2,2.07,2.07,0,0,0,.414.126,2.136,2.136,0,0,0,.865,0,2.075,2.075,0,0,0,.414-.126,2.24,2.24,0,0,0,.381-.2,2.2,2.2,0,0,0,.613-.611,2.247,2.247,0,0,0,.2-.381,2.31,2.31,0,0,0,.126-.416,2.249,2.249,0,0,0,0-.863Z"/>
        </g>
      </g>
      <g id="Group_84" data-name="Group 84" transform="translate(23.479 100.725)">
        <g id="Group_83" data-name="Group 83" transform="translate(0 0)">
          <path id="Path_53" data-name="Path 53" d="M4.383,1.781a2.236,2.236,0,0,0-.126-.414,2.185,2.185,0,0,0-.2-.383A2.119,2.119,0,0,0,3.779.648,2.224,2.224,0,0,0,3.442.374a2.355,2.355,0,0,0-.383-.2A2.238,2.238,0,0,0,2.645.042a2.277,2.277,0,0,0-.866,0A2.275,2.275,0,0,0,.985.374,2.2,2.2,0,0,0,.372.985a2.186,2.186,0,0,0-.2.383,2.237,2.237,0,0,0-.126.414,2.235,2.235,0,0,0,0,.863,2.236,2.236,0,0,0,.126.414,2.186,2.186,0,0,0,.2.383,2.2,2.2,0,0,0,.613.611,2.248,2.248,0,0,0,.381.2,2.082,2.082,0,0,0,.414.126,2.2,2.2,0,0,0,2-.6,2.23,2.23,0,0,0,.649-1.565A2.18,2.18,0,0,0,4.383,1.781Z"/>
        </g>
      </g>
      <g id="Group_86" data-name="Group 86" transform="translate(35.198 41.455)">
        <g id="Group_85" data-name="Group 85" transform="translate(0 0)">
          <path id="Path_54" data-name="Path 54" d="M10.82,13H4.427V2.214A2.214,2.214,0,0,0,0,2.214v13a2.214,2.214,0,0,0,2.214,2.214H10.82a2.214,2.214,0,1,0,0-4.427Z" transform="translate(0)"/>
        </g>
      </g>
      <g id="Group_88" data-name="Group 88" transform="translate(0 0)">
        <g id="Group_87" data-name="Group 87" transform="translate(0 0)">
          <path id="Path_55" data-name="Path 55" d="M79.916,49.107h-5.86A37.118,37.118,0,0,0,72.4,43.42l5.817-3.711a2.213,2.213,0,0,0,.676-3.057L74.456,29.7A2.214,2.214,0,0,0,71.4,29.02L65.945,32.5A37.744,37.744,0,0,0,61.779,28.3L59.207,2A2.213,2.213,0,0,0,57,0H17.821a2.214,2.214,0,0,0-2.2,2L13.046,28.3a37.364,37.364,0,0,0,0,56.734l2.572,26.306a2.214,2.214,0,0,0,2.2,2H57a2.213,2.213,0,0,0,2.2-2l2.572-26.306a37.393,37.393,0,0,0,12.7-23.252h5.44a2.214,2.214,0,0,0,2.214-2.214V51.321A2.214,2.214,0,0,0,79.916,49.107ZM19.028,12.618H40.942a2.214,2.214,0,0,0,0-4.427H19.46l.368-3.763H55L56.987,24.8a37.351,37.351,0,0,0-39.151,0ZM55.8,100.725H33.882a2.214,2.214,0,0,0,0,4.427H55.364L55,108.916H19.828L17.837,88.543a37.351,37.351,0,0,0,39.151,0ZM37.412,89.656A32.985,32.985,0,1,1,70.4,56.671,33.022,33.022,0,0,1,37.412,89.656Zm31.2-53.608,3.3-2.105,2.057,3.224-3.408,2.174A37.413,37.413,0,0,0,68.613,36.048ZM77.7,57.359H74.818q.006-.343.006-.688,0-1.584-.13-3.137H77.7Z"/>
        </g>
      </g>
      <g id="Group_90" data-name="Group 90" transform="translate(9.17 28.43)">
        <g id="Group_89" data-name="Group 89" transform="translate(0 0)">
          <path id="Path_56" data-name="Path 56" d="M28.242,0A28.242,28.242,0,1,0,56.483,28.242,28.274,28.274,0,0,0,28.242,0Zm2.214,51.954V50.591a2.214,2.214,0,1,0-4.427,0v1.363a23.856,23.856,0,0,1-21.5-21.5H5.892a2.214,2.214,0,1,0,0-4.427H4.53a23.856,23.856,0,0,1,21.5-21.5V5.892a2.214,2.214,0,1,0,4.427,0V4.53a23.856,23.856,0,0,1,21.5,21.5H50.591a2.214,2.214,0,1,0,0,4.427h1.363A23.856,23.856,0,0,1,30.455,51.954Z" transform="translate(0 0)"/>
        </g>
      </g>
    </g>
    <g id="Layer_6" data-name="Layer 6" transform="translate(721.852 457.004)">
      <path id="Path_13" data-name="Path 13" d="M91.175,63.174H89.7V51.954a15.359,15.359,0,0,0-5.529-11.826,15.581,15.581,0,0,0-3.341-2.084l-.281-1.478h3.237a4.435,4.435,0,0,0,4.435-4.435V29.174a4.435,4.435,0,0,0-4.435-4.435H78.151l-1.626-8.2A11.826,11.826,0,0,0,64.921,7H28.732a11.827,11.827,0,0,0-11.6,9.537l-1.626,8.2H9.87a4.435,4.435,0,0,0-4.435,4.435v2.957A4.435,4.435,0,0,0,9.87,36.565h3.311L12.9,38.044a15.581,15.581,0,0,0-3.415,2.143A15.359,15.359,0,0,0,3.957,52.013V63.174H2.478A1.478,1.478,0,0,0,1,64.653v5.913a1.478,1.478,0,0,0,1.478,1.478H9.87v4.435A4.435,4.435,0,0,0,14.3,80.914H26.131a4.435,4.435,0,0,0,4.435-4.435V72.044H63.087v4.435a4.435,4.435,0,0,0,4.435,4.435H79.349a4.435,4.435,0,0,0,4.435-4.435V72.044h7.391a1.478,1.478,0,0,0,1.478-1.478V64.653A1.478,1.478,0,0,0,91.175,63.174ZM83.783,27.7a1.478,1.478,0,0,1,1.478,1.478v2.957a1.478,1.478,0,0,1-1.478,1.478H79.9L78.728,27.7ZM64.921,9.957a8.87,8.87,0,0,1,6.593,2.957H22.139a8.87,8.87,0,0,1,6.593-2.957ZM9.87,33.609a1.478,1.478,0,0,1-1.478-1.478V29.174A1.478,1.478,0,0,1,9.87,27.7h5.056l-1.168,5.913Zm10.156-16.5a10.953,10.953,0,0,1,.355-1.242H73.273a10.955,10.955,0,0,1,.355,1.242l3.9,19.809a15.6,15.6,0,0,0-3.223-.355H19.345a15.6,15.6,0,0,0-3.223.355ZM6.913,51.954A12.417,12.417,0,0,1,19.345,39.522H74.308A12.417,12.417,0,0,1,86.74,51.954v11.22H60.131V49.87A4.435,4.435,0,0,0,55.7,45.435H37.957a4.435,4.435,0,0,0-4.435,4.435v13.3H6.913Zm50.261-.606h-20.7V49.87a1.478,1.478,0,0,1,1.478-1.478H55.7a1.478,1.478,0,0,1,1.478,1.478ZM36.479,54.3h20.7v2.957h-20.7Zm0,5.913h20.7v2.957h-20.7Zm-8.87,16.261a1.478,1.478,0,0,1-1.478,1.478H14.3a1.478,1.478,0,0,1-1.478-1.478V72.044H27.609Zm53.218,0a1.478,1.478,0,0,1-1.478,1.478H67.522a1.478,1.478,0,0,1-1.478-1.478V72.044H80.827Zm8.87-7.391H3.957V66.131H89.7Z" transform="translate(-1 -7)"/>
      <path id="Path_14" data-name="Path 14" d="M17.348,34C11.553,34,7,36.957,7,40.652S11.553,47.3,17.348,47.3,27.7,44.348,27.7,40.652,23.143,34,17.348,34Zm0,10.348c-4.361,0-7.391-1.951-7.391-3.7s3.03-3.7,7.391-3.7,7.391,1.951,7.391,3.7S21.783,44.348,17.348,44.348Z" transform="translate(1.87 5.913)"/>
      <path id="Path_15" data-name="Path 15" d="M53.348,47.3c5.795,0,10.348-2.957,10.348-6.652S59.143,34,53.348,34,43,36.957,43,40.652,47.553,47.3,53.348,47.3Zm0-10.348c4.435,0,7.391,1.951,7.391,3.7s-2.957,3.7-7.391,3.7-7.391-1.951-7.391-3.7S48.987,36.957,53.348,36.957Z" transform="translate(19.087 5.913)"/>
      <rect id="Rectangle_5" data-name="Rectangle 5" width="12.551" height="2.957" transform="translate(28.523 24.081) rotate(-45)"/>
      <rect id="Rectangle_6" data-name="Rectangle 6" width="12.551" height="2.957" transform="translate(40.344 24.085) rotate(-45)"/>
      <rect id="Rectangle_7" data-name="Rectangle 7" width="12.551" height="2.957" transform="translate(52.181 24.09) rotate(-45)"/>
    </g>
    <g id="gym" transform="translate(832.783 327.005) rotate(-20)">
      <g id="Group_51" data-name="Group 51" transform="translate(0 0)">
        <path id="Path_19" data-name="Path 19" d="M105.376,69.651a1.566,1.566,0,0,0,1.567-1.567v-3.03a5.4,5.4,0,0,0-5.213-5.554H99.194v-3.21a4.078,4.078,0,0,0-4.073-4.073H82.511a4.078,4.078,0,0,0-4.073,4.073V64.65a169.976,169.976,0,0,0-36.569,0V56.291A4.078,4.078,0,0,0,37.8,52.217h-1A171.791,171.791,0,0,0,62.48,32.99L67.4,39.75a4.078,4.078,0,0,0,5.69.9l10.2-7.417h0a4.078,4.078,0,0,0,.9-5.69l-1.888-2.6,2.05-1.491a5.4,5.4,0,0,0,.948-7.558l-8.5-11.69A5.4,5.4,0,0,0,69.307,2.78l-2.05,1.492-1.888-2.6a4.078,4.078,0,0,0-5.69-.9l-10.2,7.417a4.078,4.078,0,0,0-.9,5.69l4.917,6.76A169.954,169.954,0,0,0,23.928,42.155l-3.617-4.972A6.293,6.293,0,0,0,11.533,35.8L4.91,40.614a6.291,6.291,0,0,0-1.385,8.778l.588.808-2.05,1.491a5.4,5.4,0,0,0-.948,7.558l8.5,11.69a5.694,5.694,0,0,0,3.748,2.309V79.51a5.4,5.4,0,0,0,5.213,5.554h2.535v3.21a4.078,4.078,0,0,0,4.073,4.073H37.8a4.078,4.078,0,0,0,4.073-4.073V79.916c4.452.518,9.457.844,14.6.947H56.5a1.567,1.567,0,0,0,.031-3.133c-5.183-.1-10.218-.438-14.66-.969V67.8a166.58,166.58,0,0,1,36.569,0v8.958c-4.442.531-9.477.865-14.66.969a1.567,1.567,0,0,0,.031,3.133h.032c5.141-.1,10.146-.429,14.6-.947v8.358a4.078,4.078,0,0,0,4.073,4.073h12.61a4.078,4.078,0,0,0,4.073-4.073v-3.21h2.535a5.4,5.4,0,0,0,5.213-5.555V75.4a1.567,1.567,0,1,0-3.133,0V79.51a2.3,2.3,0,0,1-2.08,2.421H99.194v-19.3h2.535a2.3,2.3,0,0,1,2.08,2.421v3.03A1.566,1.566,0,0,0,105.376,69.651ZM71.15,5.314a2.3,2.3,0,0,1,3.106.735l8.5,11.69A2.3,2.3,0,0,1,82.5,20.92l-2.05,1.491L69.1,6.805ZM51.117,12.042a.953.953,0,0,1,.207-1.313l10.2-7.417a.952.952,0,0,1,1.313.207l16,22h0l2.809,3.861a.953.953,0,0,1-.207,1.313l-10.2,7.417a.946.946,0,0,1-1.313-.207ZM55.356,23.2l5.27,7.244A166.482,166.482,0,0,1,31.052,51.949l-5.269-7.243A166.543,166.543,0,0,1,55.356,23.2ZM13.365,65.055v4.973a2.664,2.664,0,0,1-1.214-.931l-8.5-11.69a2.284,2.284,0,0,1,.258-3.181l2.05-1.491,7.68,10.558A5.95,5.95,0,0,0,13.365,65.055Zm7.748,16.877H18.578A2.3,2.3,0,0,1,16.5,79.51V65.055a2.673,2.673,0,0,1,.538-1.6,1.967,1.967,0,0,1,1.541-.819h2.535v19.3Zm0-25.641V59.5H18.578c-.127,0-.253.006-.378.016l-.066.005a4.993,4.993,0,0,0-2.611,1.037L6.059,47.549a3.154,3.154,0,0,1,.694-4.4l6.622-4.817a3.162,3.162,0,0,1,4.4.694l9.595,13.191H25.187A4.078,4.078,0,0,0,21.114,56.29ZM38.736,88.274a.953.953,0,0,1-.94.94H25.187a.953.953,0,0,1-.94-.94c0-1.474,0-31.023,0-31.984a.953.953,0,0,1,.94-.94H37.8a.953.953,0,0,1,.94.94Zm57.325,0a.953.953,0,0,1-.94.94H82.512a.953.953,0,0,1-.94-.94V56.291a.953.953,0,0,1,.94-.94h12.61a.953.953,0,0,1,.94.94Z"/>
      </g>
    </g>
    <g id="XMLID_1506_" transform="translate(1451.588 158.405)">
      <g id="XMLID_992_" transform="translate(0 0)">
        <path id="XMLID_995_" d="M105.011,66.394h-3.167v-20c0-2.826-2.851-5.125-6.356-5.125H94.424V28.446c0-2.3-1.887-4.248-4.477-4.9V9.87A1.365,1.365,0,0,0,89.4,8.807a4.275,4.275,0,0,0-1.031-5.916L85.324.438a2.183,2.183,0,0,0-2.623,0L79.659,2.891a4.276,4.276,0,0,0-1.031,5.916,1.365,1.365,0,0,0-.551,1.063V23.321H68.853V9.87A1.365,1.365,0,0,0,68.3,8.807a4.276,4.276,0,0,0-1.031-5.916L64.229.438a2.183,2.183,0,0,0-2.623,0L58.564,2.891a4.276,4.276,0,0,0-1.031,5.916,1.365,1.365,0,0,0-.551,1.063V23.321H47.758V9.87a1.365,1.365,0,0,0-.551-1.063,4.276,4.276,0,0,0-1.031-5.916L43.135.438a2.183,2.183,0,0,0-2.623,0L37.469,2.891a4.276,4.276,0,0,0-1.031,5.916,1.365,1.365,0,0,0-.551,1.063v13.67c-2.614.636-4.524,2.594-4.524,4.907V41.269H30.3c-3.5,0-6.356,2.3-6.356,5.125v20H20.778a1.7,1.7,0,0,0-1.855,1.5c0,4.782,4.826,8.673,10.757,8.673H96.108c5.932,0,10.757-3.891,10.757-8.673a1.7,1.7,0,0,0-1.855-1.5ZM82.282,5.006l1.731-1.4,1.731,1.4a1.718,1.718,0,0,1,0,2.791,2.884,2.884,0,0,1-3.461,0A1.718,1.718,0,0,1,82.282,5.006Zm-.5,6.359h4.451V23.321H81.787Zm-20.6-6.359,1.731-1.4,1.73,1.4a1.718,1.718,0,0,1,0,2.791,2.883,2.883,0,0,1-3.461,0A1.718,1.718,0,0,1,61.187,5.006Zm-.5,6.359h4.451V23.321H60.692Zm-21.095,0h4.451V23.321H39.6Zm.5-6.359,1.731-1.4,1.731,1.4a1.718,1.718,0,0,1,0,2.791,2.884,2.884,0,0,1-3.461,0A1.718,1.718,0,0,1,40.092,5.006Zm-5.019,23.44a2.435,2.435,0,0,1,2.647-2.134H88.068a2.435,2.435,0,0,1,2.647,2.134V41.269H35.073ZM30.3,44.26H95.487a2.435,2.435,0,0,1,2.647,2.134v1.668H94.69c-3.945,0-7.154,2.587-7.154,5.768v.882c0,1.531-1.545,2.777-3.444,2.777s-3.444-1.246-3.444-2.777v-.882c0-3.18-3.209-5.768-7.154-5.768s-7.154,2.587-7.154,5.768v.882c0,1.531-1.545,2.777-3.444,2.777s-3.444-1.246-3.444-2.777v-.882c0-3.18-3.209-5.768-7.154-5.768s-7.154,2.587-7.154,5.768v.882c0,1.531-1.545,2.777-3.444,2.777s-3.444-1.246-3.444-2.777v-.882c0-3.18-3.209-5.768-7.154-5.768H27.654V46.394A2.435,2.435,0,0,1,30.3,44.26ZM96.108,73.571H29.68c-3.245,0-5.984-1.777-6.8-4.187H54.548a1.53,1.53,0,1,0,0-2.991H27.654V51.052H31.1c1.9,0,3.445,1.246,3.445,2.777v.882c0,3.18,3.209,5.768,7.154,5.768s7.154-2.587,7.154-5.768v-.882c0-1.531,1.545-2.777,3.444-2.777S55.74,52.3,55.74,53.829v.882c0,3.18,3.209,5.768,7.154,5.768s7.154-2.587,7.154-5.768v-.882c0-1.531,1.545-2.777,3.445-2.777s3.444,1.246,3.444,2.777v.882c0,3.18,3.209,5.768,7.154,5.768s7.154-2.587,7.154-5.768v-.882c0-1.531,1.545-2.777,3.445-2.777h3.445V66.394H71.24a1.53,1.53,0,1,0,0,2.991h31.668C102.092,71.794,99.353,73.571,96.108,73.571Z" transform="translate(-18.923 0)"/>
      </g>
    </g>
    <g id="iphone_2_" data-name="iphone (2)" transform="translate(1169.018 268.072)">
      <g id="Group_60" data-name="Group 60" transform="translate(0)">
        <g id="Group_59" data-name="Group 59" transform="translate(0)">
          <path id="Path_23" data-name="Path 23" d="M170.533,0H128.713A8.723,8.723,0,0,0,120,8.713v94.1a8.723,8.723,0,0,0,8.713,8.713h41.821a8.723,8.723,0,0,0,8.713-8.713V8.713A8.723,8.723,0,0,0,170.533,0Zm5.228,102.809a5.228,5.228,0,0,1-5.228,5.228H128.713a5.228,5.228,0,0,1-5.228-5.228V92.354h52.276Zm0-13.94H123.485v-69.7h52.276Zm0-73.186H123.485V8.713a5.228,5.228,0,0,1,5.228-5.228h41.821a5.228,5.228,0,0,1,5.228,5.228Z" transform="translate(-120)"/>
        </g>
      </g>
      <g id="Group_62" data-name="Group 62" transform="translate(24.395 94.097)">
        <g id="Group_61" data-name="Group 61" transform="translate(0)">
          <path id="Path_24" data-name="Path 24" d="M237.228,432a5.228,5.228,0,1,0,5.228,5.228A5.228,5.228,0,0,0,237.228,432Zm0,6.97a1.743,1.743,0,1,1,1.743-1.743A1.743,1.743,0,0,1,237.228,438.97Z" transform="translate(-232 -432)"/>
        </g>
      </g>
      <g id="Group_64" data-name="Group 64" transform="translate(20.91 8.713)">
        <g id="Group_63" data-name="Group 63" transform="translate(0)">
          <path id="Path_25" data-name="Path 25" d="M231.683,40h-13.94a1.743,1.743,0,0,0,0,3.485h13.94a1.743,1.743,0,0,0,0-3.485Z" transform="translate(-216 -40)"/>
        </g>
      </g>
      <g id="Group_66" data-name="Group 66" transform="translate(47.048 81.899)">
        <g id="Group_65" data-name="Group 65" transform="translate(0)">
          <path id="Path_26" data-name="Path 26" d="M339.485,376h-1.743a1.743,1.743,0,0,0,0,3.485h1.743a1.743,1.743,0,1,0,0-3.485Z" transform="translate(-336 -376)"/>
        </g>
      </g>
      <g id="Group_68" data-name="Group 68" transform="translate(40.078 81.899)">
        <g id="Group_67" data-name="Group 67">
          <path id="Path_27" data-name="Path 27" d="M307.485,376h-1.743a1.743,1.743,0,0,0,0,3.485h1.743a1.743,1.743,0,1,0,0-3.485Z" transform="translate(-304 -376)"/>
        </g>
      </g>
      <g id="Group_70" data-name="Group 70" transform="translate(33.108 81.899)">
        <g id="Group_69" data-name="Group 69">
          <path id="Path_28" data-name="Path 28" d="M275.485,376h-1.743a1.743,1.743,0,1,0,0,3.485h1.743a1.743,1.743,0,0,0,0-3.485Z" transform="translate(-272 -376)"/>
        </g>
      </g>
    </g>
    <g id="audio-3" data-name="audio" transform="translate(453.708 536.249)">
      <g id="Group_49-3" data-name="Group 49" transform="translate(27.119 0) rotate(16)">
        <path id="Path_9-3" data-name="Path 9" d="M117.663,28.845v0C103.585,4.112,67.068-6.821,36.1,4.423c-13.554,4.921-24.416,13.6-30.578,24.42A40.688,40.688,0,0,0,0,49.2V64.6a10.386,10.386,0,0,0,4.211,8.114l8.3,6.629,1.127,2.482c3.478,7.363,12.378,12.184,22.231,12.041.431,0,.868-.043,1.3-.059l.1.226c1.552,3.426,6.288,5.2,10.577,3.958h0l.337-.1c4.288-1.235,6.511-5.012,4.965-8.436h0L36.89,53.551c-1.564-3.419-6.292-5.187-10.582-3.958l-.333.1c-3.645,1.041-5.885,3.973-5.377,7.037a21.157,21.157,0,0,0-8.056,8.019,1.384,1.384,0,0,1-.224-.71V49.2c0-21.733,22.061-39.35,49.274-39.35s49.274,17.618,49.274,39.35V64.036a1.274,1.274,0,0,1-.086.343,21.369,21.369,0,0,0-7.857-7.655c.507-3.063-1.731-5.992-5.373-7.034l-.341-.1c-4.287-1.228-9.01.541-10.569,3.958L70.376,89.456c-1.548,3.424.673,7.2,4.96,8.437l.337.1c4.29,1.236,9.023-.536,10.578-3.96l.1-.226c.433.016.873.059,1.3.059,9.852.143,18.752-4.677,22.231-12.039L111.2,78.92l7.771-6.207a10.386,10.386,0,0,0,4.211-8.113V49.2A40.689,40.689,0,0,0,117.663,28.845ZM25.021,54.48a3.908,3.908,0,0,1,2.351-1.708l.333-.1c2.158-.624,4.541.267,5.324,1.99L49.291,90.573c.777,1.718-.338,3.613-2.489,4.233l-.006,0-.337.1c-2.158.621-4.538-.269-5.322-1.99l-.616-1.372L24.877,57A2.68,2.68,0,0,1,25.021,54.48Zm-3.133,5.581v-.007L35.724,90.587c-7.438.069-14.266-3.274-17.564-8.6h.318c.205,0,.39-.031.585-.046s.337-.015.505-.038a7.716,7.716,0,0,0,.795-.164c.148-.036.3-.059.439-.1a7.044,7.044,0,0,0,.8-.318c.121-.054.248-.093.365-.154,2.966-1.528,3.82-4.687,1.907-7.056a5.525,5.525,0,0,0-.864-.852l-7.356-5.88A16.533,16.533,0,0,1,21.888,60.062ZM8.212,49.2V64.036a4.448,4.448,0,0,0,1.8,3.478l10.089,8.059a1.59,1.59,0,0,1,0,2.6,2.73,2.73,0,0,1-3.256,0L7.114,70.394A7.415,7.415,0,0,1,4.106,64.6V49.2A37.785,37.785,0,0,1,8.73,31.162h4.488A35.7,35.7,0,0,0,8.212,49.2ZM61.593,6.568C42.522,6.572,24.9,14.7,15.359,27.883H10.676C25.415,5.426,60.16-3.237,88.28,8.533c10.352,4.333,18.8,11.083,24.23,19.35h-4.683C98.286,14.7,80.664,6.572,61.593,6.568ZM85.239,86.626l-2.228,4.919L82.4,92.917c-.781,1.724-3.165,2.616-5.324,1.993h0l-.337-.1c-2.154-.619-3.271-2.515-2.5-4.235L90.5,54.669c.779-1.722,3.158-2.614,5.315-1.992h0l.341.1c2.152.618,3.27,2.512,2.5,4.231l0,0Zm2.573,3.961,9.073-20.034,4.753-10.493a16.667,16.667,0,0,1,6.159,7.116l-7.609,6.078a4.431,4.431,0,0,0,0,7.237,6.34,6.34,0,0,0,1.086.689c.129.066.265.11.4.164a7.216,7.216,0,0,0,.821.308c.16.048.322.079.487.115a7.849,7.849,0,0,0,.8.146c.175.02.347.03.521.039.142,0,.279.033.411.033s.248-.023.374-.03.205.01.3,0C102.1,87.3,95.263,90.654,87.811,90.587ZM119.08,64.6a7.421,7.421,0,0,1-3.008,5.8l-8.091,6.463-1.642,1.312a2.73,2.73,0,0,1-3.256,0,1.59,1.59,0,0,1,0-2.6l10.089-8.059a4.453,4.453,0,0,0,1.8-3.476V49.2a35.7,35.7,0,0,0-5.005-18.035h4.488A37.786,37.786,0,0,1,119.08,49.2Z" transform="translate(0 0)"/>
      </g>
    </g>
    <g id="hat" transform="translate(1042.439 118.457)">
      <g id="Group_52" data-name="Group 52" transform="translate(0)">
        <path id="Path_20" data-name="Path 20" d="M82.95,143.924a35.878,35.878,0,0,0-10.894-5.337C71.351,103.237,63.6,94.5,55.845,94.5c-5.39.013-10.634,4.412-13.5,6.812-.713.6-1.256,1.062-1.508,1.25-1.67.962-4.053.4-6.549-.187a22.2,22.2,0,0,0-5.366-.85c-6.671.088-12.62,5.775-13.058,37.1a35.824,35.824,0,0,0-10.877,5.325c-3.2,2.5-4.993,5.5-4.993,8.937,0,5.6,5.2,10.337,13.609,13.475,7.805,2.9,18.537,4.7,30.362,4.7s22.565-1.8,30.362-4.7c8.405-3.125,13.609-7.875,13.609-13.475C87.942,149.437,86.119,146.412,82.95,143.924Zm-54-37.687h0a21.161,21.161,0,0,1,4.863.775c2.885.688,5.674,1.338,8.105-.075a16.679,16.679,0,0,0,1.9-1.475c2.6-2.187,7.384-6.25,12-6.25,6.606,0,13.2,8.75,13.2,44.737,0,1.5-2.529,3.187-6.614,4.7a54.866,54.866,0,0,1-18.44,2.875A54.825,54.825,0,0,1,25.524,148.7c-4.053-1.525-6.614-3.212-6.614-4.7v-.225C18.764,111.9,23.546,106.312,28.952,106.237Zm44.66,55.5c-7.554,2.813-18.034,4.55-29.641,4.55s-22.087-1.737-29.641-4.55c-6.946-2.587-11.25-5.75-11.25-8.875,0-1.45,1.183-3.062,3.291-4.7a32.433,32.433,0,0,1,9.475-4.7v.525c0,3.975,3.429,7.237,8.964,9.3a56.882,56.882,0,0,0,19.161,2.987A56.876,56.876,0,0,0,63.14,153.3c5.544-2.062,8.964-5.325,8.964-9.3v-.525a32.451,32.451,0,0,1,9.459,4.7c2.115,1.637,3.3,3.25,3.3,4.712C84.862,155.987,80.567,159.149,73.612,161.737Z" transform="translate(0 -94.5)"/>
      </g>
    </g>
    <g id="muscle" transform="translate(2098.151 327.434)">
      <g id="Group_73" data-name="Group 73" transform="translate(1.3 1.402)">
        <path id="Path_31" data-name="Path 31" d="M44.875,81.3A52.075,52.075,0,0,1,13.538,68.646a1.042,1.042,0,0,0-.712-.282H10.37a2.875,2.875,0,0,1-2.781-3.608c7.449-28.093,25.159-43.544,27.056-45.136a1.042,1.042,0,0,0,.263-.337A21.487,21.487,0,0,1,48.6,8.113a1.039,1.039,0,0,1,.992.273L61.278,20.071a1.041,1.041,0,0,1-.112,1.57l-9.737,7.3a1.041,1.041,0,0,1-1.435-.179l-1.66-2.056a1.039,1.039,0,0,0-1.316-.255,13.939,13.939,0,0,1-5.616,1.6,1.038,1.038,0,0,0-.94.917l-2.343,20.3a1.042,1.042,0,0,0,1.423,1.088,30.057,30.057,0,0,1,11.085-2.13,28.352,28.352,0,0,1,14.463,3.822,1.039,1.039,0,0,0,1.5-.491c3.794-9.1,13.993-14.519,26.1-14.82a1.043,1.043,0,0,1,1.067,1.042V93.2a1.041,1.041,0,0,1-1.041,1.041h-6.8c-7.842,0-14.676-6.529-18.256-16.19a1.04,1.04,0,0,0-1.441-.575C63.567,78.813,55.971,82,44.875,81.3Z" transform="translate(-7.492 -8.081)"/>
        <path id="Path_32" data-name="Path 32" d="M44.875,81.3A52.075,52.075,0,0,1,13.538,68.646a1.042,1.042,0,0,0-.712-.282H10.37a2.875,2.875,0,0,1-2.781-3.608c7.449-28.093,25.159-43.544,27.056-45.136a1.042,1.042,0,0,0,.263-.337A21.487,21.487,0,0,1,48.6,8.113a1.039,1.039,0,0,1,.992.273L61.278,20.071a1.041,1.041,0,0,1-.112,1.57l-9.737,7.3a1.041,1.041,0,0,1-1.435-.179l-1.66-2.056a1.039,1.039,0,0,0-1.316-.255,13.939,13.939,0,0,1-5.616,1.6,1.038,1.038,0,0,0-.94.917l-2.343,20.3a1.042,1.042,0,0,0,1.423,1.088,30.057,30.057,0,0,1,11.085-2.13,28.352,28.352,0,0,1,14.463,3.822,1.039,1.039,0,0,0,1.5-.491c3.794-9.1,13.993-14.519,26.1-14.82a1.043,1.043,0,0,1,1.067,1.042V93.2a1.041,1.041,0,0,1-1.041,1.041h-6.8c-7.842,0-14.676-6.529-18.256-16.19a1.04,1.04,0,0,0-1.441-.575C63.567,78.813,55.971,82,44.875,81.3Z" transform="translate(-7.492 -8.081)"/>
      </g>
      <path id="Path_38" data-name="Path 38" d="M87.565,28.758A36.64,36.64,0,0,0,69.5,33.151a23.382,23.382,0,0,0-10.2,10.978A29.568,29.568,0,0,0,44.434,40.26,30.345,30.345,0,0,0,33.27,42.32L34.554,31.2l.986-8.54a14.72,14.72,0,0,0,5.732-1.633l2.15,2.663a1.3,1.3,0,0,0,1.794.224l11.5-8.626a1.3,1.3,0,0,0,.139-1.962L43.917.385A1.3,1.3,0,0,0,42.77.024a22.552,22.552,0,0,0-15.2,11.959A75.635,75.635,0,0,0,16.931,23.511,98.275,98.275,0,0,0,.143,57.736a4.18,4.18,0,0,0,4.037,5.255H6.531a46.172,46.172,0,0,0,9.246,6.431,1.3,1.3,0,1,0,1.237-2.291,48.123,48.123,0,0,1-6.564-4.25,1.3,1.3,0,0,0-.522-2.494H4.179A1.576,1.576,0,0,1,2.659,58.4,95.666,95.666,0,0,1,18.942,25.167q.722-.945,1.421-1.811l11.309,10.1L30.5,43.6c-.377.2-.75.409-1.115.628a1.3,1.3,0,1,0,1.341,2.231,26.93,26.93,0,0,1,13.707-3.6c6.292,0,12.274,2.016,16.41,5.532a1.3,1.3,0,0,0,1.686-1.984q-.492-.418-1.016-.81c3.391-8.377,12.908-13.845,24.749-14.219V86.266h-6.54c-7.1,0-13.581-5.9-17.079-15.46A31.252,31.252,0,0,0,69.6,64.968a15.853,15.853,0,0,1,2.288,8.223,1.3,1.3,0,1,0,2.6,0A18.456,18.456,0,0,0,70.838,62.15a1.288,1.288,0,0,0-.177-.233,18.534,18.534,0,0,0-14.725-7.28H50.185a1.3,1.3,0,1,0,0,2.6h5.751a15.92,15.92,0,0,1,12.1,5.567,28.643,28.643,0,0,1-7.508,6.244,1.271,1.271,0,0,0-.172.1c-5.843,3.309-13.063,4.715-21.59,4.182a52.732,52.732,0,0,1-16.928-3.905,1.3,1.3,0,0,0-1,2.405,55.326,55.326,0,0,0,17.762,4.1q1.815.114,3.564.113a41.874,41.874,0,0,0,15.217-2.622q1.527-.594,2.963-1.323C64.27,82.483,71.6,88.869,79.723,88.869h7.842a1.3,1.3,0,0,0,1.3-1.3V30.06a1.3,1.3,0,0,0-1.3-1.3ZM42.589,2.74,53.954,14.1l-9.3,6.972-1.266-1.567a8.057,8.057,0,0,0,2.3-3.491,1.3,1.3,0,1,0-2.512-.685,5.947,5.947,0,0,1-2.313,2.876,1.311,1.311,0,0,0-.126.089h0a11.586,11.586,0,0,1-5.7,1.79l-4.914-7.372A20.382,20.382,0,0,1,42.589,2.74ZM22.026,21.35a73.109,73.109,0,0,1,6.331-6.589l4.665,7-.985,8.533Z" transform="translate(0 -0.004)"/>
    </g>
    <path id="ramen" d="M87.918,20.087l-.394-2.511a2.307,2.307,0,0,0-1.047-1.567,2.9,2.9,0,0,0-1.995-.441L38.377,21.817a7.928,7.928,0,0,1,1.084-2.994c.087-.164.177-.341.268-.529L82.013,7.04A2.6,2.6,0,0,0,83.6,5.884a2.107,2.107,0,0,0,.186-1.814l-.86-2.418A2.443,2.443,0,0,0,81.6.261a2.951,2.951,0,0,0-2.05-.14l-12.6,3.688a1.117,1.117,0,0,0-.818,1.44,1.329,1.329,0,0,0,1.625.725l12.6-3.688a.094.094,0,0,1,.07,0,.075.075,0,0,1,.045.047l.861,2.418a.068.068,0,0,1-.007.062.085.085,0,0,1-.054.039L40.754,15.64c.017-.058.032-.117.049-.174s.03-.105.044-.158q.038-.141.074-.282l.044-.179c.021-.089.042-.178.062-.268q.024-.105.046-.212c.017-.081.034-.161.05-.242s.032-.166.046-.25c.007-.043.017-.086.024-.128l20.833-6.1a1.117,1.117,0,0,0,.818-1.44,1.329,1.329,0,0,0-1.625-.725l-20.157,5.9a2.083,2.083,0,0,0-.553-.568,2.463,2.463,0,0,0-2.087-.326l-2.119.62a2.036,2.036,0,0,0-1.528,1.723c-.013.141-.029.275-.047.4l-2.833.829a2.038,2.038,0,0,0-.428-.476,2.454,2.454,0,0,0-2.21-.419l-2.358.69a2.138,2.138,0,0,0-1.385,1.169c-.158.361-.344.714-.525,1.056l-3.026.886a1.983,1.983,0,0,0-.264-.326,2.43,2.43,0,0,0-2.377-.568l-2.591.758a2.118,2.118,0,0,0-1.4,1.205c-.131.32-.244.644-.346.973l-2.894.847a2.078,2.078,0,0,0-.467-.5,2.435,2.435,0,0,0-2.175-.391l-2.123.621A2.059,2.059,0,0,0,5.8,21.274q-.025.218-.045.442l-2.837.831A2.325,2.325,0,0,0,1.213,25.5l.2.563a2.474,2.474,0,0,0,1.424,1.427,2.133,2.133,0,0,0-.367,1.55l.092.585A2.593,2.593,0,0,0,5.2,31.658a3.074,3.074,0,0,0,.329-.018l2.619-.291a7.373,7.373,0,0,1,.533,3.023,7.669,7.669,0,0,1-1.161,4.3,15.943,15.943,0,0,0-1.228,2.762H2.032a2.163,2.163,0,0,0-1.506.592,1.678,1.678,0,0,0-.515,1.387A35.972,35.972,0,0,0,18.243,71.13v1.951a3.73,3.73,0,0,0,3.929,3.481H55.71a3.73,3.73,0,0,0,3.928-3.481V71.122a35.976,35.976,0,0,0,18.218-27.71,1.676,1.676,0,0,0-.515-1.386,2.16,2.16,0,0,0-1.5-.592H39.4l.058-.11a13.189,13.189,0,0,0,1.826-6.952,12.909,12.909,0,0,0-1.6-6.522l45.924-5.1a2.734,2.734,0,0,0,1.783-.906,2.147,2.147,0,0,0,.524-1.761ZM3.867,25.375l-.2-.563a.079.079,0,0,1,.058-.1l2-.586c0,.058.008.114.012.172,0,.035,0,.07.007.105.007.083.013.166.021.249a.094.094,0,0,0,0,.014c.009.093.017.187.028.279l-1.816.483a.094.094,0,0,1-.113-.053Zm1.345,4a.091.091,0,0,1-.1-.069l-.091-.585a.082.082,0,0,1,.076-.09l1.612-.218c.005.013.011.026.017.039.046.108.094.213.142.317.008.017.015.035.024.052.053.115.107.228.162.338l.005.011ZM35.083,19.034l0-.005c.134-.35.28-.675.433-.987,0,0,0,0,0,0,.152-.311.31-.608.465-.9l.049-.093.075-.142.056-.106c.046-.089.093-.179.139-.27l.019-.037c.041-.082.082-.166.123-.25l.036-.074c.044-.094.088-.189.131-.287.01-.022.019-.045.029-.067q.051-.119.1-.243l.038-.1c.038-.1.074-.2.109-.3.013-.036.025-.074.037-.111.025-.077.05-.156.074-.236.011-.039.023-.078.035-.118q.045-.161.086-.332c0-.017.009-.032.013-.049s0-.014,0-.022a9.409,9.409,0,0,0,.185-1.1l1.42-.416c-.021.159-.043.319-.069.477,0,.026-.009.051-.013.077-.023.139-.048.276-.076.414-.007.039-.015.077-.023.115-.033.159-.067.317-.1.475l-.007.025c-.036.147-.074.292-.114.438l-.038.137c-.041.143-.083.286-.128.428l-.016.051q-.071.219-.149.438l-.031.087q-.085.233-.176.463c0,.011-.008.021-.013.031-.066.163-.134.326-.207.487v0c-.15.337-.3.641-.441.907a9.689,9.689,0,0,0-1.4,5.269c0,.012,0,.023,0,.035v0c0,.132,0,.26.007.386,0,.083.007.162.01.242,0,.047,0,.095.007.141.005.092.012.183.019.272,0,.021,0,.042.005.062a8.935,8.935,0,0,0,.43,2.11c0,.007,0,.014.007.021q.1.308.225.59l0,.008c.209.494.447.944.69,1.4a11.1,11.1,0,0,1,1.581,5.981,11.1,11.1,0,0,1-1.581,5.982c-.184.347-.372.7-.547,1.08H35.124a16.988,16.988,0,0,1,.859-1.792,9.692,9.692,0,0,0,1.4-5.27,9.7,9.7,0,0,0-1.4-5.27,15.308,15.308,0,0,1-.97-2.084l0-.006a10.967,10.967,0,0,1-.6-3.365s0,0,0,0c-.005-.169-.008-.342-.008-.522a11.064,11.064,0,0,1,.68-4.087ZM30.75,41.324a13.189,13.189,0,0,0,1.826-6.952,12.852,12.852,0,0,0-1.148-5.606l1.493-.165c.242.543.5,1.024.734,1.472a7.666,7.666,0,0,1,1.161,4.3,7.669,7.669,0,0,1-1.161,4.3,15.893,15.893,0,0,0-1.227,2.762H30.692l.058-.11Zm-.427-14.733-.027-.056c-.024-.051-.048-.1-.072-.155s-.042-.094-.062-.141c-.034-.079-.068-.159-.1-.241-.008-.02-.015-.04-.023-.059a6.37,6.37,0,0,1-.209-.658l2.1-.285c0,.014,0,.027.006.04q.039.323.091.624c0,.021.007.043.011.064q.055.317.123.611c0,.017.006.034.009.05Zm1.509-10.105,1.958-.573-.021.039q-.043.084-.089.168l-.027.051c-.187.351-.383.722-.576,1.128l-.013.027c-.058.125-.117.253-.175.384l-.012.028-1.812.482a14.489,14.489,0,0,0,.766-1.733Zm-1.994,4.44,2.238-.6a14.527,14.527,0,0,0-.242,2.373l-2.244.3a8.264,8.264,0,0,1,.248-2.081Zm-4.032.366,0-.008a9.96,9.96,0,0,1,.789-2.792l.011-.026c.057-.127.115-.251.174-.373l.03-.06.059-.12.03-.058c.028-.055.056-.11.083-.164l.02-.037.07-.137c.066-.126.132-.251.2-.376.185-.348.393-.74.582-1.157l1.618-.474A14.031,14.031,0,0,1,28.448,17.8l-.027.051c-.012.021-.023.043-.034.065-.028.051-.054.1-.081.153l-.068.13-.048.093c-.03.058-.06.116-.089.174-.007.012-.013.026-.019.039a9.275,9.275,0,0,0-1.064,4.614,12.5,12.5,0,0,0,.064,1.3v.007s0,.006,0,.008c.006.056.013.109.02.164s.015.124.023.184c.011.078.023.155.036.23,0,.027.009.054.013.081a8.576,8.576,0,0,0,.684,2.178c.01.021.019.043.03.064s.025.052.038.078c.03.064.06.126.091.188l.017.036c.115.232.232.453.346.667h0l.042.078A11.1,11.1,0,0,1,30,34.372a11.1,11.1,0,0,1-1.581,5.982c-.185.347-.372.7-.547,1.08H26.412a17.121,17.121,0,0,1,.859-1.792,9.69,9.69,0,0,0,1.406-5.27,9.694,9.694,0,0,0-1.4-5.27c-.213-.4-.429-.807-.629-1.246a0,0,0,0,0,0,0,9.962,9.962,0,0,1-.864-3.12l0-.011a14.016,14.016,0,0,1-.087-1.6,13.71,13.71,0,0,1,.115-1.829Zm-.861,8.781a7.671,7.671,0,0,1,1.16,4.3,7.675,7.675,0,0,1-1.16,4.3,15.912,15.912,0,0,0-1.228,2.762H21.981l.058-.11a13.184,13.184,0,0,0,1.826-6.952,13.25,13.25,0,0,0-.768-4.682l1.555-.172c.1.191.2.376.291.555Zm-3.172-3.161,0-.005c-.085-.167-.166-.332-.243-.5l1.885-.255c0,.019.009.037.013.057.036.168.075.331.116.489.009.036.019.071.029.108q.066.247.14.479l.011.04-1.636.181-.045-.085-.007-.014c-.089-.168-.176-.332-.259-.494Zm-.059-7.465,2.028-.593c-.049.149-.095.3-.139.463l-.01.034c-.058.21-.113.429-.162.658,0,.013-.005.027-.009.04-.015.073-.031.143-.046.218l-2.228.593a7.619,7.619,0,0,1,.566-1.411Zm1.41,3.266c0,.134,0,.269,0,.408,0,.263.006.516.017.762l-2.208.3q-.039-.4-.046-.872Zm-3.4-4.878.022.01-.011.015-.019-.008A.078.078,0,0,1,19.72,17.835Zm-2.734,4.9c0-.077.005-.15.008-.225,0-.046,0-.093.005-.138,0-.09.01-.177.016-.263,0-.028,0-.056.005-.083.007-.092.015-.181.023-.268l.006-.063c.009-.09.019-.178.03-.265,0-.017,0-.034.007-.051.031-.244.068-.471.108-.684.01-.052.019-.1.03-.155l.026-.122c.017-.078.035-.156.054-.234a9.5,9.5,0,0,1,.388-1.229l1.7-.5a9.3,9.3,0,0,0-1.087,4.662A9.3,9.3,0,0,0,19.4,27.795l0,0c.05.1.1.195.151.292l.005.01c.05.1.1.194.154.291l.015.029.187.355.008.016q.1.2.209.409h0a10.694,10.694,0,0,1,1.161,5.173,11.107,11.107,0,0,1-1.581,5.982c-.185.347-.372.7-.547,1.08H17.7a16.987,16.987,0,0,1,.86-1.792,9.692,9.692,0,0,0,1.4-5.27,9.689,9.689,0,0,0-1.406-5.27c-.067-.127-.135-.255-.2-.383h0c-.049-.094-.1-.19-.148-.288l0-.008a10.563,10.563,0,0,1-.964-2.631l0-.012a12.216,12.216,0,0,1-.253-2.3v0c0-.117,0-.235,0-.356s0-.258.005-.385Zm-.563,7.7a7.349,7.349,0,0,1,.972,3.941,7.675,7.675,0,0,1-1.161,4.3,15.943,15.943,0,0,0-1.228,2.762H13.27c.02-.037.038-.072.058-.11a13.189,13.189,0,0,0,1.826-6.952,13.959,13.959,0,0,0-.468-3.748ZM15,27.291c0,.013.009.025.013.037q.072.227.15.439c.006.015.012.031.017.046q.082.221.167.43l0,.008-1.507.168v0c-.156-.321-.313-.621-.465-.906ZM14.52,25.05l-.363.049.358-.1C14.516,25.019,14.518,25.035,14.52,25.05ZM12.176,22.7c0-.018,0-.037,0-.055q.008-.2.023-.389l0-.025,2.276-.666c0,.03,0,.062-.007.092-.006.073-.011.146-.017.219q-.015.205-.025.415c0,.074-.007.149-.009.224,0,.046,0,.09-.006.137l-2.244.6c0-.043,0-.083,0-.127C12.168,22.976,12.171,22.836,12.176,22.7Zm-3.69,2.877s0-.008,0-.012A11.556,11.556,0,0,1,8.324,24.4c0-.007,0-.014,0-.02-.007-.084-.014-.17-.019-.256L8.3,24.029c0-.064-.007-.13-.01-.195,0-.036,0-.071,0-.108,0-.067,0-.134-.006-.2,0-.033,0-.065,0-.1,0-.1,0-.2,0-.306s0-.2,0-.294c0-.071,0-.142.005-.212.011-.316.03-.624.06-.921l1.389-.406c-.015.1-.028.193-.04.291,0,.032-.009.064-.013.1-.013.114-.024.231-.034.348,0,.039-.008.077-.011.117-.009.115-.015.234-.02.353,0,.043-.005.084-.007.128q-.009.244-.009.5t.007.473a9.285,9.285,0,0,0,1.22,4.462l.018.035.159.3.008.015c.065.122.131.246.2.372a.021.021,0,0,1,0,.007c.207.4.413.811.6,1.264h0a10.915,10.915,0,0,1,.774,4.322A11.1,11.1,0,0,1,11,40.354c-.185.347-.372.7-.547,1.08H8.992a16.987,16.987,0,0,1,.86-1.792,9.7,9.7,0,0,0,1.4-5.27,9.685,9.685,0,0,0-1.4-5.263l0-.007c-.036-.067-.072-.135-.107-.2l-.038-.071-.113-.217-.024-.046c-.04-.078-.08-.157-.12-.237l-.015-.03c-.042-.085-.085-.171-.126-.259L9.3,28.027a10.8,10.8,0,0,1-.49-1.207l0-.008a9.743,9.743,0,0,1-.324-1.236ZM75.233,43.714A33.729,33.729,0,0,1,58.067,69.306H31.738a1.148,1.148,0,1,0,0,2.28H57.065V73.08a1.287,1.287,0,0,1-1.355,1.2H22.172a1.287,1.287,0,0,1-1.356-1.2V71.586h4.936a1.148,1.148,0,1,0,0-2.28H19.8A33.729,33.729,0,0,1,2.635,43.714ZM85.352,20.461a.092.092,0,0,1-.061.031L38.655,25.667a6.975,6.975,0,0,1-.31-1.539l46.527-6.306a.1.1,0,0,1,.068.015.074.074,0,0,1,.036.053l.394,2.512a.069.069,0,0,1-.017.059Zm0,0" transform="translate(735.311 99.324)"/>
    <g id="turban" transform="translate(1853.359 736.297) rotate(-13)">
      <g id="Group_76" data-name="Group 76" transform="translate(76.854 57.487)">
        <g id="Group_75" data-name="Group 75" transform="translate(0 0)">
          <path id="Path_49" data-name="Path 49" d="M3.428,1.393a1.749,1.749,0,0,0-.1-.324A1.721,1.721,0,0,0,3.17.77,1.657,1.657,0,0,0,2.956.506,1.639,1.639,0,0,0,2.692.292a1.707,1.707,0,0,0-.3-.159,1.753,1.753,0,0,0-.324-.1,1.714,1.714,0,0,0-.677,0,1.832,1.832,0,0,0-.324.1,1.754,1.754,0,0,0-.3.159A1.656,1.656,0,0,0,.507.506,1.747,1.747,0,0,0,.291.77a1.711,1.711,0,0,0-.159.3,1.737,1.737,0,0,0-.1.324A1.7,1.7,0,0,0,0,1.731a1.749,1.749,0,0,0,.033.339,1.833,1.833,0,0,0,.1.324,1.73,1.73,0,0,0,.376.561,1.726,1.726,0,0,0,.561.376,1.83,1.83,0,0,0,.324.1,1.735,1.735,0,0,0,.339.033,1.7,1.7,0,0,0,.338-.033,1.747,1.747,0,0,0,.324-.1,1.7,1.7,0,0,0,.3-.159,1.762,1.762,0,0,0,.263-.216,1.659,1.659,0,0,0,.215-.263,1.77,1.77,0,0,0,.159-.3,1.833,1.833,0,0,0,.1-.324,1.725,1.725,0,0,0,.035-.339A1.694,1.694,0,0,0,3.428,1.393Z" transform="translate(0 0)"/>
        </g>
      </g>
      <g id="Group_78" data-name="Group 78" transform="translate(0 0)">
        <g id="Group_77" data-name="Group 77" transform="translate(0 0)">
          <path id="Path_50" data-name="Path 50" d="M82.423,21.588,71.057,9.387a8.867,8.867,0,0,0-7.27-2.823A8.749,8.749,0,0,0,62.9,4.355,8.5,8.5,0,0,0,55.428,0H36.941A25.876,25.876,0,0,0,15.094,11.919L3.644,29.707A23.006,23.006,0,0,0,.695,47.738L7.707,75.467a1.732,1.732,0,0,0,2.91.793L29.391,57.268H64.529l17.61,18.953a1.732,1.732,0,0,0,2.992-1.013L88.547,39.64A23.239,23.239,0,0,0,82.423,21.588ZM31.6,50.024l-.458.487q-.471.5-.945.989c-.137.143-.274.287-.411.429q-.676.7-1.357,1.389l-.99,1L10.312,71.642,6.886,58.092l5.175-5.235a182.284,182.284,0,0,0,26.8-34.591,1.732,1.732,0,0,0-2.973-1.777A178.811,178.811,0,0,1,9.6,50.421l-3.7,3.747-1.841-7.28a19.531,19.531,0,0,1,2.5-15.307l11.45-17.788A22.428,22.428,0,0,1,36.941,3.462H55.428a5.133,5.133,0,0,1,4.406,7.767l-4.051,6.779q-.456.763-.929,1.534l-.236.384q-.376.611-.759,1.224l-.217.346q-.463.736-.936,1.474l-.033.051c-.063.1-.127.194-.189.292l-4.684-2.7a1.732,1.732,0,0,0-1.732,0l-9.13,5.271a1.731,1.731,0,0,0-.866,1.5V40.41a1.732,1.732,0,0,0,.866,1.5l1.252.723q-1.3,1.54-2.638,3.054l-.26.293q-.515.58-1.034,1.157l-.383.424q-.464.511-.932,1.019l-.442.478Q32.051,49.544,31.6,50.024ZM54.331,28.381V39.411l-2.279,1.315-5.119,2.956L41.7,40.664l-2.17-1.253V28.381l7.4-4.271,5.239,3.025h0ZM32.787,53.8h0q.412-.429.821-.862l.24-.252q.625-.662,1.244-1.331.237-.256.473-.513.4-.432.792-.867.272-.3.543-.6.375-.417.748-.836.423-.475.842-.952.378-.43.754-.862.348-.4.692-.8l.474-.554q.376-.441.748-.884l.081-.1,4.831,2.789a1.731,1.731,0,0,0,1.732,0l4.79-2.766,8.723,9.388H32.787ZM85.1,39.309,82.052,71.04,55.666,42.64l1.262-.729a1.731,1.731,0,0,0,.866-1.5V39.385L72.229,54.922a1.732,1.732,0,0,0,2.537-2.357L57.794,34.3V27.381a1.731,1.731,0,0,0-.866-1.5l-1.442-.832c.16-.249.317-.5.476-.746q.263-.413.524-.825l.415-.662q.305-.489.6-.976c.111-.18.222-.36.332-.54q.464-.76.916-1.515l4.051-6.779,0-.006c.086-.145.167-.292.244-.441q.038-.073.074-.146.081-.163.155-.329c.022-.05.046-.1.068-.149q.085-.2.16-.407c.031-.083.059-.167.086-.25q.031-.094.061-.189a8.512,8.512,0,0,0,.245-1.009c0-.017.007-.033.01-.05a5.438,5.438,0,0,1,4.61,1.716l11.366,12.2A19.772,19.772,0,0,1,85.1,39.309Z"/>
        </g>
      </g>
      <g id="Group_80" data-name="Group 80" transform="translate(39.359 9.429)">
        <g id="Group_79" data-name="Group 79" transform="translate(0 0)">
          <path id="Path_51" data-name="Path 51" d="M3.43,1.393a1.749,1.749,0,0,0-.1-.324,1.711,1.711,0,0,0-.159-.3A1.767,1.767,0,0,0,2.956.506,1.663,1.663,0,0,0,2.693.292a1.752,1.752,0,0,0-.3-.159,1.826,1.826,0,0,0-.324-.1,1.714,1.714,0,0,0-.677,0,1.741,1.741,0,0,0-.324.1,1.766,1.766,0,0,0-.3.159A1.682,1.682,0,0,0,.293.77a1.707,1.707,0,0,0-.159.3,1.749,1.749,0,0,0-.1.324A1.706,1.706,0,0,0,0,1.731a1.736,1.736,0,0,0,.035.339,1.825,1.825,0,0,0,.1.324,1.755,1.755,0,0,0,.159.3,1.657,1.657,0,0,0,.215.263,1.707,1.707,0,0,0,.563.376,1.744,1.744,0,0,0,.324.1,1.7,1.7,0,0,0,.337.033,1.741,1.741,0,0,0,1.224-.507,1.724,1.724,0,0,0,.376-.561,1.833,1.833,0,0,0,.1-.324,1.733,1.733,0,0,0,.033-.339A1.7,1.7,0,0,0,3.43,1.393Z"/>
        </g>
      </g>
    </g>
    <path id="twitter" d="M88.669,9.692c-5.578.257-5.456.236-6.086.289l3.3-9.434S75.575,4.341,72.961,5.019C66.1-1.151,55.892-1.424,48.6,3.06a16.874,16.874,0,0,0-8.111,17.351A45.007,45.007,0,0,1,11.328,4L8.881,1.058,7.054,4.414A20.285,20.285,0,0,0,4.893,18.07a19.619,19.619,0,0,0,1.9,5.331l-2.1-.813-.249,3.506A18.708,18.708,0,0,0,7.619,37.215a19.775,19.775,0,0,0,2.471,3.048L9.006,40.1l1.323,4.018a19.531,19.531,0,0,0,10.04,11.633C15.687,57.733,11.9,59,5.688,61.046L0,62.916l5.254,2.872c2,1.1,9.081,4.753,16.075,5.85,15.546,2.438,33.049.453,44.832-10.16,9.925-8.938,13.181-21.653,12.5-34.885a8.267,8.267,0,0,1,1.545-5.382c2.2-2.938,8.445-11.5,8.459-11.52ZM76.056,18.1a13.463,13.463,0,0,0-2.575,8.759c.683,13.346-2.949,23.7-10.794,30.762-9.164,8.254-23.946,11.494-40.554,8.888a40.217,40.217,0,0,1-8.689-2.582,137.776,137.776,0,0,0,15.738-6.469l9.074-4.3-10.019-.641a14.169,14.169,0,0,1-11.251-6.409,17.969,17.969,0,0,0,3.814-.636l9.555-2.661-9.635-2.36a14.351,14.351,0,0,1-8.765-6.1,14.7,14.7,0,0,1-1.9-4.192,24.053,24.053,0,0,0,3.909.624l8.918.882-7.066-5.512A14.873,14.873,0,0,1,10.18,10.491C26.07,26.971,44.726,25.733,46.6,26.168a30.76,30.76,0,0,0-.532-4.407c-2.4-8.5,2.866-12.818,5.243-14.279C56.28,4.431,64.161,3.971,69.621,9a4.649,4.649,0,0,0,4.266,1.141A35.905,35.905,0,0,0,77.4,9.071l-2.241,6.4,2.86,0c-.54.724-1.187,1.59-1.966,2.63Zm0,0" transform="translate(1307.076 834.832)"/>
    <g id="bike" transform="translate(1014.244 703.05)">
      <path id="Path_10" data-name="Path 10" d="M89.735,27.23a5.573,5.573,0,0,0,2.436-3.337,7.259,7.259,0,0,0-.445-5.241l-8-15.9A4.547,4.547,0,0,0,79.758,0H76.714a1.438,1.438,0,0,0-1.231.815,2.322,2.322,0,0,0-.171,1.743l1.642,5.535H73.513a1.73,1.73,0,0,0-1.5,1.893,1.73,1.73,0,0,0,1.5,1.893h4.564l.414,1.4a2.607,2.607,0,0,1-.195,1.982,1.615,1.615,0,0,1-1.4.927H68.609v-.13c0-5.506-3.543-9.985-7.9-9.985H54a12.619,12.619,0,0,0-8.933,3.961l-4.085,4.131H34.212a3.089,3.089,0,0,1-2.58-1.567l-3.038-4.8a7.385,7.385,0,0,0-6.168-3.748H12.7a1.572,1.572,0,0,0-1.418,1.286,2.206,2.206,0,0,0,.508,2.11L39.943,34.674l-4.055,5.81-4.8-3.382a2.517,2.517,0,0,0-2.355-.342,3.326,3.326,0,0,0-1.857,1.864l-1.554,3.538a4.811,4.811,0,0,0-.271,2.978,4.515,4.515,0,0,0,.345.983,12.911,12.911,0,0,1,.209,2.3c0,5.65-3.636,10.246-8.1,10.246s-8.1-4.6-8.1-10.246,3.636-10.246,8.1-10.246a6.693,6.693,0,0,1,3.645,1.092,1.367,1.367,0,0,0,2.011-.837,2.151,2.151,0,0,0-.662-2.543,9.171,9.171,0,0,0-4.994-1.5c-6.12,0-11.1,6.294-11.1,14.031s4.979,14.031,11.1,14.031c5.981,0,10.869-6.012,11.089-13.506l3.245,2.3C30.754,60.157,24.72,66.761,17.5,66.761c-8,0-14.506-8.226-14.506-18.338S9.5,30.086,17.5,30.086a12.374,12.374,0,0,1,7.9,2.955,1.323,1.323,0,0,0,2.072-.554,2.213,2.213,0,0,0-.438-2.619A14.934,14.934,0,0,0,17.5,26.3C7.851,26.3,0,36.225,0,48.424S7.851,70.547,17.5,70.547A15.631,15.631,0,0,0,29.268,64.8a23.919,23.919,0,0,0,5.319-11.6l4.366,3.095c1.107,2.558,3.2,4.137,5.52,4.137h20.12A5.681,5.681,0,0,0,69,58.172c2.895,7.453,8.953,12.376,15.713,12.376,9.65,0,17.5-9.925,17.5-22.124,0-9.995-5.27-18.46-12.482-21.194ZM84.716,46.27a2.213,2.213,0,1,1-1.7,2.153A1.971,1.971,0,0,1,84.716,46.27ZM46.936,12.987A9.977,9.977,0,0,1,54,9.855H60.71c2.7,0,4.9,2.781,4.9,6.2v.13H54.76a6.8,6.8,0,0,0-4.591,1.86l-3.654,3.3-2.939-4.959ZM22.426,7.832a4.585,4.585,0,0,1,3.83,2.327l3.038,4.8a5.889,5.889,0,0,0,4.918,2.988h6.547l9.789,16.478a5.778,5.778,0,0,0-3.74,2.121L17.12,7.832ZM51.108,38.178c1.822,0,3.3,1.874,3.3,4.177s-1.482,4.176-3.3,4.176-3.3-1.873-3.3-4.176S49.287,38.178,51.108,38.178Zm-8.781-1.2,2.837,2.744a9.83,9.83,0,0,0-.355,2.629c0,.009,0,.017,0,.026l-2.763,2.445-3.482-2.454ZM27.94,44l1.554-3.538a.109.109,0,0,1,.062-.062.081.081,0,0,1,.076.01l9.688,6.828-.743.657a4.24,4.24,0,0,0-1.3,2.87l-9.295-6.588a.121.121,0,0,1-.049-.078A.152.152,0,0,1,27.94,44ZM64.593,56.647H44.473a3.3,3.3,0,0,1-2.955-2.308l-1.256-3.176A.153.153,0,0,1,40.3,51l5.335-4.721a6.239,6.239,0,0,0,5.478,4.041c3.473,0,6.3-3.572,6.3-7.962a9.3,9.3,0,0,0-1.4-5L52.15,30.852l3.062-2.765a.09.09,0,0,1,.06-.024h15.04a1.73,1.73,0,0,0,1.5-1.893,1.73,1.73,0,0,0-1.5-1.893H55.272a2.67,2.67,0,0,0-1.8.729l-3.118,2.815L48.31,24.375l3.6-3.249a4.226,4.226,0,0,1,2.85-1.155H76.9a4.512,4.512,0,0,0,3.861-2.556,7.289,7.289,0,0,0,.537-5.468l-2.421-8.16h.883a1.648,1.648,0,0,1,1.437,1l8,15.9a2.632,2.632,0,0,1,.162,1.9,1.934,1.934,0,0,1-1.1,1.314l-9.122,3.548c-5.2,2.024-9.1,7.727-9.928,14.529L67.858,53.106c-.249,2.051-1.622,3.541-3.265,3.541ZM84.716,66.762c-6.418,0-12.073-5.352-13.9-13.077v0l1.354-11.129c.563-4.629,2.926-8.613,6.2-10.653L79.55,36c-3.633,2.412-5.934,7.166-5.934,12.42,0,7.737,4.979,14.031,11.1,14.031s11.1-6.295,11.1-14.031c0-5.234-2.279-10-5.949-12.432a1.359,1.359,0,0,0-2.022.8,2.161,2.161,0,0,0,.63,2.556c2.68,1.778,4.345,5.257,4.345,9.079,0,5.65-3.636,10.246-8.1,10.246s-8.1-4.6-8.1-10.246a10.99,10.99,0,0,1,3.975-8.818l1.2,4.178a6.609,6.609,0,0,0-1.77,4.639c0,3.275,2.108,5.939,4.7,5.939s4.7-2.664,4.7-5.939-2.108-5.939-4.7-5.939c-.038,0-.076,0-.114,0l-3.41-11.855a11.679,11.679,0,0,1,3.524-.547c8,0,14.506,8.226,14.506,18.338S92.714,66.762,84.716,66.762Z" transform="matrix(0.951, -0.309, 0.309, 0.951, 0, 31.587)"/>
    </g>
    <g id="man-2" data-name="man" transform="translate(702.421 787.38) rotate(-45)">
      <g id="Group_71-2" data-name="Group 71" transform="translate(0 0)">
        <path id="Path_30-2" data-name="Path 30" d="M105.547,9.489a1.9,1.9,0,0,0-.692-1.363,1.942,1.942,0,0,0-2.725.2h0c-8.481,9.781-14.461,5.047-21.1-.151C76,4.22,70.645.01,63.6.01a16.443,16.443,0,0,0-6.864,1.464A14.537,14.537,0,0,0,52.92,3.987a14.544,14.544,0,0,0-3.814-2.524A16.443,16.443,0,0,0,42.242,0C35.124,0,28.869,4.25,23.073,8.166c-1.922,1.3-3.783,2.574-5.553,3.583-5.085,2.9-9.59,3.735-13.576-3.028A1.929,1.929,0,0,0,1.35,7.915,1.908,1.908,0,0,0,.334,9.368,28.978,28.978,0,0,0,.568,19.462,16.316,16.316,0,0,0,6.73,29.314a22.309,22.309,0,0,0,10.6,3.977A51.138,51.138,0,0,0,34.483,32.16,45.992,45.992,0,0,0,46.554,27.9a24.9,24.9,0,0,0,6.366-4.795A24.919,24.919,0,0,0,59.286,27.9a45.985,45.985,0,0,0,12.051,4.27,51.131,51.131,0,0,0,17.176,1.12A22.31,22.31,0,0,0,99.13,29.324a16.316,16.316,0,0,0,6.163-9.852A28.839,28.839,0,0,0,105.547,9.489Zm-4.037,9.156a12.594,12.594,0,0,1-4.729,7.611,18.52,18.52,0,0,1-8.786,3.24,47.3,47.3,0,0,1-15.834-1.08,42.163,42.163,0,0,1-11.044-3.9,18.933,18.933,0,0,1-6.62-5.542,1.939,1.939,0,0,0-3.193,0,18.962,18.962,0,0,1-6.6,5.511,42.175,42.175,0,0,1-11.044,3.9,47.3,47.3,0,0,1-15.834,1.08,18.514,18.514,0,0,1-8.786-3.24A12.594,12.594,0,0,1,4.31,18.614a20.3,20.3,0,0,1-.458-3.7c4.749,4.7,9.925,3.351,15.58.121,1.892-1.09,3.814-2.382,5.786-3.725,5.329-3.594,11.105-7.47,17.024-7.47a12.581,12.581,0,0,1,5.258,1.1A10.391,10.391,0,0,1,51.4,7.965a1.929,1.929,0,0,0,3.051,0A10.4,10.4,0,0,1,58.34,4.936a12.581,12.581,0,0,1,5.258-1.1c5.715,0,10.515,3.775,15.03,7.328,7.383,5.8,14.095,11.1,23.39,2.816A21.177,21.177,0,0,1,101.51,18.644Z" transform="translate(0 0)"/>
      </g>
    </g>
    <path id="ball" d="M43.971,0C19.687,0,0,17.139,0,38.281S19.687,76.562,43.971,76.562,87.942,59.423,87.942,38.281C87.915,17.149,68.244.024,43.971,0ZM78.024,18.362,74.977,29.64,58.922,34.3l-13.485-9.39V11.072l15.39-5.359a40.376,40.376,0,0,1,17.2,12.649Zm.245,39.5-14.535,2-7.915-9.1,4.032-14.036,15.877-4.606,9.095,9.5a32.65,32.65,0,0,1-6.553,16.246Zm-54,2.007-14.6-2.007A32.653,32.653,0,0,1,3.122,41.612l9.088-9.5,15.877,4.606,4.032,14.044ZM2.944,37.8A31.944,31.944,0,0,1,7.754,21.5l2.377,8.8Zm31.911,11.96L30.967,36.211l13-9.056,13.007,9.06-3.891,13.55ZM77.811,30.3l2.377-8.8A31.942,31.942,0,0,1,85,37.8ZM56.83,4.358,43.971,8.835,31.044,4.378A46.678,46.678,0,0,1,56.83,4.358ZM27.045,5.742l15.46,5.334V24.908L29.021,34.3,12.966,29.64,9.919,18.362A40.371,40.371,0,0,1,27.045,5.742ZM12.123,60.782l11.915,1.639,7.205,9.826a41.774,41.774,0,0,1-19.12-11.464ZM35.445,73.229,26.7,61.308l7.745-8.991H53.5l7.856,9.034L53.733,72.98a46.846,46.846,0,0,1-18.286.255ZM57.8,71.916,64.052,62.4l11.774-1.617A41.6,41.6,0,0,1,57.8,71.916Zm0,0" transform="translate(1484.518 401.685)"/>
    <g id="Group_252" data-name="Group 252" transform="translate(22824.207 -7271.847) rotate(20)">
      <path id="Path_384" data-name="Path 384" d="M11.531,14a1.447,1.447,0,1,0,0,2.894h8.2a1.447,1.447,0,1,0,0-2.894Z" transform="translate(-17342.344 14726.521)" fill-rule="evenodd"/>
      <path id="Path_385" data-name="Path 385" d="M16.419,35.944a13.025,13.025,0,0,1,0-26.049H51.151A13.025,13.025,0,1,1,39.21,28.128a1.447,1.447,0,1,0-2.652,1.159A15.921,15.921,0,1,0,51.151,7H16.419A15.919,15.919,0,1,0,31.013,29.287a1.447,1.447,0,1,0-2.652-1.159A13.027,13.027,0,0,1,16.419,35.944Z" transform="translate(-17360.5 14713.261)" fill-rule="evenodd"/>
      <path id="Path_386" data-name="Path 386" d="M17.7,14.864l.65-.737c3.337-3.807,4.723-6.887,4.723-12.679a1.447,1.447,0,1,0-2.894,0c0,5.016-1.1,7.453-4.006,10.772l-.647.734c-2.646,3.01-3.754,5.064-4.027,8.645a1.447,1.447,0,0,0,2.886.22C14.606,18.982,15.435,17.446,17.7,14.864Z" transform="translate(-17339.662 14700)" fill-rule="evenodd"/>
      <path id="Path_387" data-name="Path 387" d="M19.592,13.921a2.171,2.171,0,1,0-2.171,2.171A2.171,2.171,0,0,0,19.592,13.921Z" transform="translate(-17332.559 14722.259)" fill-rule="evenodd"/>
      <path id="Path_388" data-name="Path 388" d="M21.592,15.921a2.171,2.171,0,1,0-2.171,2.171A2.171,2.171,0,0,0,21.592,15.921Z" transform="translate(-17328.77 14726.048)" fill-rule="evenodd"/>
      <path id="Path_389" data-name="Path 389" d="M23.592,13.921a2.171,2.171,0,1,0-2.171,2.171A2.171,2.171,0,0,0,23.592,13.921Z" transform="translate(-17324.98 14722.259)" fill-rule="evenodd"/>
      <path id="Path_390" data-name="Path 390" d="M21.592,11.921a2.171,2.171,0,1,0-2.171,2.171A2.171,2.171,0,0,0,21.592,11.921Z" transform="translate(-17328.77 14718.47)" fill-rule="evenodd"/>
      <path id="Path_391" data-name="Path 391" d="M16.525,14.894a1.447,1.447,0,0,0,0-2.894H4.947a1.447,1.447,0,0,0,0,2.894Z" transform="translate(-17354.816 14722.732)" fill-rule="evenodd"/>
      <path id="Path_392" data-name="Path 392" d="M5.5,23.025a1.447,1.447,0,0,0,2.894,0V11.447a1.447,1.447,0,1,0-2.894,0Z" transform="translate(-17351.027 14718.943)" fill-rule="evenodd"/>
    </g>
    <g id="Group_253" data-name="Group 253" transform="translate(17970.699 -14083.591)">
      <path id="Path_393" data-name="Path 393" d="M31.047,12.524A7.389,7.389,0,0,0,23.524,5,7.389,7.389,0,0,0,16,12.524a7.389,7.389,0,0,0,7.524,7.524A7.389,7.389,0,0,0,31.047,12.524Zm-7.524,2.508a2.369,2.369,0,0,1-2.508-2.508,2.369,2.369,0,0,1,2.508-2.508,2.369,2.369,0,0,1,2.508,2.508A2.369,2.369,0,0,1,23.524,15.032Z" transform="translate(-17336.383 15022.031)"/>
      <path id="Path_394" data-name="Path 394" d="M27.524,12A7.389,7.389,0,0,0,20,19.524a7.524,7.524,0,0,0,15.047,0A7.389,7.389,0,0,0,27.524,12Zm0,10.032a2.369,2.369,0,0,1-2.508-2.508,2.369,2.369,0,0,1,2.508-2.508,2.369,2.369,0,0,1,2.508,2.508A2.369,2.369,0,0,1,27.524,22.032Z" transform="translate(-17330.35 15032.587)"/>
      <path id="Path_395" data-name="Path 395" d="M19.524,12A7.389,7.389,0,0,0,12,19.524a7.389,7.389,0,0,0,7.524,7.524,7.389,7.389,0,0,0,7.524-7.524A7.389,7.389,0,0,0,19.524,12Zm0,10.032a2.369,2.369,0,0,1-2.508-2.508,2.369,2.369,0,0,1,2.508-2.508,2.369,2.369,0,0,1,2.508,2.508A2.369,2.369,0,0,1,19.524,22.032Z" transform="translate(-17342.414 15032.587)"/>
      <path id="Path_396" data-name="Path 396" d="M65.452,12.285A36.945,36.945,0,0,0,38.618,1,36.945,36.945,0,0,0,11.784,12.285a37.542,37.542,0,0,0,0,52.665A36.945,36.945,0,0,0,38.618,76.236,36.945,36.945,0,0,0,65.452,64.951a37.542,37.542,0,0,0,0-52.665ZM61.941,61.44A32.631,32.631,0,0,1,15.295,15.8,32.631,32.631,0,0,1,61.941,61.44Z" transform="translate(-17359 15016)"/>
    </g>
    <g id="Group_251" data-name="Group 251" transform="translate(19442.014 -14198.989)">
      <path id="Path_397" data-name="Path 397" d="M87.823,70.436c-.157,5.728-1.573,17.393-1.573,17.393l8.808.629c-1.729-23.353,14.288-45.252,14.4-45.41a44.953,44.953,0,0,0-30.6-15.629C89.242,51.14,87.823,70.436,87.823,70.436Z" transform="translate(-17404.932 14803.216)"/>
      <path id="Path_398" data-name="Path 398" d="M95.525,88.937l-9.847-.7.059-.492c.014-.117,1.416-11.71,1.57-17.35.015-.213,1.286-19.486-8.918-42.815l-.316-.723.786.063A45.209,45.209,0,0,1,109.777,42.71l.243.284-.221.3c-.655.894-16.014,22.15-14.314,45.1Zm-8.792-1.574,7.773.555c-1.369-21.871,12.315-42.056,14.312-44.874A44.255,44.255,0,0,0,79.569,27.927c9.962,23.228,8.695,42.32,8.681,42.511C88.114,75.434,87,85.079,86.733,87.362Z" transform="translate(-17404.885 14803.25)"/>
      <path id="Path_399" data-name="Path 399" d="M111.636,44.384c1.294,1.605,3.836,5.366,4.08,5.726A45.13,45.13,0,0,0,111.636,44.384Z" transform="translate(-17406.777 14802.263)"/>
      <path id="Path_400" data-name="Path 400" d="M115.3,50.356c-.281-.417-2.79-4.123-4.056-5.694l.729-.6a45.758,45.758,0,0,1,4.123,5.786Z" transform="translate(-17406.756 14802.279)"/>
      <path id="Path_401" data-name="Path 401" d="M121.576,73.622a44.849,44.849,0,0,0-6.385-23.127,54.862,54.862,0,0,0-13.176,39.1c13.613-.782,17.524-2.668,17.566-2.688A45.021,45.021,0,0,0,121.576,73.622Z" transform="translate(-17406.225 14801.918)"/>
      <path id="Path_402" data-name="Path 402" d="M101.569,90.049l-.05-.444c-.025-.215-2.273-21.685,13.289-39.468l.428-.488.333.556A45.619,45.619,0,0,1,120.007,87l-.06.2-.187.09c-.166.079-4.224,1.956-17.742,2.733Zm13.521-38.8c-13.6,15.947-12.9,34.692-12.672,37.8,11.575-.7,15.851-2.173,16.748-2.537a44.676,44.676,0,0,0-4.076-35.263Z" transform="translate(-17406.199 14801.967)"/>
      <path id="Path_403" data-name="Path 403" d="M105.883,111.181l-4.349,3.322A45.389,45.389,0,0,0,105.883,111.181Z" transform="translate(-17406.209 14798.505)"/>
      <path id="Path_404" data-name="Path 404" d="M101.779,114.872l-.549-.767,4.349-3.322.595.732A45.855,45.855,0,0,1,101.779,114.872Z" transform="translate(-17406.188 14798.526)"/>
      <path id="Path_405" data-name="Path 405" d="M78.394,87.357c1.681-3.146,1.78-17.809,1.78-17.809C80.019,41.8,69.786,27.7,69.581,27.419a44.859,44.859,0,0,0-26.05,11.026C77.654,60.309,69.948,85.47,69.948,85.47Z" transform="translate(-17402.943 14803.216)"/>
      <path id="Path_406" data-name="Path 406" d="M78.594,87.867,69.3,85.79l.148-.487c.076-.248,7.176-25.09-26.221-46.49l-.528-.338.472-.413A45.1,45.1,0,0,1,69.5,26.92l.261-.021.157.211c.429.584,10.529,14.617,10.684,42.406,0,.61-.119,14.823-1.836,18.034Zm-8.116-2.781,7.6,1.7c1.466-3.591,1.574-17.127,1.575-17.269-.145-25.978-9.022-39.723-10.349-41.633A44.149,44.149,0,0,0,44.269,38.361C75.109,58.411,71.311,81.448,70.477,85.086Z" transform="translate(-17402.9 14803.246)"/>
      <path id="Path_407" data-name="Path 407" d="M100.123,113.751c-2.7-2.557-4.85-15.849-4.85-15.849l-9.753-.472c-4.316,18.45-7.932,23.331-8.431,23.846A44.807,44.807,0,0,0,100.123,113.751Z" transform="translate(-17404.832 14799.278)"/>
      <path id="Path_408" data-name="Path 408" d="M75.86,121.769l.823-.85c.037-.038,3.725-4.024,8.31-23.625l.09-.383,10.528.51.061.377c.592,3.654,2.592,13.575,4.708,15.582l.428.407-.492.328a45.386,45.386,0,0,1-23.275,7.6Zm9.961-23.878c-3.521,14.931-6.584,20.854-7.845,22.831a44.449,44.449,0,0,0,21.366-7.1c-2.362-3.093-4.178-13.176-4.54-15.3Z" transform="translate(-17404.76 14799.308)"/>
      <path id="Path_409" data-name="Path 409" d="M27.949,65.606l3.845,3.541c13.212,10.585,32.087,16,32.087,16,2.674-10.7-3.775-20.762-3.775-20.762C49.784,48.271,38.243,44.022,38.113,43.975A44.869,44.869,0,0,0,27.949,65.606Z" transform="translate(-17402.068 14802.286)"/>
      <path id="Path_410" data-name="Path 410" d="M64.191,85.7l-.469-.135C63.532,85.508,44.6,80,31.469,69.481l-4.058-3.735.043-.253a45.41,45.41,0,0,1,10.27-21.858l.213-.249.308.112c.482.176,11.921,4.508,22.229,20.594.066.1,6.528,10.362,3.835,21.131ZM28.428,65.4l3.656,3.366C43.891,78.223,60.5,83.592,63.508,84.514,65.793,74.323,59.742,64.7,59.68,64.6,50.338,50.024,40.138,45.293,38.224,44.5A44.454,44.454,0,0,0,28.428,65.4Z" transform="translate(-17402.037 14802.319)"/>
      <path id="Path_411" data-name="Path 411" d="M49.511,114.221a44.789,44.789,0,0,0,19.8,6.759C73.36,116.824,78.73,96.5,78.73,96.5L68.346,94.948C62.991,111.652,49.733,114.18,49.511,114.221Z" transform="translate(-17403.281 14799.419)"/>
      <path id="Path_412" data-name="Path 412" d="M69.414,121.44l-.225-.021a45.555,45.555,0,0,1-20.006-6.83l-1.015-.642,1.181-.221c.538-.1,13.246-2.649,18.473-18.954l.123-.382,11.3,1.694-.135.51c-.221.834-5.45,20.488-9.54,24.685Zm-18.779-7.066a44.616,44.616,0,0,0,18.412,6.082c3.548-3.971,8.163-20.475,9.015-23.6L68.6,95.442C63.984,109.338,54,113.383,50.635,114.374Z" transform="translate(-17403.203 14799.449)"/>
      <path id="Path_413" data-name="Path 413" d="M78.269,27.4c-1.149-.087-2.306-.146-3.476-.146s-2.327.059-3.476.146Z" transform="translate(-17404.506 14803.227)"/>
      <path id="Path_414" data-name="Path 414" d="M78.267,27.84H71.316L71.28,26.9a40.771,40.771,0,0,1,7.022,0Z" transform="translate(-17404.504 14803.255)"/>
      <path id="Path_415" data-name="Path 415" d="M70.635,122.543c1.357.123,2.73.2,4.119.2.23,0,1.4-.014,1.632-.018C74.8,122.673,71.245,122.568,70.635,122.543Z" transform="translate(-17404.469 14797.866)"/>
      <path id="Path_416" data-name="Path 416" d="M74.752,123.182c-1.336,0-2.7-.064-4.162-.2l.061-.942c.548.022,3.48.109,5.214.161l.531.016-.007.944C76.16,123.168,74.983,123.182,74.752,123.182Z" transform="translate(-17404.467 14797.895)"/>
      <path id="Path_417" data-name="Path 417" d="M102.522,97.678c-.313,3.44,3.436,12.493,3.481,12.6a45.219,45.219,0,0,0,10.909-14.054C115.394,96.821,102.522,97.678,102.522,97.678Z" transform="translate(-17406.262 14799.346)"/>
      <path id="Path_418" data-name="Path 418" d="M105.79,111.014l-.251-.606c-.393-.95-3.829-9.382-3.515-12.826l.037-.4.4-.026c5.145-.343,13.185-1,14.251-1.418l1.138-.444-.544,1.094a45.444,45.444,0,0,1-11.022,14.2Zm-2.843-12.947c0,2.659,1.953,8.219,3.215,11.37a44.493,44.493,0,0,0,9.845-12.583C112.961,97.364,105.088,97.921,102.948,98.067Z" transform="translate(-17406.234 14799.4)"/>
      <path id="Path_419" data-name="Path 419" d="M117.8,95.766a44.676,44.676,0,0,0,2.669-6.669Z" transform="translate(-17407.121 14799.747)"/>
      <path id="Path_420" data-name="Path 420" d="M118.2,95.965l-.861-.385,2.669-6.669.889.314A45.181,45.181,0,0,1,118.2,95.965Z" transform="translate(-17407.096 14799.759)"/>
      <path id="Path_421" data-name="Path 421" d="M43.183,39.177a45.218,45.218,0,0,0-4.4,4.458Z" transform="translate(-17402.678 14802.556)"/>
      <path id="Path_422" data-name="Path 422" d="M39.1,43.945l-.694-.639a45.864,45.864,0,0,1,4.447-4.5l.648.685Z" transform="translate(-17402.654 14802.577)"/>
      <path id="Path_423" data-name="Path 423" d="M43.151,110.569a45.182,45.182,0,0,0,5.917,4.476Z" transform="translate(-17402.922 14798.54)"/>
      <path id="Path_424" data-name="Path 424" d="M48.8,115.421a45.98,45.98,0,0,1-5.979-4.522l.6-.728,5.917,4.476Z" transform="translate(-17402.904 14798.562)"/>
      <path id="Path_425" data-name="Path 425" d="M27.25,74.549l.646-7.567A45.252,45.252,0,0,0,27.25,74.549Z" transform="translate(-17402.027 14800.991)"/>
      <path id="Path_426" data-name="Path 426" d="M27.692,74.584l-.942-.04A46,46,0,0,1,27.4,66.9l.935.119Z" transform="translate(-17402 14800.996)"/>
      <path id="Path_427" data-name="Path 427" d="M61.954,92.079A95.778,95.778,0,0,1,27.25,75,44.946,44.946,0,0,0,42.2,108.52,22.134,22.134,0,0,0,61.954,92.079Z" transform="translate(-17402.027 14800.54)"/>
      <path id="Path_428" data-name="Path 428" d="M42.013,108.951l-.156-.139A45.62,45.62,0,0,1,26.75,74.94V73.931l.775.646A96.124,96.124,0,0,0,62.041,91.56l.444.11-.1.447A22.772,22.772,0,0,1,42.22,108.929ZM27.705,75.925a44.674,44.674,0,0,0,14.629,32.044A21.785,21.785,0,0,0,61.35,92.36,97.98,97.98,0,0,1,27.705,75.925Z" transform="translate(-17402 14800.601)"/>
    </g>
  </g>
</svg>
