<svg xmlns="http://www.w3.org/2000/svg" width="1757.757" height="844.023" viewBox="0 0 1757.757 844.023">
  <g id="BG" transform="translate(-116.205 -99.324)" opacity="0.05">
    <g id="man" transform="translate(116.205 171.33) rotate(-45)">
      <g id="Group_71" data-name="Group 71" transform="translate(0 0)">
        <path id="Path_30" data-name="Path 30" d="M89.591,8.054A1.615,1.615,0,0,0,89,6.9a1.649,1.649,0,0,0-2.313.171h0c-7.2,8.3-12.275,4.284-17.912-.129C64.515,3.582,59.966.009,53.984.009a13.957,13.957,0,0,0-5.827,1.242A12.34,12.34,0,0,0,44.92,3.385a12.346,12.346,0,0,0-3.237-2.142A13.957,13.957,0,0,0,35.856,0C29.814,0,24.505,3.607,19.585,6.932c-1.631,1.105-3.211,2.185-4.713,3.042-4.316,2.459-8.14,3.17-11.524-2.57a1.637,1.637,0,0,0-2.2-.684A1.619,1.619,0,0,0,.283,7.951a24.6,24.6,0,0,0,.2,8.568,13.85,13.85,0,0,0,5.231,8.363,18.936,18.936,0,0,0,8.995,3.376A43.407,43.407,0,0,0,29.27,27.3a39.039,39.039,0,0,0,10.246-3.616,21.138,21.138,0,0,0,5.4-4.07,21.152,21.152,0,0,0,5.4,4.07,39.033,39.033,0,0,0,10.229,3.624,43.4,43.4,0,0,0,14.58.951,18.937,18.937,0,0,0,9.012-3.367,13.85,13.85,0,0,0,5.231-8.363A24.48,24.48,0,0,0,89.591,8.054Zm-3.427,7.772a10.69,10.69,0,0,1-4.014,6.46,15.72,15.72,0,0,1-7.458,2.75,40.151,40.151,0,0,1-13.44-.917,35.789,35.789,0,0,1-9.374-3.307,16.071,16.071,0,0,1-5.619-4.7,1.646,1.646,0,0,0-2.71,0,16.1,16.1,0,0,1-5.6,4.678,35.8,35.8,0,0,1-9.374,3.307,40.15,40.15,0,0,1-13.44.917,15.715,15.715,0,0,1-7.458-2.75A10.69,10.69,0,0,1,3.659,15.8a17.234,17.234,0,0,1-.388-3.145c4.031,3.993,8.425,2.845,13.224.1,1.606-.925,3.237-2.022,4.912-3.162,4.523-3.05,9.426-6.34,14.45-6.34a10.679,10.679,0,0,1,4.463.934,8.821,8.821,0,0,1,3.315,2.57,1.637,1.637,0,0,0,2.59,0,8.829,8.829,0,0,1,3.3-2.57,10.679,10.679,0,0,1,4.463-.934c4.851,0,8.926,3.2,12.758,6.221C73.009,14.4,78.706,18.9,86.6,11.867A17.976,17.976,0,0,1,86.164,15.826Z" fill="#fff"/>
      </g>
    </g>
    <path id="Path_48" data-name="Path 48" d="M17.228,39.2C32.055,39.2,36.92,24.8,39,18.654l.115-.338A25.262,25.262,0,0,1,40.279,15.4a1.772,1.772,0,0,1,2.938-.005,25.52,25.52,0,0,1,1.168,2.924l.114.338C46.576,24.8,51.441,39.2,66.269,39.2l0-.764V39.2h0a14.659,14.659,0,0,0,12.369-6.158C83.6,26.37,84.024,15.9,83.115,12.907c-2.08-6.86-9.878-10.263-14.34-11.681C66.217.413,61.131,0,53.664,0c-6.22,0-11.9.3-11.876.3C41.73.3,36.051,0,29.832,0c-7.468,0-12.553.413-15.11,1.226C10.259,2.644,2.461,6.047.382,12.907c-.908,3-.482,13.46,4.469,20.136A14.661,14.661,0,0,0,17.228,39.2Zm30-30.2c.019-.058,1.93-5.769,12.723-5.769.7,0,1.438.024,2.215.075,12.186.8,17.14,7.113,17.679,12.272.378,3.612-.085,11.75-4.541,16.7a12.878,12.878,0,0,1-10.022,4.109c-7.076,0-11.635-5.145-14.213-9.458C46.806,19.8,45.9,11.5,47.225,9ZM3.654,15.58c.539-5.159,5.494-11.468,17.68-12.272q1.16-.076,2.213-.075c10.711,0,12.648,5.539,12.781,5.9C37.6,11.5,36.69,19.8,32.43,26.929c-2.578,4.314-7.134,9.456-14.222,9.459A12.863,12.863,0,0,1,8.2,32.279C3.738,27.332,3.276,19.193,3.654,15.58Z" transform="matrix(0.978, -0.208, 0.208, 0.978, 218.784, 334.297)" fill="#fff"/>
    <path id="Path_60" data-name="Path 60" d="M17.228,39.2C32.055,39.2,36.92,24.8,39,18.654l.115-.338A25.262,25.262,0,0,1,40.279,15.4a1.772,1.772,0,0,1,2.938-.005,25.52,25.52,0,0,1,1.168,2.924l.114.338C46.576,24.8,51.441,39.2,66.269,39.2l0-.764V39.2h0a14.659,14.659,0,0,0,12.369-6.158C83.6,26.37,84.024,15.9,83.115,12.907c-2.08-6.86-9.878-10.263-14.34-11.681C66.217.413,61.131,0,53.664,0c-6.22,0-11.9.3-11.876.3C41.73.3,36.051,0,29.832,0c-7.468,0-12.553.413-15.11,1.226C10.259,2.644,2.461,6.047.382,12.907c-.908,3-.482,13.46,4.469,20.136A14.661,14.661,0,0,0,17.228,39.2Zm30-30.2c.019-.058,1.93-5.769,12.723-5.769.7,0,1.438.024,2.215.075,12.186.8,17.14,7.113,17.679,12.272.378,3.612-.085,11.75-4.541,16.7a12.878,12.878,0,0,1-10.022,4.109c-7.076,0-11.635-5.145-14.213-9.458C46.806,19.8,45.9,11.5,47.225,9ZM3.654,15.58c.539-5.159,5.494-11.468,17.68-12.272q1.16-.076,2.213-.075c10.711,0,12.648,5.539,12.781,5.9C37.6,11.5,36.69,19.8,32.43,26.929c-2.578,4.314-7.134,9.456-14.222,9.459A12.863,12.863,0,0,1,8.2,32.279C3.738,27.332,3.276,19.193,3.654,15.58Z" transform="translate(770.74 813.397) rotate(19)" fill="#fff"/>
    <g id="laptop" transform="translate(123.245 564.397) rotate(-8)">
      <path id="Path_59" data-name="Path 59" d="M9.405,57.157H89.027a2.989,2.989,0,0,0,2.986-2.986V2.986A2.989,2.989,0,0,0,89.027,0H9.405A2.989,2.989,0,0,0,6.42,2.986V54.171A2.99,2.99,0,0,0,9.405,57.157ZM8.979,2.986a.427.427,0,0,1,.427-.427H89.027a.427.427,0,0,1,.427.427V54.171a.427.427,0,0,1-.427.427H9.405a.427.427,0,0,1-.427-.427ZM98.432,59.442v2.39a1.147,1.147,0,0,1-1.147,1.147H1.147A1.147,1.147,0,0,1,0,61.831v-2.39H40.425A1.612,1.612,0,0,0,41.967,60.6h14.5a1.612,1.612,0,0,0,1.542-1.155Z" transform="translate(0 0)" fill="#fff"/>
    </g>
    <g id="laptop-2" data-name="laptop" transform="translate(955.78 436.215) rotate(-8)">
      <path id="Path_59-2" data-name="Path 59" d="M8.219,49.95H77.8a2.612,2.612,0,0,0,2.609-2.609V2.609A2.612,2.612,0,0,0,77.8,0H8.219A2.612,2.612,0,0,0,5.61,2.609V47.341A2.613,2.613,0,0,0,8.219,49.95ZM7.847,2.609a.373.373,0,0,1,.373-.373H77.8a.373.373,0,0,1,.373.373V47.341a.373.373,0,0,1-.373.373H8.219a.373.373,0,0,1-.373-.373ZM86.021,51.947v2.088a1,1,0,0,1-1,1H1a1,1,0,0,1-1-1V51.947H35.328a1.408,1.408,0,0,0,1.347,1.009H49.346a1.409,1.409,0,0,0,1.347-1.009Z" transform="translate(0 0)" fill="#fff"/>
    </g>
    <g id="drink" transform="translate(1461.75 804.96)">
      <path id="Path_12" data-name="Path 12" d="M139.709,1.116A2.444,2.444,0,0,0,136.334.39L122.99,9.008l-.008,0-.007.005-9.492,6.13H80.095a3.639,3.639,0,0,0-3.648,3.525A70.514,70.514,0,0,0,76.815,28.8a38.946,38.946,0,0,0,3.3,12.635,57.31,57.31,0,0,1,5.761,24.616c0,1.177,0,2.512,0,3.715a1.381,1.381,0,0,0,2.763,0c0-1.2,0-2.542,0-3.72a60.092,60.092,0,0,0-6.036-25.811,30.315,30.315,0,0,1-2.176-6.49c5.9-.592,12.145.663,18.2,1.882a73,73,0,0,0,14.3,1.8,27.48,27.48,0,0,0,11.722-2.334,28.586,28.586,0,0,1-1.848,5.141,60.09,60.09,0,0,0-6.036,25.811c-.016,7.732.013,14.081.085,18.905h-28.3c.046-2.836.069-5.4.08-8.726a1.381,1.381,0,1,0-2.763-.009c-.013,3.848-.1,14.188-.1,14.188a4.021,4.021,0,0,0,4.016,4.016H115.6a4.021,4.021,0,0,0,4.016-4.016s-.106-15.863-.088-24.352a57.314,57.314,0,0,1,5.761-24.615,36.2,36.2,0,0,0,2.929-9.908q.213-1.309.362-2.627a18.4,18.4,0,0,0,11.75-8.92,1.381,1.381,0,0,0-2.415-1.342,15.552,15.552,0,0,1-9.069,7.316c.06-.892.1-1.751.124-2.566a13.561,13.561,0,0,0,2.479-1.262,13.472,13.472,0,0,0,4.336-18.094l1.773-1.145a15.587,15.587,0,0,1,2.2,10.09,1.381,1.381,0,1,0,2.742.341,18.355,18.355,0,0,0-2.794-12.2ZM116.855,90.4a1.255,1.255,0,0,1-1.254,1.254H89.787A1.255,1.255,0,0,1,88.533,90.4v-2.69h28.322Zm5.8-77.888.354,2.633h-4.431ZM123.9,32.393c-7.68,3.805-16.7,2.136-24.722.524-6.344-1.276-12.89-2.592-19.268-1.9a65.848,65.848,0,0,1-.7-12.25.886.886,0,0,1,.887-.86h45.219a.886.886,0,0,1,.887.86,65.2,65.2,0,0,1-.787,12.773A16.894,16.894,0,0,1,123.9,32.393Zm6.054-12.587a10.682,10.682,0,0,1-.952.545c-.007-.611-.021-1.176-.039-1.679a3.635,3.635,0,0,0-3.162-3.489l-.307-2.283,7.13,4.45A10.657,10.657,0,0,1,129.952,19.806Zm4.057-4.848-7.7-4.8,7.154-4.62A10.711,10.711,0,0,1,134.009,14.958Z" transform="translate(-76.403 0)" fill="#fff"/>
    </g>
    <g id="drink-2" data-name="drink" transform="translate(338.921 712.897)">
      <path id="Path_12-2" data-name="Path 12" d="M139.709,1.116A2.444,2.444,0,0,0,136.334.39L122.99,9.008l-.008,0-.007.005-9.492,6.13H80.095a3.639,3.639,0,0,0-3.648,3.525A70.514,70.514,0,0,0,76.815,28.8a38.946,38.946,0,0,0,3.3,12.635,57.31,57.31,0,0,1,5.761,24.616c0,1.177,0,2.512,0,3.715a1.381,1.381,0,0,0,2.763,0c0-1.2,0-2.542,0-3.72a60.092,60.092,0,0,0-6.036-25.811,30.315,30.315,0,0,1-2.176-6.49c5.9-.592,12.145.663,18.2,1.882a73,73,0,0,0,14.3,1.8,27.48,27.48,0,0,0,11.722-2.334,28.586,28.586,0,0,1-1.848,5.141,60.09,60.09,0,0,0-6.036,25.811c-.016,7.732.013,14.081.085,18.905h-28.3c.046-2.836.069-5.4.08-8.726a1.381,1.381,0,1,0-2.763-.009c-.013,3.848-.1,14.188-.1,14.188a4.021,4.021,0,0,0,4.016,4.016H115.6a4.021,4.021,0,0,0,4.016-4.016s-.106-15.863-.088-24.352a57.314,57.314,0,0,1,5.761-24.615,36.2,36.2,0,0,0,2.929-9.908q.213-1.309.362-2.627a18.4,18.4,0,0,0,11.75-8.92,1.381,1.381,0,0,0-2.415-1.342,15.552,15.552,0,0,1-9.069,7.316c.06-.892.1-1.751.124-2.566a13.561,13.561,0,0,0,2.479-1.262,13.472,13.472,0,0,0,4.336-18.094l1.773-1.145a15.587,15.587,0,0,1,2.2,10.09,1.381,1.381,0,1,0,2.742.341,18.355,18.355,0,0,0-2.794-12.2ZM116.855,90.4a1.255,1.255,0,0,1-1.254,1.254H89.787A1.255,1.255,0,0,1,88.533,90.4v-2.69h28.322Zm5.8-77.888.354,2.633h-4.431ZM123.9,32.393c-7.68,3.805-16.7,2.136-24.722.524-6.344-1.276-12.89-2.592-19.268-1.9a65.848,65.848,0,0,1-.7-12.25.886.886,0,0,1,.887-.86h45.219a.886.886,0,0,1,.887.86,65.2,65.2,0,0,1-.787,12.773A16.894,16.894,0,0,1,123.9,32.393Zm6.054-12.587a10.682,10.682,0,0,1-.952.545c-.007-.611-.021-1.176-.039-1.679a3.635,3.635,0,0,0-3.162-3.489l-.307-2.283,7.13,4.45A10.657,10.657,0,0,1,129.952,19.806Zm4.057-4.848-7.7-4.8,7.154-4.62A10.711,10.711,0,0,1,134.009,14.958Z" transform="translate(-76.403 0)" fill="#fff"/>
    </g>
    <g id="audio" transform="translate(1622.853 114.138)">
      <g id="Group_49" data-name="Group 49" transform="translate(23.019 0) rotate(16)">
        <path id="Path_9" data-name="Path 9" d="M99.875,24.485v0C87.925,3.491,56.929-5.79,30.644,3.754,19.139,7.931,9.919,15.295,4.688,24.482A34.537,34.537,0,0,0,0,41.76V54.834a8.816,8.816,0,0,0,3.574,6.888l7.044,5.627.957,2.107c2.952,6.25,10.507,10.342,18.87,10.221.366,0,.737-.036,1.107-.05l.087.192c1.317,2.908,5.337,4.412,8.978,3.36h0L40.9,83.1c3.64-1.048,5.527-4.254,4.214-7.161h0l-13.8-30.479c-1.328-2.9-5.341-4.4-8.982-3.36l-.282.082c-3.094.883-5,3.372-4.564,5.973a17.958,17.958,0,0,0-6.838,6.807,1.175,1.175,0,0,1-.19-.6V41.76c0-18.447,18.726-33.4,41.825-33.4s41.825,14.954,41.825,33.4v12.6a1.081,1.081,0,0,1-.073.291,18.138,18.138,0,0,0-6.669-6.5c.43-2.6-1.469-5.086-4.561-5.97l-.289-.084c-3.639-1.042-7.648.459-8.972,3.36L59.737,75.933c-1.314,2.906.571,6.112,4.21,7.162l.286.083c3.641,1.049,7.659-.455,8.979-3.361l.087-.192c.368.014.741.05,1.107.05,8.363.121,15.917-3.97,18.87-10.219l1.117-2.466,6.6-5.269a8.816,8.816,0,0,0,3.574-6.886V41.76A34.537,34.537,0,0,0,99.875,24.485ZM21.239,46.244a3.318,3.318,0,0,1,2-1.45l.282-.082a3.826,3.826,0,0,1,4.519,1.69l13.8,30.479c.659,1.458-.287,3.067-2.113,3.593h0l-.286.082a3.831,3.831,0,0,1-4.517-1.69L34.4,77.7l-13.28-29.32A2.275,2.275,0,0,1,21.239,46.244Zm-2.659,4.737v-.006L30.323,76.893c-6.313.058-12.109-2.779-14.909-7.3h.27c.174,0,.331-.026.5-.039s.286-.013.429-.032a6.55,6.55,0,0,0,.674-.139c.125-.031.251-.05.373-.088a5.98,5.98,0,0,0,.678-.27c.1-.046.211-.079.31-.131,2.518-1.3,3.242-3.978,1.618-5.989a4.689,4.689,0,0,0-.733-.723l-6.244-4.991A14.033,14.033,0,0,1,18.579,50.982ZM6.971,41.76v12.6A3.775,3.775,0,0,0,8.5,57.307l8.564,6.84a1.35,1.35,0,0,1,0,2.207,2.317,2.317,0,0,1-2.764,0l-8.264-6.6a6.294,6.294,0,0,1-2.553-4.918V41.76A32.073,32.073,0,0,1,7.41,26.451h3.81A30.3,30.3,0,0,0,6.971,41.76ZM52.282,5.575c-16.188,0-31.146,6.9-39.244,18.092H9.062c12.511-19.062,42-26.416,65.872-16.425C83.721,10.921,90.9,16.651,95.5,23.668H91.526C83.428,12.474,68.47,5.578,52.282,5.575ZM72.353,73.53l-1.891,4.175-.523,1.165a3.826,3.826,0,0,1-4.519,1.691h0l-.286-.084c-1.828-.526-2.777-2.135-2.119-3.595L76.819,46.4a3.819,3.819,0,0,1,4.511-1.691h0l.289.083c1.827.524,2.776,2.132,2.119,3.591l0,0Zm2.184,3.362,7.7-17.005,4.034-8.907A14.148,14.148,0,0,1,91.5,57.02l-6.459,5.159a3.761,3.761,0,0,0,0,6.143,5.382,5.382,0,0,0,.922.585c.11.056.225.093.338.139a6.124,6.124,0,0,0,.7.262c.136.04.274.067.413.1a6.661,6.661,0,0,0,.683.124c.148.017.295.025.443.033.12,0,.237.028.349.028s.211-.019.317-.025.174.008.253,0C86.666,74.1,80.862,76.95,74.536,76.893Zm26.542-22.059a6.3,6.3,0,0,1-2.553,4.92L91.657,65.24l-1.394,1.113a2.317,2.317,0,0,1-2.764,0,1.35,1.35,0,0,1,0-2.207l8.564-6.84a3.78,3.78,0,0,0,1.53-2.95V41.76a30.3,30.3,0,0,0-4.249-15.309h3.81a32.073,32.073,0,0,1,3.925,15.309Z" transform="translate(0 0)" fill="#fff"/>
      </g>
    </g>
    <g id="audio-2" data-name="audio" transform="translate(1712.376 811.633)">
      <g id="Group_49-2" data-name="Group 49" transform="translate(23.019 0) rotate(16)">
        <path id="Path_9-2" data-name="Path 9" d="M99.875,24.485v0C87.925,3.491,56.929-5.79,30.644,3.754,19.139,7.931,9.919,15.295,4.688,24.482A34.537,34.537,0,0,0,0,41.76V54.834a8.816,8.816,0,0,0,3.574,6.888l7.044,5.627.957,2.107c2.952,6.25,10.507,10.342,18.87,10.221.366,0,.737-.036,1.107-.05l.087.192c1.317,2.908,5.337,4.412,8.978,3.36h0L40.9,83.1c3.64-1.048,5.527-4.254,4.214-7.161h0l-13.8-30.479c-1.328-2.9-5.341-4.4-8.982-3.36l-.282.082c-3.094.883-5,3.372-4.564,5.973a17.958,17.958,0,0,0-6.838,6.807,1.175,1.175,0,0,1-.19-.6V41.76c0-18.447,18.726-33.4,41.825-33.4s41.825,14.954,41.825,33.4v12.6a1.081,1.081,0,0,1-.073.291,18.138,18.138,0,0,0-6.669-6.5c.43-2.6-1.469-5.086-4.561-5.97l-.289-.084c-3.639-1.042-7.648.459-8.972,3.36L59.737,75.933c-1.314,2.906.571,6.112,4.21,7.162l.286.083c3.641,1.049,7.659-.455,8.979-3.361l.087-.192c.368.014.741.05,1.107.05,8.363.121,15.917-3.97,18.87-10.219l1.117-2.466,6.6-5.269a8.816,8.816,0,0,0,3.574-6.886V41.76A34.537,34.537,0,0,0,99.875,24.485ZM21.239,46.244a3.318,3.318,0,0,1,2-1.45l.282-.082a3.826,3.826,0,0,1,4.519,1.69l13.8,30.479c.659,1.458-.287,3.067-2.113,3.593h0l-.286.082a3.831,3.831,0,0,1-4.517-1.69L34.4,77.7l-13.28-29.32A2.275,2.275,0,0,1,21.239,46.244Zm-2.659,4.737v-.006L30.323,76.893c-6.313.058-12.109-2.779-14.909-7.3h.27c.174,0,.331-.026.5-.039s.286-.013.429-.032a6.55,6.55,0,0,0,.674-.139c.125-.031.251-.05.373-.088a5.98,5.98,0,0,0,.678-.27c.1-.046.211-.079.31-.131,2.518-1.3,3.242-3.978,1.618-5.989a4.689,4.689,0,0,0-.733-.723l-6.244-4.991A14.033,14.033,0,0,1,18.579,50.982ZM6.971,41.76v12.6A3.775,3.775,0,0,0,8.5,57.307l8.564,6.84a1.35,1.35,0,0,1,0,2.207,2.317,2.317,0,0,1-2.764,0l-8.264-6.6a6.294,6.294,0,0,1-2.553-4.918V41.76A32.073,32.073,0,0,1,7.41,26.451h3.81A30.3,30.3,0,0,0,6.971,41.76ZM52.282,5.575c-16.188,0-31.146,6.9-39.244,18.092H9.062c12.511-19.062,42-26.416,65.872-16.425C83.721,10.921,90.9,16.651,95.5,23.668H91.526C83.428,12.474,68.47,5.578,52.282,5.575ZM72.353,73.53l-1.891,4.175-.523,1.165a3.826,3.826,0,0,1-4.519,1.691h0l-.286-.084c-1.828-.526-2.777-2.135-2.119-3.595L76.819,46.4a3.819,3.819,0,0,1,4.511-1.691h0l.289.083c1.827.524,2.776,2.132,2.119,3.591l0,0Zm2.184,3.362,7.7-17.005,4.034-8.907A14.148,14.148,0,0,1,91.5,57.02l-6.459,5.159a3.761,3.761,0,0,0,0,6.143,5.382,5.382,0,0,0,.922.585c.11.056.225.093.338.139a6.124,6.124,0,0,0,.7.262c.136.04.274.067.413.1a6.661,6.661,0,0,0,.683.124c.148.017.295.025.443.033.12,0,.237.028.349.028s.211-.019.317-.025.174.008.253,0C86.666,74.1,80.862,76.95,74.536,76.893Zm26.542-22.059a6.3,6.3,0,0,1-2.553,4.92L91.657,65.24l-1.394,1.113a2.317,2.317,0,0,1-2.764,0,1.35,1.35,0,0,1,0-2.207l8.564-6.84a3.78,3.78,0,0,0,1.53-2.95V41.76a30.3,30.3,0,0,0-4.249-15.309h3.81a32.073,32.073,0,0,1,3.925,15.309Z" transform="translate(0 0)" fill="#fff"/>
      </g>
    </g>
    <g id="Outline" transform="translate(978.065 851.503)">
      <g id="Group_50" data-name="Group 50" transform="translate(0 0)">
        <path id="Path_17" data-name="Path 17" d="M66.092,52.823a1.551,1.551,0,0,0-1.746,1.326l-1.337,9.812H39.551a1.551,1.551,0,1,0,0,3.1H64.363A1.551,1.551,0,0,0,65.9,65.721l1.521-11.151a1.551,1.551,0,0,0-1.329-1.746Z" transform="translate(5.007 -3.165)" fill="#fff"/>
        <path id="Path_18" data-name="Path 18" d="M79.306,41.363a1.57,1.57,0,0,0-1.041-.37h-6.5l2.32-9.546a.836.836,0,0,0,0-.383l.637-2.324,2.064,2.7-1.662,6.114c-.16.585.316,1.16,1.062,1.286a1.789,1.789,0,0,0,.292.024A1.348,1.348,0,0,0,77.83,38l1.786-6.532a.881.881,0,0,0-.166-.784L75.3,25.271a1.543,1.543,0,0,0-1.409-.513,1.289,1.289,0,0,0-1.127.838L71.63,29.728l-5.3-1.66a1.724,1.724,0,0,0-1.213.072,1.109,1.109,0,0,0-.671.795L63.3,36.124l-.922-.181-.7-6.951a.992.992,0,0,0-.359-.633l.276-2.789,1.315-.309,3.644,1.523a1.591,1.591,0,0,0,1.87-.445.978.978,0,0,0-.568-1.466L63.708,23.14a1.729,1.729,0,0,0-1.048-.082l-2.765.65a1.184,1.184,0,0,0-.981.951l-.171,1.674-1.62-1.27a1.616,1.616,0,0,0-1.074-.313,1.516,1.516,0,0,0-1.007.429l-1.659,1.733V25.829c0-1.795-1.857-3.249-4.147-3.249H46.471V21.5c0-1.795-1.857-3.249-4.147-3.249H35.412V13.124L46.006,7.589a.95.95,0,0,0,.383-1.5l-3.066-3.6a1.631,1.631,0,0,0-1.917-.3l-12.441,6.5a3.13,3.13,0,0,0-1.847,2.7v6.863H20.206c-2.29,0-4.147,1.455-4.147,3.249v1.083H13.294c-2.29,0-4.147,1.455-4.147,3.249v2.166c0,.022.829,5.706.829,5.706a1.306,1.306,0,0,0,1.371.961,1.534,1.534,0,0,0,.158-.008c.758-.068,1.3-.6,1.216-1.2l-.644-4.378H22.971a1.26,1.26,0,0,0,1.382-1.083,1.26,1.26,0,0,0-1.382-1.083H11.912V25.829a1.26,1.26,0,0,1,1.382-1.083H49.236a1.26,1.26,0,0,1,1.382,1.083v1.083H28.5a1.26,1.26,0,0,0-1.382,1.083A1.26,1.26,0,0,0,28.5,29.078H51.309l-.415.433a.926.926,0,0,0-.276.74l.415,3.9-.5-1.107a1.275,1.275,0,0,0-.853-.663l-4.1-1.1a1.5,1.5,0,0,0-1.756.673l-.748,1.7-.856-1.724a1.417,1.417,0,0,0-1.283-.691H35.412a1.524,1.524,0,0,0-1.135.463.891.891,0,0,0-.163.994l.861,1.829c-.315-.016-.626-.038-.946-.038H20.206a18.255,18.255,0,0,0-8.384,1.978.951.951,0,0,0-.388,1.5,1.631,1.631,0,0,0,1.917.3,14.934,14.934,0,0,1,6.855-1.617H34.03c6.333.006,11.653,3.734,12.364,8.665H7.842A8.486,8.486,0,0,1,9.83,41.037a.953.953,0,0,0-.425-1.46,1.642,1.642,0,0,0-1.88.269A10.133,10.133,0,0,0,5,46.408a1.26,1.26,0,0,0,1.382,1.083h.174a4.354,4.354,0,0,0,1.411,2.045,4.162,4.162,0,0,0-.2,1.2,4.86,4.86,0,0,0,1.949,3.754c-1.662.793-2.373,2.4-1.695,3.828H6.382A1.26,1.26,0,0,0,5,59.405v2.166c0,2.989,3.1,5.412,6.912,5.416h4.147a1.116,1.116,0,1,0,0-2.166H11.912c-2.29,0-4.147-1.455-4.147-3.249V60.488H29.494l.691.676a1.636,1.636,0,0,0,2.159,0l5.115-5.008h4.865a1.116,1.116,0,1,1,0,2.166H39.283a1.116,1.116,0,1,0,0,2.166h7.188v1.083c0,1.795-1.857,3.249-4.147,3.249H21.588a1.116,1.116,0,1,0,0,2.166H42.324c3.815,0,6.907-2.426,6.912-5.416V59.405a1.26,1.26,0,0,0-1.382-1.083H46.217c.678-1.429-.033-3.035-1.695-3.828a4.86,4.86,0,0,0,1.949-3.754A4.183,4.183,0,0,0,46.3,49.6a3.2,3.2,0,0,0,1.482-2.109h.073a1.643,1.643,0,0,0,.254-.04,17.724,17.724,0,0,0,10.8,3.289c7.038,0,12.863-3.313,13.716-7.582h4.053l-1.83,10.515c-.1.593.428,1.138,1.185,1.219a1.558,1.558,0,0,0,.187.011,1.316,1.316,0,0,0,1.37-.937l2.043-11.744A.934.934,0,0,0,79.306,41.363ZM29.883,11.384a1.046,1.046,0,0,1,.615-.9l11.291-5.9,1.534,1.8L33.262,11.64a1.046,1.046,0,0,0-.615.9v5.706H29.883Zm-11.059,11.2V21.5a1.26,1.26,0,0,1,1.382-1.083H42.324A1.26,1.26,0,0,1,43.706,21.5v1.083Zm42.759,15.45,2.794.542-.7,9.356a16.873,16.873,0,0,1-2.834.542ZM56.3,27.478l2.66,2.084.632,6.186q-.059.018-.115.04a1.043,1.043,0,0,0-.553.811l-.847,11.939a17.629,17.629,0,0,1-2.765-.344L53.421,30.486ZM37.4,33.41H40l1.244,2.513a17.739,17.739,0,0,0-3.128-.98ZM43.663,50.4a2.3,2.3,0,0,1,.043.336c0,1.795-1.857,3.249-4.147,3.249H14.677c-2.218-.006-4.037-1.379-4.129-3.115l.127.051a7.359,7.359,0,0,0,5.238,0l2.224-.866a1.915,1.915,0,0,1,1.374,0L22.429,51.2a5.4,5.4,0,0,0,3.848,0l2.914-1.147a1.915,1.915,0,0,1,1.374,0L33.484,51.2a5.4,5.4,0,0,0,3.849,0l2.918-1.143a1.915,1.915,0,0,1,1.374,0,5.311,5.311,0,0,0,2.039.35ZM11.912,58.322a1.116,1.116,0,1,1,0-2.166H25.071l2.212,2.166Zm19.353.433-2.653-2.6h5.306Zm13.1-10.69q-.077.032-.158.057h-.032c-.018.005-.028.017-.046.023a1.865,1.865,0,0,1-1.259-.031,5.4,5.4,0,0,0-3.848,0L36.1,49.26a1.915,1.915,0,0,1-1.374,0l-2.918-1.143a5.4,5.4,0,0,0-3.848,0L25.044,49.26a1.915,1.915,0,0,1-1.374,0l-2.918-1.143a5.4,5.4,0,0,0-3.848,0l-2.223.866a3.884,3.884,0,0,1-2.765,0l-1.06-.409A2.806,2.806,0,0,1,9.5,47.491H44.967a1.3,1.3,0,0,1-.607.573Zm4.771-3.01a10.256,10.256,0,0,0-2.116-4.821l-1.852-4.645L46,33.679l2.158.582,3.785,8.375.5,4.664a9.345,9.345,0,0,1-3.307-2.245Zm17.4,1.72.676-8.968a1.151,1.151,0,0,0-1.045-1.115l-.155-.032.968-6.057,4.19,1.314L67.751,45.965a9.589,9.589,0,0,1-1.221.809Z" transform="translate(-5 -2)" fill="#fff"/>
        <ellipse id="Ellipse_14" data-name="Ellipse 14" cx="2.196" cy="2.635" rx="2.196" ry="2.635" transform="translate(22.999 36.175)" fill="#fff"/>
        <circle id="Ellipse_15" data-name="Ellipse 15" cx="2.635" cy="2.635" r="2.635" transform="translate(17.347 35.111)" fill="#fff"/>
        <ellipse id="Ellipse_16" data-name="Ellipse 16" cx="2.635" cy="2.196" rx="2.635" ry="2.196" transform="translate(13.21 37.564)" fill="#fff"/>
        <ellipse id="Ellipse_17" data-name="Ellipse 17" cx="2.635" cy="2.196" rx="2.635" ry="2.196" transform="translate(33.434 37.564)" fill="#fff"/>
        <circle id="Ellipse_18" data-name="Ellipse 18" cx="2.635" cy="2.635" r="2.635" transform="translate(15.58 36.175)" fill="#fff"/>
        <circle id="Ellipse_19" data-name="Ellipse 19" cx="2.635" cy="2.635" r="2.635" transform="translate(27.918 35.111)" fill="#fff"/>
      </g>
    </g>
    <g id="send" transform="translate(1163.011 861.163)">
      <path id="Path_47" data-name="Path 47" d="M74.6,36.147a2.189,2.189,0,0,0-2.917-2.508L1.408,60.509A2.192,2.192,0,0,0,1.4,64.6l19.741,7.637V96.289a2.186,2.186,0,0,0,4.14.986l8.165-16.228L53.371,95.857a2.187,2.187,0,0,0,3.4-1.12C75.369,33.644,74.565,36.3,74.6,36.147Zm-17.347,7.7L23.018,68.265l-14.729-5.7ZM25.515,71.862l29.84-21.285C29.678,77.708,31.019,76.28,30.907,76.431c-.166.224.289-.65-5.392,10.643ZM53.487,90.488,35.948,77.451,67.66,43.942Z" transform="translate(-0.001 -33.492)" fill="#fff"/>
    </g>
    <g id="agreement_2_" data-name="agreement (2)" transform="translate(188.687 890.555)">
      <g id="Group_34" data-name="Group 34" transform="translate(12.314 3.738)">
        <g id="Group_33" data-name="Group 33" transform="translate(0 0)">
          <path id="Path_1" data-name="Path 1" d="M129.024,151.118c-1.658-3.456-7.588-8.253-13.318-12.889-3.2-2.583-6.216-5.026-8.141-6.951a1.759,1.759,0,0,0-1.841-.412c-1.186.429-1.918.76-2.5,1.017a5.82,5.82,0,0,1-2.362.648,1.759,1.759,0,0,0-1.288.771c-2.488,3.72-5.065,3.4-6.786,2.826-.549-.183-.648-.419-.7-.644-.37-1.545,1.485-5.142,3.889-7.546,5.719-5.723,8.669-7.155,14.9-4.371,7.067,3.161,14.149,5.635,14.219,5.659a1.761,1.761,0,0,0,1.158-3.326c-.07-.025-7.011-2.45-13.937-5.55-8.07-3.608-12.5-1.232-18.823,5.1-2.407,2.407-5.677,7.278-4.832,10.851a4.353,4.353,0,0,0,3.023,3.171c3.988,1.316,7.627.056,10.337-3.541a8.885,8.885,0,0,0,2.643-.838c.331-.148.718-.32,1.232-.528,2.013,1.89,4.73,4.09,7.592,6.4,5.174,4.185,11.041,8.929,12.361,11.674a2.062,2.062,0,0,1-.524,2.643,1.939,1.939,0,0,1-2.168.426,1.759,1.759,0,0,0-2.749,1.637,2.126,2.126,0,0,1-1.348,1.982,2.7,2.7,0,0,1-2.742.063,1.759,1.759,0,0,0-2.953,1.123,3.344,3.344,0,0,1-2.077,2.7,1.856,1.856,0,0,1-2.02-.313,1.78,1.78,0,0,0-1.608-.408,1.757,1.757,0,0,0-1.235,1.109c-.067.176-.218.6-1.865.6a10.134,10.134,0,0,1-4.311-1.475c-1.235-.813-8.982-6.592-15.673-12.2-.94-.792-2.566-2.488-4-3.988-1.274-1.33-2.439-2.538-3.037-3.044a1.761,1.761,0,0,0-2.274,2.689c.546.461,1.6,1.577,2.766,2.791,1.57,1.64,3.192,3.337,4.283,4.252,6.553,5.487,14.43,11.41,16,12.442a13.5,13.5,0,0,0,6.247,2.048,6.057,6.057,0,0,0,3.995-1.175,5.478,5.478,0,0,0,4-.042,6.932,6.932,0,0,0,3.664-3.382,6.806,6.806,0,0,0,4.417-.637,5.971,5.971,0,0,0,2.939-3.069,5.755,5.755,0,0,0,4.037-1.447A5.6,5.6,0,0,0,129.024,151.118Z" transform="translate(-74.642 -118.658)" fill="#fff"/>
        </g>
      </g>
      <g id="Group_36" data-name="Group 36" transform="translate(17.598 7.038)">
        <g id="Group_35" data-name="Group 35">
          <path id="Path_2" data-name="Path 2" d="M124.264,138.663H108.426a1.76,1.76,0,1,0,0,3.52h15.838a1.76,1.76,0,1,0,0-3.52Z" transform="translate(-106.666 -138.663)" fill="#fff"/>
        </g>
      </g>
      <g id="Group_38" data-name="Group 38" transform="translate(63.486 31.672)">
        <g id="Group_37" data-name="Group 37">
          <path id="Path_3" data-name="Path 3" d="M393.177,288.758a1.755,1.755,0,0,0-2.443-.479l-5.146,3.456a1.76,1.76,0,0,0,1.964,2.921L392.7,291.2A1.761,1.761,0,0,0,393.177,288.758Z" transform="translate(-384.811 -287.977)" fill="#fff"/>
        </g>
      </g>
      <g id="Group_40" data-name="Group 40" transform="translate(47.517 29.913)">
        <g id="Group_39" data-name="Group 39">
          <path id="Path_4" data-name="Path 4" d="M301.426,288.255c-1.26-.993-6.895-6.761-10.379-10.393a1.76,1.76,0,0,0-2.541,2.436c.9.943,8.883,9.26,10.738,10.724a1.752,1.752,0,0,0,1.088.377,1.778,1.778,0,0,0,1.387-.672A1.758,1.758,0,0,0,301.426,288.255Z" transform="translate(-288.015 -277.317)" fill="#fff"/>
        </g>
      </g>
      <g id="Group_42" data-name="Group 42" transform="translate(42.236 35.196)">
        <g id="Group_41" data-name="Group 41" transform="translate(0 0)">
          <path id="Path_5" data-name="Path 5" d="M267.664,318.522c-2.108-1.686-7.405-7.314-8.6-8.616a1.761,1.761,0,0,0-2.594,2.383c.063.067,6.385,6.891,9,8.982a1.76,1.76,0,0,0,2.2-2.749Z" transform="translate(-256.005 -309.337)" fill="#fff"/>
        </g>
      </g>
      <g id="Group_44" data-name="Group 44" transform="translate(35.197 38.711)">
        <g id="Group_43" data-name="Group 43" transform="translate(0 0)">
          <path id="Path_6" data-name="Path 6" d="M225.037,339.858c-2.51-2.115-7.645-7.581-8.648-8.655a1.761,1.761,0,0,0-2.573,2.4c1.443,1.545,6.356,6.754,8.95,8.943a1.761,1.761,0,1,0,2.27-2.692Z" transform="translate(-213.343 -330.644)" fill="#fff"/>
        </g>
      </g>
      <g id="Group_46" data-name="Group 46" transform="translate(0 0)">
        <g id="Group_45" data-name="Group 45">
          <path id="Path_7" data-name="Path 7" d="M20.568,100c-3.016-2.858-15.078-3.784-18.7-4A1.758,1.758,0,0,0,0,97.762v31.676a1.761,1.761,0,0,0,1.76,1.76H12.319a1.758,1.758,0,0,0,1.672-1.214c.257-.788,6.321-19.4,7.12-28.551A1.751,1.751,0,0,0,20.568,100Zm-9.534,27.674H3.52V99.649c5.656.447,11.759,1.418,13.976,2.5C16.563,109.852,12.343,123.546,11.034,127.678Z" transform="translate(0 -96.003)" fill="#fff"/>
        </g>
      </g>
      <g id="Group_48" data-name="Group 48" transform="translate(59.895 3.518)">
        <g id="Group_47" data-name="Group 47" transform="translate(0 0)">
          <path id="Path_8" data-name="Path 8" d="M385.861,117.33c-13.818,0-21.483,3.537-21.8,3.685a1.751,1.751,0,0,0-.94,1.095,1.775,1.775,0,0,0,.194,1.429c2.175,3.5,8.985,22.951,10.295,27.7a1.759,1.759,0,0,0,1.7,1.292h10.559a1.761,1.761,0,0,0,1.76-1.76V119.09A1.758,1.758,0,0,0,385.861,117.33Zm-1.76,31.676h-7.483c-1.668-5.434-6.6-19.6-9.344-25.46a57.317,57.317,0,0,1,16.827-2.675Z" transform="translate(-363.046 -117.33)" fill="#fff"/>
        </g>
      </g>
    </g>
    <g id="rock-and-roll" transform="translate(1552.886 335.94)">
      <path id="Path_39" data-name="Path 39" d="M157.1,52.993V10.256a10.13,10.13,0,1,0-20.259,0v22.6a9.982,9.982,0,0,0-5.6-1.716,10.158,10.158,0,0,0-9.614,7.031A10.1,10.1,0,0,0,109.9,37.8V34.271a10.13,10.13,0,1,0-20.259,0V77.679c0,21.078,16.894,38.227,37.66,38.227s37.659-17.149,37.659-38.227V62.991a10.247,10.247,0,0,0-7.866-10ZM141.365,10.256a5.6,5.6,0,1,1,11.2,0v42.48H141.363c0-.032,0-.064,0-.1V10.256ZM125.633,41.391a5.6,5.6,0,1,1,11.2,0V52.639c0,.032,0,.064,0,.1h-9.214a6.428,6.428,0,0,0-1.992.316V41.391Zm-10.13-.76a5.608,5.608,0,0,1,5.6,5.6V63.117a5.6,5.6,0,0,1-11.2,0V46.233A5.608,5.608,0,0,1,115.5,40.631Zm44.93,37.047c0,18.582-14.863,33.7-33.132,33.7S94.171,96.26,94.171,77.678V34.271a5.6,5.6,0,1,1,11.2,0V63.117a10.126,10.126,0,0,0,18.891,5.074,13.741,13.741,0,0,0,7.3,4.654,24.167,24.167,0,0,0-10.46,19.95,2.264,2.264,0,0,0,4.528,0,19.4,19.4,0,0,1,19.205-19.55,2.264,2.264,0,1,0,0-4.528h-9.994a9.315,9.315,0,0,1-9.212-9.4,2.029,2.029,0,0,1,1.992-2.06h27.206a5.673,5.673,0,0,1,5.6,5.728Z" transform="translate(-89.643 0)" fill="#fff" fill-rule="evenodd"/>
      <path id="Path_40" data-name="Path 40" d="M177.209,339.365c-3.261,3.328-6.561,11.756-6.976,16.32a2.264,2.264,0,0,0,2.05,2.459c.07.006.139.01.208.01a2.264,2.264,0,0,0,2.252-2.059c.363-3.988,3.4-11.212,5.7-13.562a2.264,2.264,0,0,0-3.234-3.168Z" transform="translate(-151.982 -262.014)" fill="#fff" fill-rule="evenodd"/>
      <path id="Path_41" data-name="Path 41" d="M330.971,97.263c1.917,0,3.481-.61,3.481-1.358s-1.564-1.358-3.481-1.358-3.481.61-3.481,1.358S329.053,97.263,330.971,97.263Z" transform="translate(-273.647 -73.143)" fill="#fff" fill-rule="evenodd"/>
      <path id="Path_42" data-name="Path 42" d="M330.971,177.264c1.917,0,3.481-.61,3.481-1.358s-1.564-1.358-3.481-1.358-3.481.61-3.481,1.358S329.053,177.264,330.971,177.264Z" transform="translate(-273.647 -135.033)" fill="#fff" fill-rule="evenodd"/>
      <path id="Path_43" data-name="Path 43" d="M122.495,204.547c-1.917,0-3.481.61-3.481,1.358s1.564,1.358,3.481,1.358,3.481-.61,3.481-1.358S124.412,204.547,122.495,204.547Z" transform="translate(-112.365 -158.242)" fill="#fff" fill-rule="evenodd"/>
      <path id="Path_44" data-name="Path 44" d="M122.495,284.547c-1.917,0-3.481.61-3.481,1.358s1.564,1.358,3.481,1.358,3.481-.61,3.481-1.358S124.412,284.547,122.495,284.547Z" transform="translate(-112.365 -220.132)" fill="#fff" fill-rule="evenodd"/>
    </g>
    <g id="sandwich" transform="translate(1413.121 606.484)">
      <path id="Path_45" data-name="Path 45" d="M64.779,15.006A8.89,8.89,0,0,0,52.692,2.92a10.921,10.921,0,0,0-15.124.289L3.189,37.588A10.92,10.92,0,0,0,2.9,52.714,8.89,8.89,0,0,0,14.986,64.8a10.921,10.921,0,0,0,15.127-.287L64.491,30.133a10.907,10.907,0,0,0,.287-15.127ZM5.059,39.457,39.437,5.079A8.274,8.274,0,0,1,50.565,4.57L4.55,50.585a8.274,8.274,0,0,1,.509-11.128Zm1.2,21.987a6.248,6.248,0,0,1,0-8.826L52.6,6.276A6.241,6.241,0,1,1,61.424,15.1L15.083,61.444A6.248,6.248,0,0,1,6.257,61.444ZM62.622,28.263,28.243,62.642a8.274,8.274,0,0,1-11.128.509L63.131,17.135a8.264,8.264,0,0,1-.51,11.128Z" transform="translate(0 -0.02)" fill="#fff"/>
      <path id="Path_46" data-name="Path 46" d="M103.721,144.46A11.718,11.718,0,0,0,112.185,136a9.084,9.084,0,0,1,6.653-6.653,11.717,11.717,0,0,0,8.463-8.463,9.083,9.083,0,0,1,6.653-6.653,10.888,10.888,0,0,0,5.393-3.069,1.322,1.322,0,0,0-1.87-1.87,8.31,8.31,0,0,1-4.255,2.4,11.716,11.716,0,0,0-8.463,8.463,9.084,9.084,0,0,1-6.653,6.653,11.717,11.717,0,0,0-8.463,8.463,9.085,9.085,0,0,1-6.653,6.653,10.891,10.891,0,0,0-5.394,3.07,1.322,1.322,0,1,0,1.87,1.87,8.31,8.31,0,0,1,4.255-2.4Z" transform="translate(-84.357 -94.507)" fill="#fff"/>
    </g>
    <g id="watch" transform="matrix(0.966, -0.259, 0.259, 0.966, 392.854, 161.768)">
      <g id="Group_82" data-name="Group 82" transform="translate(39.825 6.953)">
        <g id="Group_81" data-name="Group 81" transform="translate(0 0)">
          <path id="Path_52" data-name="Path 52" d="M3.722,1.512a1.9,1.9,0,0,0-.107-.351A1.856,1.856,0,0,0,3.442.835a1.866,1.866,0,0,0-.52-.519A1.9,1.9,0,0,0,2.6.144,1.757,1.757,0,0,0,2.247.037a1.859,1.859,0,0,0-.735,0,1.761,1.761,0,0,0-.351.107A2,2,0,0,0,.836.317,1.877,1.877,0,0,0,.551.55,1.8,1.8,0,0,0,.318.835a1.854,1.854,0,0,0-.173.325,1.9,1.9,0,0,0-.107.351,1.8,1.8,0,0,0,0,.733A1.96,1.96,0,0,0,.145,2.6a1.906,1.906,0,0,0,.173.323,1.8,1.8,0,0,0,.233.286,1.886,1.886,0,0,0,.286.233,1.983,1.983,0,0,0,.325.173,1.757,1.757,0,0,0,.351.107,1.813,1.813,0,0,0,.735,0A1.761,1.761,0,0,0,2.6,3.613a1.9,1.9,0,0,0,.323-.173,1.866,1.866,0,0,0,.52-.519A1.908,1.908,0,0,0,3.615,2.6a1.961,1.961,0,0,0,.107-.353,1.909,1.909,0,0,0,0-.733Z" transform="translate(0 0)" fill="#fff"/>
        </g>
      </g>
      <g id="Group_84" data-name="Group 84" transform="translate(19.929 85.498)">
        <g id="Group_83" data-name="Group 83" transform="translate(0 0)">
          <path id="Path_53" data-name="Path 53" d="M3.721,1.512a1.9,1.9,0,0,0-.107-.351A1.855,1.855,0,0,0,3.441.836,1.8,1.8,0,0,0,3.208.55,1.887,1.887,0,0,0,2.922.317,2,2,0,0,0,2.6.144,1.9,1.9,0,0,0,2.245.035a1.933,1.933,0,0,0-.735,0A1.931,1.931,0,0,0,.836.317,1.865,1.865,0,0,0,.316.836a1.856,1.856,0,0,0-.173.325,1.9,1.9,0,0,0-.107.351,1.9,1.9,0,0,0,0,.733A1.9,1.9,0,0,0,.143,2.6a1.856,1.856,0,0,0,.173.325,1.865,1.865,0,0,0,.521.519,1.908,1.908,0,0,0,.323.173,1.768,1.768,0,0,0,.351.107,1.867,1.867,0,0,0,1.7-.513,1.893,1.893,0,0,0,.551-1.329A1.851,1.851,0,0,0,3.721,1.512Z" transform="translate(0 0)" fill="#fff"/>
        </g>
      </g>
      <g id="Group_86" data-name="Group 86" transform="translate(29.877 35.188)">
        <g id="Group_85" data-name="Group 85" transform="translate(0 0)">
          <path id="Path_54" data-name="Path 54" d="M9.184,11.037H3.758V1.879A1.879,1.879,0,0,0,0,1.879V12.917A1.879,1.879,0,0,0,1.879,14.8H9.184a1.879,1.879,0,1,0,0-3.758Z" transform="translate(0)" fill="#fff"/>
        </g>
      </g>
      <g id="Group_88" data-name="Group 88" transform="translate(0 0)">
        <g id="Group_87" data-name="Group 87" transform="translate(0 0)">
          <path id="Path_55" data-name="Path 55" d="M67.834,41.683H62.86a31.507,31.507,0,0,0-1.4-4.827l4.938-3.15a1.879,1.879,0,0,0,.574-2.595L63.2,25.206a1.879,1.879,0,0,0-2.595-.574l-4.629,2.953a32.039,32.039,0,0,0-3.537-3.56L50.256,1.7A1.879,1.879,0,0,0,48.386,0H15.127a1.879,1.879,0,0,0-1.87,1.7L11.073,24.026a31.716,31.716,0,0,0,0,48.157l2.183,22.329a1.879,1.879,0,0,0,1.87,1.7h33.26a1.879,1.879,0,0,0,1.87-1.7l2.183-22.329A31.74,31.74,0,0,0,63.217,52.446h4.618a1.879,1.879,0,0,0,1.879-1.879v-7A1.879,1.879,0,0,0,67.834,41.683ZM16.151,10.711h18.6a1.879,1.879,0,0,0,0-3.758H16.519l.312-3.194H46.682l1.691,17.293a31.7,31.7,0,0,0-33.232,0ZM47.361,85.5H28.76a1.879,1.879,0,0,0,0,3.758H46.994l-.312,3.194H16.831L15.14,75.158a31.7,31.7,0,0,0,33.232,0ZM31.756,76.1a28,28,0,1,1,28-28A28.03,28.03,0,0,1,31.756,76.1ZM58.241,30.6l2.8-1.787,1.746,2.737L59.9,33.394A31.757,31.757,0,0,0,58.241,30.6Zm7.715,18.089H63.507q.005-.291.005-.584,0-1.345-.111-2.663h2.553Z" fill="#fff"/>
        </g>
      </g>
      <g id="Group_90" data-name="Group 90" transform="translate(7.784 24.132)">
        <g id="Group_89" data-name="Group 89" transform="translate(0 0)">
          <path id="Path_56" data-name="Path 56" d="M23.972,0A23.972,23.972,0,1,0,47.944,23.972,24,24,0,0,0,23.972,0Zm1.879,44.1V42.943a1.879,1.879,0,1,0-3.758,0V44.1A20.25,20.25,0,0,1,3.845,25.851H5a1.879,1.879,0,1,0,0-3.758H3.845A20.25,20.25,0,0,1,22.093,3.845V5a1.879,1.879,0,1,0,3.758,0V3.845A20.25,20.25,0,0,1,44.1,22.093H42.943a1.879,1.879,0,1,0,0,3.758H44.1A20.25,20.25,0,0,1,25.851,44.1Z" transform="translate(0 0)" fill="#fff"/>
        </g>
      </g>
    </g>
    <g id="Layer_6" data-name="Layer 6" transform="translate(630.293 402.932)">
      <path id="Path_13" data-name="Path 13" d="M77.543,54.682H76.288V45.158A13.037,13.037,0,0,0,71.595,35.12a13.225,13.225,0,0,0-2.836-1.769L68.521,32.1h2.748a3.764,3.764,0,0,0,3.764-3.764v-2.51a3.764,3.764,0,0,0-3.764-3.764H66.488l-1.38-6.964A10.038,10.038,0,0,0,55.257,7H24.54a10.039,10.039,0,0,0-9.851,8.1l-1.38,6.962H8.529a3.764,3.764,0,0,0-3.764,3.764v2.51A3.764,3.764,0,0,0,8.529,32.1H11.34L11.1,33.351A13.226,13.226,0,0,0,8.2,35.17,13.037,13.037,0,0,0,3.51,45.208v9.474H2.255A1.255,1.255,0,0,0,1,55.937v5.019a1.255,1.255,0,0,0,1.255,1.255H8.529v3.764a3.764,3.764,0,0,0,3.764,3.764H22.332A3.764,3.764,0,0,0,26.1,65.975V62.211H53.7v3.764a3.764,3.764,0,0,0,3.764,3.764H67.5a3.764,3.764,0,0,0,3.764-3.764V62.211h6.274A1.255,1.255,0,0,0,78.8,60.956V55.937A1.255,1.255,0,0,0,77.543,54.682ZM71.269,24.567a1.255,1.255,0,0,1,1.255,1.255v2.51a1.255,1.255,0,0,1-1.255,1.255h-3.3l-.991-5.019ZM55.257,9.51a7.529,7.529,0,0,1,5.6,2.51H18.944a7.529,7.529,0,0,1,5.6-2.51ZM8.529,29.586a1.255,1.255,0,0,1-1.255-1.255v-2.51a1.255,1.255,0,0,1,1.255-1.255H12.82l-.991,5.019Zm8.62-14a9.3,9.3,0,0,1,.3-1.054h44.9a9.3,9.3,0,0,1,.3,1.054L65.961,32.4a13.239,13.239,0,0,0-2.735-.3H16.572a13.238,13.238,0,0,0-2.735.3ZM6.019,45.158A10.54,10.54,0,0,1,16.572,34.605H63.225A10.54,10.54,0,0,1,73.778,45.158v9.524H51.192V43.389a3.764,3.764,0,0,0-3.764-3.764H32.37a3.764,3.764,0,0,0-3.764,3.764V54.682H6.019Zm42.663-.514H31.115V43.389a1.255,1.255,0,0,1,1.255-1.255H47.427a1.255,1.255,0,0,1,1.255,1.255Zm-17.567,2.51H48.682v2.51H31.115Zm0,5.019H48.682v2.51H31.115Zm-7.529,13.8a1.255,1.255,0,0,1-1.255,1.255H12.293a1.255,1.255,0,0,1-1.255-1.255V62.211H23.586Zm45.173,0A1.255,1.255,0,0,1,67.5,67.23H57.466a1.255,1.255,0,0,1-1.255-1.255V62.211H68.759ZM76.288,59.7H3.51v-2.51H76.288Z" transform="translate(-1 -7)" fill="#fff"/>
      <path id="Path_14" data-name="Path 14" d="M15.784,34C10.865,34,7,36.51,7,39.647s3.865,5.647,8.784,5.647,8.784-2.51,8.784-5.647S20.7,34,15.784,34Zm0,8.784c-3.7,0-6.274-1.656-6.274-3.137s2.572-3.137,6.274-3.137,6.274,1.656,6.274,3.137S19.548,42.784,15.784,42.784Z" transform="translate(0.529 -0.121)" fill="#fff"/>
      <path id="Path_15" data-name="Path 15" d="M51.784,45.293c4.919,0,8.784-2.51,8.784-5.647S56.7,34,51.784,34,43,36.51,43,39.647,46.865,45.293,51.784,45.293Zm0-8.784c3.764,0,6.274,1.656,6.274,3.137s-2.51,3.137-6.274,3.137-6.274-1.656-6.274-3.137S48.082,36.51,51.784,36.51Z" transform="translate(9.701 -0.121)" fill="#fff"/>
      <rect id="Rectangle_5" data-name="Rectangle 5" width="10.653" height="2.51" transform="translate(24.211 20.44) rotate(-45)" fill="#fff"/>
      <rect id="Rectangle_6" data-name="Rectangle 6" width="10.653" height="2.51" transform="translate(34.245 20.444) rotate(-45)" fill="#fff"/>
      <rect id="Rectangle_7" data-name="Rectangle 7" width="10.653" height="2.51" transform="translate(44.292 20.448) rotate(-45)" fill="#fff"/>
    </g>
    <g id="gym" transform="translate(724.454 292.585) rotate(-20)">
      <g id="Group_51" data-name="Group 51" transform="translate(0 0)">
        <path id="Path_19" data-name="Path 19" d="M89.446,59.122a1.33,1.33,0,0,0,1.33-1.33V55.22a4.582,4.582,0,0,0-4.425-4.715H84.2V47.781a3.461,3.461,0,0,0-3.457-3.457h-10.7a3.461,3.461,0,0,0-3.457,3.457v7.1a144.28,144.28,0,0,0-31.04,0v-7.1a3.461,3.461,0,0,0-3.457-3.457h-.846A145.821,145.821,0,0,0,53.035,28l4.174,5.738a3.462,3.462,0,0,0,4.83.762l8.656-6.3h0a3.462,3.462,0,0,0,.762-4.83l-1.6-2.2,1.74-1.266a4.582,4.582,0,0,0,.805-6.416L65.181,3.57A4.582,4.582,0,0,0,58.83,2.36L57.089,3.626l-1.6-2.2A3.461,3.461,0,0,0,50.657.66L42,6.956a3.462,3.462,0,0,0-.762,4.83l4.174,5.738a144.261,144.261,0,0,0-25.1,18.259l-3.07-4.221a5.342,5.342,0,0,0-7.451-1.176L4.168,34.475a5.34,5.34,0,0,0-1.176,7.451l.5.686-1.74,1.266a4.584,4.584,0,0,0-.805,6.416l7.218,9.923a4.833,4.833,0,0,0,3.181,1.96V67.49a4.582,4.582,0,0,0,4.425,4.715h2.152V74.93a3.461,3.461,0,0,0,3.457,3.457h10.7A3.461,3.461,0,0,0,35.54,74.93V67.835c3.779.44,8.027.716,12.391.8h.027a1.33,1.33,0,0,0,.026-2.659c-4.4-.089-8.674-.372-12.444-.823v-7.6a141.4,141.4,0,0,1,31.04,0v7.6c-3.77.451-8.044.734-12.444.823a1.33,1.33,0,0,0,.026,2.659h.027c4.364-.088,8.612-.364,12.391-.8V74.93a3.461,3.461,0,0,0,3.457,3.457h10.7A3.461,3.461,0,0,0,84.2,74.93V72.205h2.152a4.582,4.582,0,0,0,4.425-4.715V64a1.33,1.33,0,1,0-2.659,0V67.49a1.953,1.953,0,0,1-1.765,2.055H84.2V53.165h2.152a1.953,1.953,0,0,1,1.765,2.055v2.572A1.329,1.329,0,0,0,89.446,59.122ZM60.394,4.511a1.953,1.953,0,0,1,2.636.624l7.218,9.923a1.953,1.953,0,0,1-.219,2.7l-1.74,1.266L58.654,5.776Zm-17,5.711a.809.809,0,0,1,.176-1.115l8.656-6.3a.808.808,0,0,1,1.114.176L66.92,21.663h0l2.384,3.277a.809.809,0,0,1-.176,1.115l-8.656,6.3a.8.8,0,0,1-1.114-.176Zm3.6,9.467,4.473,6.149A141.315,141.315,0,0,1,26.357,44.1l-4.472-6.148A141.366,141.366,0,0,1,46.987,19.689ZM11.345,55.22v4.221a2.261,2.261,0,0,1-1.03-.79L3.1,48.728a1.939,1.939,0,0,1,.219-2.7l1.74-1.266,6.519,8.962A5.05,5.05,0,0,0,11.345,55.22Zm6.577,14.325H15.77A1.953,1.953,0,0,1,14,67.49V55.22a2.269,2.269,0,0,1,.457-1.36,1.67,1.67,0,0,1,1.308-.695h2.152v16.38Zm0-21.765v2.725H15.77c-.108,0-.215.005-.321.014l-.056,0a4.238,4.238,0,0,0-2.216.88L5.143,40.361a2.677,2.677,0,0,1,.589-3.735l5.621-4.089a2.684,2.684,0,0,1,3.735.59l8.144,11.2H21.379A3.462,3.462,0,0,0,17.922,47.781ZM32.88,74.93a.809.809,0,0,1-.8.8h-10.7a.809.809,0,0,1-.8-.8c0-1.252,0-26.333,0-27.149a.809.809,0,0,1,.8-.8h10.7a.809.809,0,0,1,.8.8Zm48.659,0a.809.809,0,0,1-.8.8h-10.7a.809.809,0,0,1-.8-.8V47.781a.809.809,0,0,1,.8-.8h10.7a.809.809,0,0,1,.8.8Z" fill="#fff"/>
      </g>
    </g>
    <g id="XMLID_1506_" transform="translate(1249.712 149.473)">
      <g id="XMLID_992_" transform="translate(0 0)">
        <path id="XMLID_995_" d="M92,56.357H89.308V39.381c0-2.4-2.42-4.35-5.4-4.35h-.9V24.146c0-1.951-1.6-3.606-3.8-4.156V8.378a1.159,1.159,0,0,0-.468-.9,3.629,3.629,0,0,0-.875-5.021L75.286.372a1.853,1.853,0,0,0-2.226,0L70.477,2.454A3.629,3.629,0,0,0,69.6,7.475a1.159,1.159,0,0,0-.468.9V19.8H61.3V8.378a1.159,1.159,0,0,0-.468-.9,3.629,3.629,0,0,0-.875-5.021L57.38.372a1.853,1.853,0,0,0-2.227,0L52.571,2.454A3.629,3.629,0,0,0,51.7,7.475a1.159,1.159,0,0,0-.468.9V19.8H43.4V8.378a1.159,1.159,0,0,0-.468-.9,3.629,3.629,0,0,0-.875-5.021L39.474.372a1.853,1.853,0,0,0-2.226,0L34.666,2.454a3.629,3.629,0,0,0-.875,5.021,1.159,1.159,0,0,0-.468.9v11.6c-2.219.54-3.84,2.2-3.84,4.165V35.03h-.9c-2.975,0-5.4,1.952-5.4,4.35V56.357H20.5a1.447,1.447,0,0,0-1.574,1.269c0,4.059,4.1,7.362,9.131,7.362H84.44c5.035,0,9.131-3.3,9.131-7.362A1.447,1.447,0,0,0,92,56.357ZM72.7,4.249l1.469-1.184,1.469,1.184a1.458,1.458,0,0,1,0,2.369,2.448,2.448,0,0,1-2.938,0A1.458,1.458,0,0,1,72.7,4.249Zm-.42,5.4h3.778V19.8H72.283ZM54.8,4.249l1.469-1.184,1.469,1.184a1.458,1.458,0,0,1,0,2.369,2.447,2.447,0,0,1-2.938,0A1.458,1.458,0,0,1,54.8,4.249Zm-.42,5.4h3.778V19.8H54.378Zm-17.906,0H40.25V19.8H36.472Zm.42-5.4,1.469-1.184L39.83,4.249a1.458,1.458,0,0,1,0,2.369,2.448,2.448,0,0,1-2.938,0A1.458,1.458,0,0,1,36.892,4.249Zm-4.26,19.9a2.067,2.067,0,0,1,2.247-1.811H77.615a2.067,2.067,0,0,1,2.247,1.811V35.03H32.632ZM28.581,37.569H83.912a2.067,2.067,0,0,1,2.247,1.811V40.8H83.236c-3.348,0-6.073,2.2-6.073,4.9v.749a2.992,2.992,0,0,1-5.847,0v-.749c0-2.7-2.724-4.9-6.072-4.9s-6.073,2.2-6.073,4.9v.749a2.992,2.992,0,0,1-5.847,0v-.749c0-2.7-2.724-4.9-6.073-4.9s-6.072,2.2-6.072,4.9v.749A2.69,2.69,0,0,1,38.255,48.8a2.69,2.69,0,0,1-2.924-2.357v-.749c0-2.7-2.724-4.9-6.073-4.9H26.334V39.381a2.067,2.067,0,0,1,2.247-1.811ZM84.44,62.449H28.054c-2.754,0-5.08-1.508-5.772-3.554H49.162a1.3,1.3,0,1,0,0-2.539H26.334V43.335h2.924a2.69,2.69,0,0,1,2.924,2.357v.749c0,2.7,2.724,4.9,6.072,4.9s6.072-2.2,6.072-4.9v-.749a2.69,2.69,0,0,1,2.924-2.357,2.69,2.69,0,0,1,2.924,2.357v.749c0,2.7,2.724,4.9,6.072,4.9s6.072-2.2,6.072-4.9v-.749a2.992,2.992,0,0,1,5.848,0v.749c0,2.7,2.724,4.9,6.072,4.9s6.072-2.2,6.072-4.9v-.749a2.69,2.69,0,0,1,2.924-2.357h2.924V56.357H63.331a1.3,1.3,0,1,0,0,2.539H90.212C89.519,60.941,87.194,62.449,84.44,62.449Z" transform="translate(-18.923 0)" fill="#fff"/>
      </g>
    </g>
    <g id="iphone_2_" data-name="iphone (2)" transform="translate(1009.859 242.562)">
      <g id="Group_60" data-name="Group 60" transform="translate(0)">
        <g id="Group_59" data-name="Group 59" transform="translate(0)">
          <path id="Path_23" data-name="Path 23" d="M162.894,0H127.4A7.4,7.4,0,0,0,120,7.4V87.267a7.4,7.4,0,0,0,7.4,7.4h35.5a7.4,7.4,0,0,0,7.4-7.4V7.4A7.4,7.4,0,0,0,162.894,0Zm4.437,87.267a4.437,4.437,0,0,1-4.437,4.437H127.4a4.437,4.437,0,0,1-4.437-4.437V78.392h44.373Zm0-11.833H122.958V16.27h44.373Zm0-62.122H122.958V7.4A4.437,4.437,0,0,1,127.4,2.958h35.5A4.437,4.437,0,0,1,167.331,7.4Z" transform="translate(-120)" fill="#fff"/>
        </g>
      </g>
      <g id="Group_62" data-name="Group 62" transform="translate(20.707 79.872)">
        <g id="Group_61" data-name="Group 61" transform="translate(0)">
          <path id="Path_24" data-name="Path 24" d="M236.437,432a4.437,4.437,0,1,0,4.437,4.437A4.437,4.437,0,0,0,236.437,432Zm0,5.916a1.479,1.479,0,1,1,1.479-1.479A1.479,1.479,0,0,1,236.437,437.916Z" transform="translate(-232 -432)" fill="#fff"/>
        </g>
      </g>
      <g id="Group_64" data-name="Group 64" transform="translate(17.749 7.396)">
        <g id="Group_63" data-name="Group 63" transform="translate(0)">
          <path id="Path_25" data-name="Path 25" d="M229.312,40H217.479a1.479,1.479,0,0,0,0,2.958h11.833a1.479,1.479,0,1,0,0-2.958Z" transform="translate(-216 -40)" fill="#fff"/>
        </g>
      </g>
      <g id="Group_66" data-name="Group 66" transform="translate(39.936 69.518)">
        <g id="Group_65" data-name="Group 65" transform="translate(0)">
          <path id="Path_26" data-name="Path 26" d="M338.958,376h-1.479a1.479,1.479,0,1,0,0,2.958h1.479a1.479,1.479,0,1,0,0-2.958Z" transform="translate(-336 -376)" fill="#fff"/>
        </g>
      </g>
      <g id="Group_68" data-name="Group 68" transform="translate(34.019 69.518)">
        <g id="Group_67" data-name="Group 67">
          <path id="Path_27" data-name="Path 27" d="M306.958,376h-1.479a1.479,1.479,0,0,0,0,2.958h1.479a1.479,1.479,0,0,0,0-2.958Z" transform="translate(-304 -376)" fill="#fff"/>
        </g>
      </g>
      <g id="Group_70" data-name="Group 70" transform="translate(28.103 69.518)">
        <g id="Group_69" data-name="Group 69">
          <path id="Path_28" data-name="Path 28" d="M274.958,376h-1.479a1.479,1.479,0,1,0,0,2.958h1.479a1.479,1.479,0,1,0,0-2.958Z" transform="translate(-272 -376)" fill="#fff"/>
        </g>
      </g>
    </g>
    <g id="audio-3" data-name="audio" transform="translate(402.686 470.197)">
      <g id="Group_49-3" data-name="Group 49" transform="translate(23.019 0) rotate(16)">
        <path id="Path_9-3" data-name="Path 9" d="M99.875,24.485v0C87.925,3.491,56.929-5.79,30.644,3.754,19.139,7.931,9.919,15.295,4.688,24.482A34.537,34.537,0,0,0,0,41.76V54.834a8.816,8.816,0,0,0,3.574,6.888l7.044,5.627.957,2.107c2.952,6.25,10.507,10.342,18.87,10.221.366,0,.737-.036,1.107-.05l.087.192c1.317,2.908,5.337,4.412,8.978,3.36h0L40.9,83.1c3.64-1.048,5.527-4.254,4.214-7.161h0l-13.8-30.479c-1.328-2.9-5.341-4.4-8.982-3.36l-.282.082c-3.094.883-5,3.372-4.564,5.973a17.958,17.958,0,0,0-6.838,6.807,1.175,1.175,0,0,1-.19-.6V41.76c0-18.447,18.726-33.4,41.825-33.4s41.825,14.954,41.825,33.4v12.6a1.081,1.081,0,0,1-.073.291,18.138,18.138,0,0,0-6.669-6.5c.43-2.6-1.469-5.086-4.561-5.97l-.289-.084c-3.639-1.042-7.648.459-8.972,3.36L59.737,75.933c-1.314,2.906.571,6.112,4.21,7.162l.286.083c3.641,1.049,7.659-.455,8.979-3.361l.087-.192c.368.014.741.05,1.107.05,8.363.121,15.917-3.97,18.87-10.219l1.117-2.466,6.6-5.269a8.816,8.816,0,0,0,3.574-6.886V41.76A34.537,34.537,0,0,0,99.875,24.485ZM21.239,46.244a3.318,3.318,0,0,1,2-1.45l.282-.082a3.826,3.826,0,0,1,4.519,1.69l13.8,30.479c.659,1.458-.287,3.067-2.113,3.593h0l-.286.082a3.831,3.831,0,0,1-4.517-1.69L34.4,77.7l-13.28-29.32A2.275,2.275,0,0,1,21.239,46.244Zm-2.659,4.737v-.006L30.323,76.893c-6.313.058-12.109-2.779-14.909-7.3h.27c.174,0,.331-.026.5-.039s.286-.013.429-.032a6.55,6.55,0,0,0,.674-.139c.125-.031.251-.05.373-.088a5.98,5.98,0,0,0,.678-.27c.1-.046.211-.079.31-.131,2.518-1.3,3.242-3.978,1.618-5.989a4.689,4.689,0,0,0-.733-.723l-6.244-4.991A14.033,14.033,0,0,1,18.579,50.982ZM6.971,41.76v12.6A3.775,3.775,0,0,0,8.5,57.307l8.564,6.84a1.35,1.35,0,0,1,0,2.207,2.317,2.317,0,0,1-2.764,0l-8.264-6.6a6.294,6.294,0,0,1-2.553-4.918V41.76A32.073,32.073,0,0,1,7.41,26.451h3.81A30.3,30.3,0,0,0,6.971,41.76ZM52.282,5.575c-16.188,0-31.146,6.9-39.244,18.092H9.062c12.511-19.062,42-26.416,65.872-16.425C83.721,10.921,90.9,16.651,95.5,23.668H91.526C83.428,12.474,68.47,5.578,52.282,5.575ZM72.353,73.53l-1.891,4.175-.523,1.165a3.826,3.826,0,0,1-4.519,1.691h0l-.286-.084c-1.828-.526-2.777-2.135-2.119-3.595L76.819,46.4a3.819,3.819,0,0,1,4.511-1.691h0l.289.083c1.827.524,2.776,2.132,2.119,3.591l0,0Zm2.184,3.362,7.7-17.005,4.034-8.907A14.148,14.148,0,0,1,91.5,57.02l-6.459,5.159a3.761,3.761,0,0,0,0,6.143,5.382,5.382,0,0,0,.922.585c.11.056.225.093.338.139a6.124,6.124,0,0,0,.7.262c.136.04.274.067.413.1a6.661,6.661,0,0,0,.683.124c.148.017.295.025.443.033.12,0,.237.028.349.028s.211-.019.317-.025.174.008.253,0C86.666,74.1,80.862,76.95,74.536,76.893Zm26.542-22.059a6.3,6.3,0,0,1-2.553,4.92L91.657,65.24l-1.394,1.113a2.317,2.317,0,0,1-2.764,0,1.35,1.35,0,0,1,0-2.207l8.564-6.84a3.78,3.78,0,0,0,1.53-2.95V41.76a30.3,30.3,0,0,0-4.249-15.309h3.81a32.073,32.073,0,0,1,3.925,15.309Z" transform="translate(0 0)" fill="#fff"/>
      </g>
    </g>
    <g id="hat" transform="translate(902.416 115.564)">
      <g id="Group_52" data-name="Group 52" transform="translate(0)">
        <path id="Path_20" data-name="Path 20" d="M70.41,136.453a30.455,30.455,0,0,0-9.247-4.531C60.564,101.917,53.987,94.5,47.4,94.5c-4.575.011-9.027,3.745-11.455,5.783-.605.509-1.066.9-1.28,1.061-1.417.817-3.44.34-5.559-.159a18.845,18.845,0,0,0-4.555-.721c-5.662.074-10.712,4.9-11.084,31.491a30.408,30.408,0,0,0-9.233,4.52C1.52,138.6,0,141.142,0,144.06c0,4.753,4.417,8.775,11.551,11.438,6.625,2.462,15.735,3.989,25.772,3.989S56.478,157.96,63.1,155.5c7.135-2.653,11.551-6.684,11.551-11.438C74.648,141.132,73.1,138.564,70.41,136.453Zm-45.834-31.99h0a17.962,17.962,0,0,1,4.128.658c2.449.584,4.816,1.135,6.88-.064a14.158,14.158,0,0,0,1.617-1.252c2.208-1.857,6.268-5.305,10.189-5.305,5.607,0,11.2,7.427,11.2,37.974,0,1.273-2.147,2.706-5.614,3.989a46.572,46.572,0,0,1-15.652,2.44,46.536,46.536,0,0,1-15.659-2.4c-3.44-1.294-5.614-2.727-5.614-3.989v-.191C15.927,109.269,19.986,104.527,24.575,104.463Zm37.909,47.109c-6.412,2.387-15.308,3.862-25.16,3.862s-18.748-1.475-25.16-3.862c-5.9-2.2-9.549-4.881-9.549-7.533,0-1.231,1-2.6,2.793-3.989a27.53,27.53,0,0,1,8.043-3.989v.446c0,3.374,2.91,6.143,7.609,7.894a48.283,48.283,0,0,0,16.264,2.536A48.279,48.279,0,0,0,53.6,144.41c4.706-1.751,7.609-4.52,7.609-7.894v-.446a27.546,27.546,0,0,1,8.029,3.989c1.8,1.39,2.8,2.759,2.8,4C72.033,146.692,68.387,149.376,62.484,151.572Z" transform="translate(0 -94.5)" fill="#fff"/>
      </g>
    </g>
    <g id="muscle" transform="translate(1798.53 292.95)">
      <g id="Group_73" data-name="Group 73" transform="translate(1.104 1.19)">
        <path id="Path_31" data-name="Path 31" d="M39.223,70.234a44.2,44.2,0,0,1-26.6-10.744.884.884,0,0,0-.6-.239H9.935a2.441,2.441,0,0,1-2.361-3.063C13.9,32.342,28.93,19.227,30.54,17.875a.884.884,0,0,0,.223-.286A18.239,18.239,0,0,1,42.387,8.109a.882.882,0,0,1,.842.232l9.918,9.918a.884.884,0,0,1-.095,1.332l-8.265,6.2a.884.884,0,0,1-1.218-.152L42.16,23.893a.882.882,0,0,0-1.117-.217,11.832,11.832,0,0,1-4.767,1.361.881.881,0,0,0-.8.778L33.488,43.051a.884.884,0,0,0,1.207.923A25.513,25.513,0,0,1,44.1,42.166,24.066,24.066,0,0,1,56.382,45.41a.882.882,0,0,0,1.271-.416c3.22-7.728,11.877-12.324,22.157-12.579a.885.885,0,0,1,.906.885V80.333a.884.884,0,0,1-.884.884H74.059c-6.657,0-12.458-5.542-15.5-13.743a.883.883,0,0,0-1.223-.488A35.9,35.9,0,0,1,39.223,70.234Z" transform="translate(-7.492 -8.081)" fill="#fff"/>
        <path id="Path_32" data-name="Path 32" d="M39.223,70.234a44.2,44.2,0,0,1-26.6-10.744.884.884,0,0,0-.6-.239H9.935a2.441,2.441,0,0,1-2.361-3.063C13.9,32.342,28.93,19.227,30.54,17.875a.884.884,0,0,0,.223-.286A18.239,18.239,0,0,1,42.387,8.109a.882.882,0,0,1,.842.232l9.918,9.918a.884.884,0,0,1-.095,1.332l-8.265,6.2a.884.884,0,0,1-1.218-.152L42.16,23.893a.882.882,0,0,0-1.117-.217,11.832,11.832,0,0,1-4.767,1.361.881.881,0,0,0-.8.778L33.488,43.051a.884.884,0,0,0,1.207.923A25.513,25.513,0,0,1,44.1,42.166,24.066,24.066,0,0,1,56.382,45.41a.882.882,0,0,0,1.271-.416c3.22-7.728,11.877-12.324,22.157-12.579a.885.885,0,0,1,.906.885V80.333a.884.884,0,0,1-.884.884H74.059c-6.657,0-12.458-5.542-15.5-13.743a.883.883,0,0,0-1.223-.488A35.9,35.9,0,0,1,39.223,70.234Z" transform="translate(-7.492 -8.081)" fill="#fff"/>
      </g>
      <path id="Path_38" data-name="Path 38" d="M74.327,24.411A31.1,31.1,0,0,0,59,28.14a19.847,19.847,0,0,0-8.657,9.319,25.1,25.1,0,0,0-12.624-3.284,25.757,25.757,0,0,0-9.476,1.749l1.089-9.44.837-7.249a12.494,12.494,0,0,0,4.865-1.386l1.825,2.26a1.1,1.1,0,0,0,1.523.19l9.763-7.322a1.105,1.105,0,0,0,.118-1.665L37.278.328A1.107,1.107,0,0,0,36.3.021a19.143,19.143,0,0,0-12.9,10.151,64.2,64.2,0,0,0-9.034,9.786A83.418,83.418,0,0,0,.121,49.008a3.548,3.548,0,0,0,3.427,4.46h2a39.192,39.192,0,0,0,7.848,5.459,1.1,1.1,0,1,0,1.05-1.944,40.849,40.849,0,0,1-5.571-3.608,1.1,1.1,0,0,0-.443-2.117H3.547a1.338,1.338,0,0,1-1.29-1.684A81.2,81.2,0,0,1,16.079,21.363q.613-.8,1.206-1.537l9.6,8.574-.994,8.611c-.32.171-.637.347-.947.533a1.1,1.1,0,1,0,1.139,1.894,22.858,22.858,0,0,1,11.634-3.054,21.717,21.717,0,0,1,13.93,4.7A1.1,1.1,0,0,0,53.077,39.4q-.418-.355-.862-.688C55.093,31.6,63.172,26.956,73.222,26.639V73.225H67.671c-6.029,0-11.528-5-14.5-13.123a26.527,26.527,0,0,0,5.9-4.955,13.456,13.456,0,0,1,1.942,6.98,1.1,1.1,0,1,0,2.21,0,15.666,15.666,0,0,0-3.1-9.372,1.094,1.094,0,0,0-.15-.2,15.732,15.732,0,0,0-12.5-6.179H42.6a1.1,1.1,0,1,0,0,2.21H47.48a13.513,13.513,0,0,1,10.269,4.726,24.313,24.313,0,0,1-6.373,5.3,1.079,1.079,0,0,0-.146.081c-4.959,2.809-11.088,4-18.326,3.55a44.76,44.76,0,0,1-14.369-3.315,1.1,1.1,0,0,0-.846,2.042A46.963,46.963,0,0,0,32.766,64.45q1.541.1,3.025.1A35.544,35.544,0,0,0,48.709,62.32q1.3-.5,2.515-1.123c3.33,8.817,9.548,14.237,16.447,14.237h6.656a1.1,1.1,0,0,0,1.1-1.1V25.516a1.1,1.1,0,0,0-1.1-1.1ZM36.151,2.326,45.8,11.973l-7.891,5.918-1.074-1.33A6.839,6.839,0,0,0,38.784,13.6a1.1,1.1,0,1,0-2.132-.581,5.048,5.048,0,0,1-1.964,2.441,1.112,1.112,0,0,0-.107.075h0a9.835,9.835,0,0,1-4.84,1.519L25.57,10.795A17.3,17.3,0,0,1,36.151,2.326ZM18.7,18.123a62.056,62.056,0,0,1,5.374-5.593l3.96,5.939-.836,7.243Z" transform="translate(0 -0.004)" fill="#fff"/>
    </g>
    <path id="ramen" d="M74.627,17.051l-.334-2.132a1.958,1.958,0,0,0-.888-1.33,2.463,2.463,0,0,0-1.693-.374l-39.136,5.3a6.73,6.73,0,0,1,.92-2.542c.074-.139.15-.289.227-.449L69.615,5.976a2.208,2.208,0,0,0,1.348-.981,1.788,1.788,0,0,0,.158-1.54L70.391,1.4A2.073,2.073,0,0,0,69.265.221,2.5,2.5,0,0,0,67.525.1l-10.7,3.13a.948.948,0,0,0-.694,1.222,1.128,1.128,0,0,0,1.379.615l10.7-3.13a.08.08,0,0,1,.059,0,.064.064,0,0,1,.038.04l.731,2.053a.058.058,0,0,1-.006.052.072.072,0,0,1-.046.033L34.593,13.275c.015-.049.027-.1.042-.148s.025-.089.037-.134q.032-.12.063-.24l.038-.152c.018-.076.036-.151.052-.227q.021-.089.039-.18c.014-.069.028-.137.042-.205s.027-.141.039-.212c.006-.036.014-.073.021-.108L52.65,6.493a.948.948,0,0,0,.694-1.222,1.128,1.128,0,0,0-1.379-.616L34.855,9.663a1.768,1.768,0,0,0-.469-.482A2.091,2.091,0,0,0,32.614,8.9l-1.8.526a1.729,1.729,0,0,0-1.3,1.463c-.011.12-.024.233-.04.343l-2.405.7a1.73,1.73,0,0,0-.363-.4,2.083,2.083,0,0,0-1.876-.356l-2,.586a1.815,1.815,0,0,0-1.175.992c-.134.307-.292.606-.446.9l-2.569.752a1.683,1.683,0,0,0-.224-.277,2.063,2.063,0,0,0-2.018-.482l-2.2.643a1.8,1.8,0,0,0-1.189,1.023c-.111.271-.207.547-.293.826l-2.456.719a1.764,1.764,0,0,0-.4-.427A2.067,2.067,0,0,0,8.02,16.1l-1.8.527a1.748,1.748,0,0,0-1.295,1.43q-.021.185-.038.375l-2.408.7a1.973,1.973,0,0,0-1.448,2.5l.17.478a2.1,2.1,0,0,0,1.209,1.212A1.811,1.811,0,0,0,2.1,24.648l.078.5a2.2,2.2,0,0,0,2.241,1.727,2.609,2.609,0,0,0,.279-.015l2.223-.247a6.258,6.258,0,0,1,.452,2.566,6.51,6.51,0,0,1-.985,3.65A13.533,13.533,0,0,0,5.343,35.17H1.725a1.836,1.836,0,0,0-1.279.5A1.424,1.424,0,0,0,.01,36.85,30.534,30.534,0,0,0,15.485,60.377v1.656a3.166,3.166,0,0,0,3.335,2.955H47.288a3.166,3.166,0,0,0,3.335-2.955V60.37A30.537,30.537,0,0,0,66.087,36.849a1.422,1.422,0,0,0-.437-1.177,1.833,1.833,0,0,0-1.277-.5H33.446l.049-.093a11.2,11.2,0,0,0,1.55-5.9,10.957,10.957,0,0,0-1.358-5.536l38.981-4.326a2.32,2.32,0,0,0,1.513-.769,1.822,1.822,0,0,0,.445-1.495ZM3.283,21.539l-.17-.478a.067.067,0,0,1,.049-.085l1.7-.5c0,.049.007.1.01.146,0,.03,0,.06.006.089.006.071.011.141.018.211a.08.08,0,0,0,0,.012c.007.079.014.159.023.237l-1.541.41a.08.08,0,0,1-.1-.045Zm1.141,3.4a.077.077,0,0,1-.086-.059l-.077-.5a.069.069,0,0,1,.064-.077l1.369-.185.015.033c.039.092.08.181.12.269.007.015.013.03.021.044.045.1.091.193.137.287l0,.01Zm25.355-8.78,0,0c.113-.3.238-.573.367-.838,0,0,0,0,0,0,.129-.264.263-.516.395-.763l.042-.079.064-.121.047-.09c.039-.076.079-.152.118-.229L30.83,14c.035-.07.069-.141.1-.212l.03-.063c.038-.08.075-.16.111-.243.009-.019.016-.038.024-.057q.044-.1.085-.206l.032-.081c.032-.082.063-.166.092-.252.011-.031.021-.063.031-.094.022-.066.043-.133.063-.2l.03-.1q.038-.137.073-.282c0-.014.007-.027.011-.041s0-.012,0-.019a7.986,7.986,0,0,0,.157-.932l1.205-.353c-.018.135-.036.27-.059.405,0,.022-.007.043-.011.065-.02.118-.041.234-.064.351-.006.033-.013.066-.019.1-.028.135-.057.269-.089.4l-.006.021c-.03.125-.063.248-.1.372l-.032.116c-.035.122-.071.243-.109.363l-.014.043q-.061.186-.126.371l-.026.074q-.072.2-.15.393c0,.009-.007.018-.011.026-.056.139-.114.277-.175.414v0c-.128.286-.255.544-.375.77a8.225,8.225,0,0,0-1.193,4.472c0,.011,0,.02,0,.03v0c0,.112,0,.221.006.328,0,.07.006.137.009.205,0,.04,0,.08.006.12,0,.078.01.155.017.231,0,.018,0,.035,0,.053a7.584,7.584,0,0,0,.365,1.791c0,.006,0,.012.006.018q.089.261.191.5l0,.007c.178.419.379.8.585,1.19a9.419,9.419,0,0,1,1.342,5.077,9.421,9.421,0,0,1-1.342,5.077c-.156.295-.316.595-.464.917h-1.24a14.42,14.42,0,0,1,.73-1.521,8.227,8.227,0,0,0,1.193-4.473A8.23,8.23,0,0,0,30.544,24.7a12.994,12.994,0,0,1-.824-1.769l0-.005a9.309,9.309,0,0,1-.509-2.856s0,0,0,0c0-.143-.007-.291-.007-.443a9.391,9.391,0,0,1,.577-3.469ZM26.1,35.077a11.2,11.2,0,0,0,1.55-5.9,10.909,10.909,0,0,0-.974-4.759l1.267-.14c.205.461.421.869.623,1.249a6.507,6.507,0,0,1,.985,3.649,6.51,6.51,0,0,1-.985,3.65,13.491,13.491,0,0,0-1.042,2.344H26.053l.049-.093Zm-.362-12.506-.023-.047c-.021-.043-.041-.087-.061-.132s-.036-.08-.053-.12c-.029-.067-.058-.135-.084-.2-.007-.017-.013-.034-.019-.05a5.407,5.407,0,0,1-.178-.558l1.785-.242c0,.012,0,.023.005.034q.033.274.077.53c0,.018.006.036.009.055q.047.269.1.518c0,.014.005.029.008.042Zm1.281-8.578,1.662-.486-.018.033q-.037.071-.075.142l-.023.043c-.158.3-.325.613-.489.957l-.011.023c-.05.106-.1.214-.149.326l-.01.024-1.538.409a12.3,12.3,0,0,0,.65-1.471Zm-1.693,3.769,1.9-.506a12.331,12.331,0,0,0-.205,2.014l-1.9.258a7.015,7.015,0,0,1,.21-1.767Zm-3.423.31,0-.007a8.454,8.454,0,0,1,.67-2.37l.01-.022c.048-.108.1-.213.148-.316l.025-.051.05-.1.025-.049.071-.139.017-.032.06-.116.169-.319c.157-.3.334-.628.494-.982l1.374-.4a11.91,11.91,0,0,1-.87,1.945l-.023.043c-.01.018-.019.036-.029.055-.023.043-.046.086-.069.13l-.058.11-.041.079c-.026.049-.051.1-.076.148l-.017.033a7.873,7.873,0,0,0-.9,3.917,10.608,10.608,0,0,0,.055,1.108v.006s0,.005,0,.007c.005.048.011.093.017.139s.013.105.019.156c.01.067.02.131.031.2,0,.023.007.046.011.069a7.279,7.279,0,0,0,.58,1.848l.025.054c.01.023.021.044.032.067.025.054.051.107.077.159l.015.03c.1.2.2.385.293.566h0l.035.066a9.421,9.421,0,0,1,1.342,5.077,9.419,9.419,0,0,1-1.342,5.077c-.157.295-.316.595-.465.917H22.42a14.533,14.533,0,0,1,.73-1.521,8.225,8.225,0,0,0,1.193-4.473A8.229,8.229,0,0,0,23.15,24.7c-.181-.341-.364-.685-.534-1.058a0,0,0,0,0,0,0,8.456,8.456,0,0,1-.733-2.648l0-.009a11.9,11.9,0,0,1-.073-1.36,11.637,11.637,0,0,1,.1-1.552Zm-.731,7.454a6.512,6.512,0,0,1,.985,3.649,6.515,6.515,0,0,1-.985,3.65,13.507,13.507,0,0,0-1.042,2.344H18.659l.049-.093a11.191,11.191,0,0,0,1.55-5.9,11.247,11.247,0,0,0-.652-3.974l1.32-.146c.083.162.166.319.247.471Zm-2.692-2.683,0,0c-.072-.142-.141-.282-.206-.424l1.6-.216c0,.016.008.032.011.048.031.142.064.281.1.415.008.03.017.061.024.091q.056.21.118.406l.01.034-1.389.154-.038-.072-.006-.012c-.076-.143-.15-.282-.22-.419Zm-.05-6.337,1.721-.5c-.042.126-.08.258-.118.393l-.009.029c-.05.179-.1.364-.138.559,0,.011,0,.023-.007.034-.013.062-.026.122-.039.185l-1.891.5a6.467,6.467,0,0,1,.481-1.2Zm1.2,2.772c0,.114,0,.228,0,.346,0,.223.005.438.014.646l-1.874.254q-.033-.339-.039-.74Zm-2.889-4.14.019.008-.009.013-.017-.007A.066.066,0,0,1,16.739,15.139ZM14.418,19.3c0-.065,0-.128.007-.191,0-.039,0-.079,0-.117,0-.076.009-.15.014-.223,0-.024,0-.047,0-.071.006-.078.013-.153.019-.228l.005-.053c.008-.077.016-.151.025-.225,0-.014,0-.029.006-.043.026-.207.058-.4.092-.581.009-.044.017-.088.026-.131l.022-.1c.015-.067.03-.133.046-.2a8.061,8.061,0,0,1,.329-1.043l1.443-.422a7.891,7.891,0,0,0-.923,3.957,7.9,7.9,0,0,0,.928,3.967l0,0c.043.083.085.166.128.248l0,.008c.043.082.087.165.13.247l.013.025.159.3.007.014q.089.17.177.347h0a9.077,9.077,0,0,1,.986,4.391,9.428,9.428,0,0,1-1.342,5.077c-.157.294-.316.595-.465.916h-1.24a14.419,14.419,0,0,1,.73-1.521,8.227,8.227,0,0,0,1.193-4.473A8.225,8.225,0,0,0,15.755,24.7l-.171-.325h0c-.042-.08-.084-.161-.126-.245l0-.007a8.966,8.966,0,0,1-.818-2.233l0-.011a10.369,10.369,0,0,1-.215-1.952v0c0-.1,0-.2,0-.3s0-.219,0-.326Zm-.478,6.532a6.238,6.238,0,0,1,.825,3.345,6.514,6.514,0,0,1-.985,3.65,13.533,13.533,0,0,0-1.042,2.344H11.265l.05-.093a11.2,11.2,0,0,0,1.55-5.9,11.849,11.849,0,0,0-.4-3.182Zm-1.208-2.665c0,.011.007.021.011.032q.062.192.127.373c.005.013.01.026.015.039q.069.188.142.365l0,.007-1.279.142v0c-.132-.272-.266-.527-.395-.769Zm-.407-1.9-.308.041.3-.081C12.322,21.237,12.324,21.25,12.326,21.263Zm-1.99-2c0-.016,0-.031,0-.046q.007-.17.02-.331l0-.021L12.29,18.3c0,.026,0,.052-.006.078-.005.062-.01.124-.014.186q-.013.174-.022.352c0,.063-.006.127-.008.19,0,.039,0,.077-.005.116l-1.9.507c0-.036,0-.071,0-.107C10.329,19.5,10.332,19.384,10.336,19.267ZM7.2,21.71s0-.007,0-.01a9.809,9.809,0,0,1-.137-.99c0-.006,0-.012,0-.017-.006-.072-.012-.144-.017-.217L7.043,20.4c0-.054-.006-.11-.009-.166,0-.03,0-.061,0-.091,0-.057,0-.114-.005-.172,0-.028,0-.056,0-.083,0-.086,0-.172,0-.259s0-.167,0-.249c0-.061,0-.121,0-.18.009-.268.026-.53.051-.782l1.179-.345c-.013.081-.023.164-.034.247,0,.027-.008.054-.011.082-.011.1-.021.2-.028.3,0,.033-.007.066-.009.1-.007.1-.013.2-.017.3,0,.036,0,.072-.006.109q-.008.207-.007.424t.006.4a7.881,7.881,0,0,0,1.036,3.787l.015.03.135.255.007.013c.055.1.111.209.166.316l0,.006c.176.337.351.688.509,1.073h0a9.265,9.265,0,0,1,.657,3.669,9.421,9.421,0,0,1-1.342,5.077c-.157.295-.316.595-.465.917H7.633a14.419,14.419,0,0,1,.73-1.521,8.232,8.232,0,0,0,1.193-4.473,8.221,8.221,0,0,0-1.19-4.467l0-.006c-.031-.057-.061-.115-.091-.172l-.032-.06-.1-.184-.021-.039c-.034-.066-.068-.133-.1-.2l-.013-.025c-.036-.072-.072-.145-.107-.22l0-.01a9.17,9.17,0,0,1-.416-1.024l0-.007A8.27,8.27,0,0,1,7.2,21.71Zm56.656,15.4A28.63,28.63,0,0,1,49.289,58.829H26.94a.975.975,0,1,0,0,1.935h21.5v1.269a1.092,1.092,0,0,1-1.15,1.02H18.82a1.093,1.093,0,0,1-1.151-1.02V60.764h4.189a.975.975,0,1,0,0-1.935H16.807A28.63,28.63,0,0,1,2.237,37.106Zm8.589-19.738a.078.078,0,0,1-.052.026L32.812,21.786a5.921,5.921,0,0,1-.263-1.306l39.493-5.353a.081.081,0,0,1,.058.013.063.063,0,0,1,.03.045l.334,2.132a.058.058,0,0,1-.015.05Zm0,0" transform="translate(641.718 99.324)" fill="#fff"/>
    <g id="turban" transform="translate(1590.745 640.003) rotate(-13)">
      <g id="Group_76" data-name="Group 76" transform="translate(65.235 48.797)">
        <g id="Group_75" data-name="Group 75" transform="translate(0 0)">
          <path id="Path_49" data-name="Path 49" d="M2.91,1.182A1.484,1.484,0,0,0,2.826.908,1.461,1.461,0,0,0,2.691.653,1.407,1.407,0,0,0,2.509.43,1.391,1.391,0,0,0,2.285.248,1.449,1.449,0,0,0,2.031.112,1.488,1.488,0,0,0,1.756.029a1.455,1.455,0,0,0-.575,0A1.555,1.555,0,0,0,.907.112,1.489,1.489,0,0,0,.654.248,1.405,1.405,0,0,0,.431.43,1.483,1.483,0,0,0,.247.653,1.453,1.453,0,0,0,.112.908a1.474,1.474,0,0,0-.084.275A1.446,1.446,0,0,0,0,1.469a1.484,1.484,0,0,0,.028.288,1.556,1.556,0,0,0,.084.275,1.468,1.468,0,0,0,.319.476,1.465,1.465,0,0,0,.476.319,1.553,1.553,0,0,0,.275.084,1.473,1.473,0,0,0,.288.028,1.445,1.445,0,0,0,.287-.028,1.483,1.483,0,0,0,.275-.084,1.441,1.441,0,0,0,.254-.135,1.5,1.5,0,0,0,.224-.184,1.408,1.408,0,0,0,.182-.223,1.5,1.5,0,0,0,.135-.253,1.556,1.556,0,0,0,.084-.275,1.464,1.464,0,0,0,.029-.288A1.438,1.438,0,0,0,2.91,1.182Z" transform="translate(0 0)" fill="#fff"/>
        </g>
      </g>
      <g id="Group_78" data-name="Group 78" transform="translate(0 0)">
        <g id="Group_77" data-name="Group 77" transform="translate(0)">
          <path id="Path_50" data-name="Path 50" d="M69.962,18.324,60.315,7.968a7.526,7.526,0,0,0-6.171-2.4A7.427,7.427,0,0,0,53.4,3.7,7.216,7.216,0,0,0,47.048,0H31.356A21.964,21.964,0,0,0,12.812,10.117l-9.719,15.1A19.528,19.528,0,0,0,.59,40.521L6.542,64.058a1.47,1.47,0,0,0,2.47.673L24.948,48.61H54.774L69.722,64.7a1.47,1.47,0,0,0,2.54-.86l2.9-30.191A19.726,19.726,0,0,0,69.962,18.324ZM26.822,42.461l-.389.413q-.4.422-.8.84c-.116.121-.232.243-.349.364q-.574.593-1.152,1.179l-.84.85L8.753,60.812,5.845,49.31l4.393-4.444A154.727,154.727,0,0,0,32.987,15.5,1.47,1.47,0,0,0,30.463,14,151.78,151.78,0,0,1,8.147,42.8L5,45.98,3.44,39.8A16.579,16.579,0,0,1,5.565,26.807l9.719-15.1A19.038,19.038,0,0,1,31.356,2.939H47.048a4.357,4.357,0,0,1,3.74,6.593L47.35,15.286q-.387.648-.788,1.3l-.2.326q-.319.519-.644,1.039l-.184.294q-.393.625-.794,1.251l-.028.044-.161.248-3.976-2.3a1.47,1.47,0,0,0-1.47,0l-7.75,4.474a1.47,1.47,0,0,0-.735,1.273V34.3a1.47,1.47,0,0,0,.735,1.273l1.063.614q-1.1,1.307-2.239,2.592l-.221.249q-.437.493-.878.982l-.325.36q-.394.434-.791.865l-.375.406Q27.206,42.054,26.822,42.461Zm19.3-18.371v9.363L44.184,34.57l-4.345,2.509L35.4,34.517l-1.842-1.063V24.09l6.28-3.626,4.447,2.568h0ZM27.83,45.671h0q.35-.364.7-.732l.2-.214q.53-.562,1.056-1.129l.4-.436q.337-.367.673-.736l.461-.509q.319-.354.635-.71.359-.4.715-.808.321-.365.64-.732.295-.34.587-.682l.4-.471q.319-.374.635-.75L35,37.682l4.1,2.367a1.47,1.47,0,0,0,1.47,0L44.639,37.7l7.4,7.969H27.83Zm44.405-12.3L69.648,60.3l-22.4-24.107,1.072-.619a1.47,1.47,0,0,0,.735-1.273v-.871L61.31,46.619a1.47,1.47,0,0,0,2.154-2L49.057,29.112V23.242a1.47,1.47,0,0,0-.735-1.273L47.1,21.262c.136-.211.269-.422.4-.633q.224-.351.445-.7l.352-.562q.259-.415.514-.828c.094-.153.189-.306.282-.458q.394-.645.778-1.286l3.439-5.754,0,0c.073-.123.142-.248.207-.374q.032-.062.063-.124.069-.138.132-.279c.019-.042.039-.084.057-.127q.073-.171.136-.345c.026-.07.05-.141.073-.212q.027-.08.051-.161a7.224,7.224,0,0,0,.208-.856c0-.014.006-.028.008-.042a4.616,4.616,0,0,1,3.913,1.456l9.647,10.357A16.783,16.783,0,0,1,72.235,33.367Z" fill="#fff"/>
        </g>
      </g>
      <g id="Group_80" data-name="Group 80" transform="translate(33.409 8.004)">
        <g id="Group_79" data-name="Group 79" transform="translate(0 0)">
          <path id="Path_51" data-name="Path 51" d="M2.911,1.182A1.485,1.485,0,0,0,2.828.908,1.452,1.452,0,0,0,2.692.653,1.5,1.5,0,0,0,2.509.43,1.411,1.411,0,0,0,2.285.248,1.487,1.487,0,0,0,2.033.112,1.55,1.55,0,0,0,1.758.029a1.455,1.455,0,0,0-.575,0A1.477,1.477,0,0,0,.908.112,1.5,1.5,0,0,0,.654.248,1.428,1.428,0,0,0,.248.653,1.449,1.449,0,0,0,.113.908a1.485,1.485,0,0,0-.084.275A1.448,1.448,0,0,0,0,1.469a1.474,1.474,0,0,0,.029.288,1.549,1.549,0,0,0,.084.275,1.49,1.49,0,0,0,.135.253,1.407,1.407,0,0,0,.182.223,1.449,1.449,0,0,0,.478.319,1.48,1.48,0,0,0,.275.084,1.446,1.446,0,0,0,.286.028,1.478,1.478,0,0,0,1.039-.431,1.463,1.463,0,0,0,.319-.476,1.556,1.556,0,0,0,.084-.275,1.471,1.471,0,0,0,.028-.288A1.446,1.446,0,0,0,2.911,1.182Z" fill="#fff"/>
        </g>
      </g>
    </g>
    <path id="twitter" d="M75.264,8.227c-4.734.218-4.631.2-5.166.245L72.9.465s-8.752,3.22-10.971,3.8A17.56,17.56,0,0,0,41.25,2.6a14.323,14.323,0,0,0-6.885,14.728A38.2,38.2,0,0,1,9.615,3.392L7.539.9,5.987,3.747A17.218,17.218,0,0,0,4.153,15.338a16.653,16.653,0,0,0,1.614,4.525l-1.781-.69-.211,2.976a15.88,15.88,0,0,0,2.693,9.44,16.785,16.785,0,0,0,2.1,2.587l-.92-.141,1.123,3.41a16.579,16.579,0,0,0,8.522,9.874c-3.974,1.686-7.185,2.763-12.462,4.5L0,53.4l4.459,2.438A46.807,46.807,0,0,0,18.1,60.809c13.2,2.069,28.052.384,38.054-8.624,8.424-7.587,11.189-18.38,10.614-29.611a7.017,7.017,0,0,1,1.312-4.569c1.868-2.494,7.169-9.762,7.18-9.778ZM64.558,15.364A11.427,11.427,0,0,0,62.372,22.8c.579,11.329-2.5,20.114-9.162,26.112-7.779,7.006-20.326,9.756-34.424,7.545a34.137,34.137,0,0,1-7.375-2.192A116.949,116.949,0,0,0,24.77,48.773l7.7-3.646-8.5-.544a12.027,12.027,0,0,1-9.55-5.44,15.253,15.253,0,0,0,3.237-.54l8.111-2.259-8.179-2a12.181,12.181,0,0,1-7.44-5.175,12.475,12.475,0,0,1-1.612-3.558,20.417,20.417,0,0,0,3.318.529l7.57.749-6-4.679A12.625,12.625,0,0,1,8.641,8.9C22.129,22.894,37.965,21.843,39.558,22.212a26.11,26.11,0,0,0-.452-3.74c-2.041-7.216,2.432-10.88,4.45-12.121C47.772,3.761,54.462,3.37,59.1,7.638a3.946,3.946,0,0,0,3.621.969A30.476,30.476,0,0,0,65.7,7.7L63.8,13.13l2.428,0c-.458.614-1.008,1.35-1.669,2.232Zm0,0" transform="translate(1127.047 723.642)" fill="#fff"/>
    <g id="bike" transform="translate(878.483 611.781)">
      <path id="Path_10" data-name="Path 10" d="M76.169,23.114a4.73,4.73,0,0,0,2.068-2.833,6.162,6.162,0,0,0-.378-4.448l-6.795-13.5A3.86,3.86,0,0,0,67.7,0H65.117a1.221,1.221,0,0,0-1.045.692,1.971,1.971,0,0,0-.145,1.479l1.394,4.7H62.4a1.469,1.469,0,0,0-1.271,1.607A1.469,1.469,0,0,0,62.4,10.082h3.874l.352,1.186a2.213,2.213,0,0,1-.165,1.683,1.371,1.371,0,0,1-1.188.787H58.237v-.111c0-4.673-3.008-8.475-6.7-8.475h-5.7a10.711,10.711,0,0,0-7.583,3.362L34.786,12.02H29.04a2.622,2.622,0,0,1-2.19-1.33L24.271,6.615a6.269,6.269,0,0,0-5.235-3.181H10.78a1.334,1.334,0,0,0-1.2,1.091,1.873,1.873,0,0,0,.431,1.791L33.9,29.432l-3.442,4.932-4.073-2.871a2.136,2.136,0,0,0-2-.29,2.823,2.823,0,0,0-1.576,1.582l-1.319,3a4.084,4.084,0,0,0-.23,2.527,3.832,3.832,0,0,0,.293.835,10.959,10.959,0,0,1,.178,1.953c0,4.8-3.086,8.7-6.88,8.7s-6.88-3.9-6.88-8.7,3.086-8.7,6.88-8.7a5.682,5.682,0,0,1,3.094.927,1.161,1.161,0,0,0,1.707-.711,1.826,1.826,0,0,0-.562-2.158,7.785,7.785,0,0,0-4.239-1.271c-5.195,0-9.422,5.343-9.422,11.91s4.226,11.91,9.422,11.91c5.077,0,9.226-5.1,9.413-11.464L27.023,43.5c-.918,7.561-6.04,13.167-12.167,13.167-6.789,0-12.313-6.982-12.313-15.565S8.066,25.538,14.855,25.538a10.5,10.5,0,0,1,6.706,2.509,1.123,1.123,0,0,0,1.758-.47,1.878,1.878,0,0,0-.372-2.223,12.676,12.676,0,0,0-8.092-3.028C6.664,22.324,0,30.749,0,41.1S6.664,59.882,14.855,59.882A13.268,13.268,0,0,0,24.844,55a20.3,20.3,0,0,0,4.515-9.846l3.706,2.627A5.278,5.278,0,0,0,37.75,51.3H54.829a4.822,4.822,0,0,0,3.743-1.919c2.457,6.326,7.6,10.505,13.337,10.505,8.191,0,14.855-8.424,14.855-18.779,0-8.484-4.474-15.669-10.595-17.99Zm-4.26,16.162A1.878,1.878,0,1,1,70.463,41.1,1.673,1.673,0,0,1,71.909,39.275ZM39.841,11.023a8.469,8.469,0,0,1,5.995-2.658h5.7c2.3,0,4.163,2.361,4.163,5.262v.111H46.482a5.776,5.776,0,0,0-3.9,1.579l-3.1,2.8-2.495-4.209ZM19.036,6.648a3.892,3.892,0,0,1,3.251,1.975L24.865,12.7a5,5,0,0,0,4.175,2.536H34.6l8.309,13.987a4.9,4.9,0,0,0-3.175,1.8L14.532,6.648ZM43.382,32.407c1.546,0,2.8,1.59,2.8,3.545s-1.258,3.545-2.8,3.545-2.8-1.59-2.8-3.545S41.836,32.407,43.382,32.407ZM35.929,31.39l2.408,2.329a8.344,8.344,0,0,0-.3,2.232c0,.007,0,.014,0,.022l-2.346,2.076-2.956-2.083ZM23.716,37.348l1.319-3a.092.092,0,0,1,.052-.053.069.069,0,0,1,.065.009l8.223,5.8-.63.558A3.6,3.6,0,0,0,31.64,43.09L23.751,37.5a.1.1,0,0,1-.042-.066A.129.129,0,0,1,23.716,37.348ZM54.828,48.083H37.75a2.8,2.8,0,0,1-2.508-1.96l-1.066-2.7a.13.13,0,0,1,.028-.14l4.528-4.007a5.3,5.3,0,0,0,4.65,3.43c2.948,0,5.346-3.032,5.346-6.758a7.893,7.893,0,0,0-1.188-4.241l-3.274-5.522,2.6-2.347a.076.076,0,0,1,.051-.021H59.683a1.469,1.469,0,0,0,1.271-1.607,1.469,1.469,0,0,0-1.271-1.607H46.916a2.267,2.267,0,0,0-1.528.619l-2.647,2.39L41.007,20.69l3.055-2.758a3.587,3.587,0,0,1,2.419-.98h18.79a3.83,3.83,0,0,0,3.278-2.17A6.187,6.187,0,0,0,69,10.141L66.95,3.214h.75a1.4,1.4,0,0,1,1.22.847l6.795,13.5a2.234,2.234,0,0,1,.137,1.613,1.642,1.642,0,0,1-.932,1.115L67.177,23.3c-4.417,1.718-7.725,6.559-8.427,12.333L57.6,45.077c-.211,1.741-1.377,3.006-2.771,3.006Zm17.08,8.586c-5.448,0-10.248-4.543-11.8-11.1v0l1.15-9.446a12.349,12.349,0,0,1,5.26-9.043l1,3.484c-3.084,2.047-5.037,6.083-5.037,10.543,0,6.567,4.227,11.91,9.422,11.91S81.33,47.67,81.33,41.1c0-4.443-1.935-8.486-5.049-10.552a1.154,1.154,0,0,0-1.716.676A1.835,1.835,0,0,0,75.1,33.4,9.191,9.191,0,0,1,78.788,41.1c0,4.8-3.086,8.7-6.88,8.7s-6.88-3.9-6.88-8.7A9.328,9.328,0,0,1,68.4,33.618l1.02,3.547a5.61,5.61,0,0,0-1.5,3.938c0,2.78,1.789,5.041,3.988,5.041S75.9,43.883,75.9,41.1s-1.789-5.041-3.988-5.041c-.033,0-.065,0-.1,0L68.917,26a9.913,9.913,0,0,1,2.991-.465c6.789,0,12.313,6.983,12.313,15.566S78.7,56.669,71.909,56.669Z" transform="matrix(0.951, -0.309, 0.309, 0.951, 0, 26.812)" fill="#fff"/>
    </g>
    <g id="man-2" data-name="man" transform="translate(613.8 683.363) rotate(-45)">
      <g id="Group_71-2" data-name="Group 71" transform="translate(0 0)">
        <path id="Path_30-2" data-name="Path 30" d="M89.591,8.054A1.615,1.615,0,0,0,89,6.9a1.649,1.649,0,0,0-2.313.171h0c-7.2,8.3-12.275,4.284-17.912-.129C64.515,3.582,59.966.009,53.984.009a13.957,13.957,0,0,0-5.827,1.242A12.34,12.34,0,0,0,44.92,3.385a12.346,12.346,0,0,0-3.237-2.142A13.957,13.957,0,0,0,35.856,0C29.814,0,24.505,3.607,19.585,6.932c-1.631,1.105-3.211,2.185-4.713,3.042-4.316,2.459-8.14,3.17-11.524-2.57a1.637,1.637,0,0,0-2.2-.684A1.619,1.619,0,0,0,.283,7.951a24.6,24.6,0,0,0,.2,8.568,13.85,13.85,0,0,0,5.231,8.363,18.936,18.936,0,0,0,8.995,3.376A43.407,43.407,0,0,0,29.27,27.3a39.039,39.039,0,0,0,10.246-3.616,21.138,21.138,0,0,0,5.4-4.07,21.152,21.152,0,0,0,5.4,4.07,39.033,39.033,0,0,0,10.229,3.624,43.4,43.4,0,0,0,14.58.951,18.937,18.937,0,0,0,9.012-3.367,13.85,13.85,0,0,0,5.231-8.363A24.48,24.48,0,0,0,89.591,8.054Zm-3.427,7.772a10.69,10.69,0,0,1-4.014,6.46,15.72,15.72,0,0,1-7.458,2.75,40.151,40.151,0,0,1-13.44-.917,35.789,35.789,0,0,1-9.374-3.307,16.071,16.071,0,0,1-5.619-4.7,1.646,1.646,0,0,0-2.71,0,16.1,16.1,0,0,1-5.6,4.678,35.8,35.8,0,0,1-9.374,3.307,40.15,40.15,0,0,1-13.44.917,15.715,15.715,0,0,1-7.458-2.75A10.69,10.69,0,0,1,3.659,15.8a17.234,17.234,0,0,1-.388-3.145c4.031,3.993,8.425,2.845,13.224.1,1.606-.925,3.237-2.022,4.912-3.162,4.523-3.05,9.426-6.34,14.45-6.34a10.679,10.679,0,0,1,4.463.934,8.821,8.821,0,0,1,3.315,2.57,1.637,1.637,0,0,0,2.59,0,8.829,8.829,0,0,1,3.3-2.57,10.679,10.679,0,0,1,4.463-.934c4.851,0,8.926,3.2,12.758,6.221C73.009,14.4,78.706,18.9,86.6,11.867A17.976,17.976,0,0,1,86.164,15.826Z" transform="translate(0 0)" fill="#fff"/>
      </g>
    </g>
    <path id="ball" d="M37.324,0C16.711,0,0,14.548,0,32.494S16.711,64.987,37.324,64.987,74.648,50.439,74.648,32.494C74.625,14.557,57.927.02,37.324,0Zm28.9,15.586-2.587,9.573L50.014,29.113,38.568,21.143V9.4L51.631,4.849a34.272,34.272,0,0,1,14.6,10.737Zm.208,33.528L54.1,50.811,47.38,43.084,50.8,31.17l13.476-3.91L72,35.325a27.714,27.714,0,0,1-5.563,13.79ZM20.6,50.818l-12.393-1.7A27.717,27.717,0,0,1,2.65,35.322l7.714-8.065,13.476,3.91,3.423,11.921ZM2.5,32.09A27.115,27.115,0,0,1,6.581,18.249L8.6,25.722ZM29.586,42.242l-3.3-11.505L37.324,23.05l11.04,7.69-3.3,11.5ZM66.048,25.718l2.018-7.473a27.113,27.113,0,0,1,4.082,13.841ZM48.238,3.7,37.324,7.5,26.351,3.716A39.621,39.621,0,0,1,48.238,3.7ZM22.957,4.874,36.08,9.4V21.143L24.633,29.113,11.006,25.159,8.419,15.586A34.268,34.268,0,0,1,22.957,4.874ZM10.29,51.593,20.4,52.984l6.116,8.34a35.459,35.459,0,0,1-16.23-9.731Zm19.8,10.565L22.663,52.04l6.574-7.632H45.411l6.668,7.669-6.469,9.87a39.764,39.764,0,0,1-15.522.217Zm18.979-1.115,5.3-8.079,9.994-1.372A35.307,35.307,0,0,1,49.066,61.044Zm0,0" transform="translate(1277.664 355.976)" fill="#fff"/>
    <g id="Group_252" data-name="Group 252" transform="translate(1276.754 527.846) rotate(20)">
      <path id="Path_384" data-name="Path 384" d="M1.228,0a1.228,1.228,0,0,0,0,2.457H8.186A1.228,1.228,0,1,0,8.186,0Z" transform="translate(23.547 34.396)" fill="#fff" fill-rule="evenodd"/>
      <path id="Path_385" data-name="Path 385" d="M13.512,24.568a11.056,11.056,0,0,1,0-22.111H42.994A11.056,11.056,0,1,1,32.858,17.934a1.228,1.228,0,1,0-2.251.984A13.514,13.514,0,1,0,42.994,0H13.512A13.512,13.512,0,1,0,25.9,18.918a1.228,1.228,0,1,0-2.251-.984A11.058,11.058,0,0,1,13.512,24.568Z" transform="translate(0 17.198)" fill="#fff" fill-rule="evenodd"/>
      <path id="Path_386" data-name="Path 386" d="M5.267,12.617l.552-.626C8.651,8.759,9.827,6.145,9.827,1.228a1.228,1.228,0,1,0-2.457,0c0,4.258-.931,6.326-3.4,9.143l-.549.623C1.175,13.55.235,15.293,0,18.333a1.229,1.229,0,0,0,2.45.187C2.637,16.112,3.34,14.809,5.267,12.617Z" transform="translate(27.025 0)" fill="#fff" fill-rule="evenodd"/>
      <path id="Path_387" data-name="Path 387" d="M3.685,1.843A1.843,1.843,0,1,0,1.843,3.685,1.843,1.843,0,0,0,3.685,1.843Z" transform="translate(36.238 28.868)" fill="#fff" fill-rule="evenodd"/>
      <path id="Path_388" data-name="Path 388" d="M3.685,1.843A1.843,1.843,0,1,0,1.843,3.685,1.843,1.843,0,0,0,3.685,1.843Z" transform="translate(41.151 33.781)" fill="#fff" fill-rule="evenodd"/>
      <path id="Path_389" data-name="Path 389" d="M3.685,1.843A1.843,1.843,0,1,0,1.843,3.685,1.843,1.843,0,0,0,3.685,1.843Z" transform="translate(46.065 28.868)" fill="#fff" fill-rule="evenodd"/>
      <path id="Path_390" data-name="Path 390" d="M3.685,1.843A1.843,1.843,0,1,0,1.843,3.685,1.843,1.843,0,0,0,3.685,1.843Z" transform="translate(41.151 23.954)" fill="#fff" fill-rule="evenodd"/>
      <path id="Path_391" data-name="Path 391" d="M11.056,2.457a1.228,1.228,0,0,0,0-2.457H1.228a1.228,1.228,0,0,0,0,2.457Z" transform="translate(7.371 29.482)" fill="#fff" fill-rule="evenodd"/>
      <path id="Path_392" data-name="Path 392" d="M0,11.056a1.228,1.228,0,0,0,2.457,0V1.228A1.228,1.228,0,1,0,0,1.228Z" transform="translate(12.285 24.568)" fill="#fff" fill-rule="evenodd"/>
    </g>
    <g id="Group_253" data-name="Group 253" transform="translate(537.642 807.317)">
      <path id="Path_393" data-name="Path 393" d="M28.772,11.386A6.272,6.272,0,0,0,22.386,5,6.272,6.272,0,0,0,16,11.386a6.272,6.272,0,0,0,6.386,6.386A6.272,6.272,0,0,0,28.772,11.386Zm-6.386,2.129a2.011,2.011,0,0,1-2.129-2.129,2.011,2.011,0,0,1,2.129-2.129,2.011,2.011,0,0,1,2.129,2.129A2.011,2.011,0,0,1,22.386,13.515Z" transform="translate(15.93 3.515)" fill="#fff"/>
      <path id="Path_394" data-name="Path 394" d="M26.386,12A6.272,6.272,0,0,0,20,18.386a6.386,6.386,0,1,0,12.772,0A6.272,6.272,0,0,0,26.386,12Zm0,8.515a2.011,2.011,0,0,1-2.129-2.129,2.129,2.129,0,0,1,4.258,0A2.011,2.011,0,0,1,26.386,20.515Z" transform="translate(20.447 11.416)" fill="#fff"/>
      <path id="Path_395" data-name="Path 395" d="M18.386,12A6.272,6.272,0,0,0,12,18.386a6.272,6.272,0,0,0,6.386,6.386,6.272,6.272,0,0,0,6.386-6.386A6.272,6.272,0,0,0,18.386,12Zm0,8.515a2.011,2.011,0,0,1-2.129-2.129,2.011,2.011,0,0,1,2.129-2.129,2.011,2.011,0,0,1,2.129,2.129A2.011,2.011,0,0,1,18.386,20.515Z" transform="translate(11.416 11.416)" fill="#fff"/>
      <path id="Path_396" data-name="Path 396" d="M55.709,10.579A31.36,31.36,0,0,0,32.931,1a31.36,31.36,0,0,0-22.778,9.579,31.867,31.867,0,0,0,0,44.7,31.36,31.36,0,0,0,22.778,9.579,31.36,31.36,0,0,0,22.778-9.579,31.867,31.867,0,0,0,0-44.7ZM52.729,52.3A27.7,27.7,0,0,1,13.134,13.56,27.7,27.7,0,0,1,52.729,52.3Z" transform="translate(-1 -1)" fill="#fff"/>
    </g>
    <g id="Group_251" data-name="Group 251" transform="translate(1771.888 550.633)">
      <path id="Path_397" data-name="Path 397" d="M86.469,63.933C86.336,68.795,85.133,78.7,85.133,78.7l7.476.534c-1.468-19.823,12.128-38.411,12.227-38.545A38.158,38.158,0,0,0,78.865,27.419C87.673,47.554,86.469,63.933,86.469,63.933Z" transform="translate(-37.117 -26.88)" fill="#fff"/>
      <path id="Path_398" data-name="Path 398" d="M92.886,79.551l-8.358-.6.05-.417c.012-.1,1.2-9.94,1.333-14.727.013-.181,1.092-16.54-7.57-36.342l-.268-.614.667.054a38.375,38.375,0,0,1,26.244,13.405l.207.241L105,40.81c-.556.759-13.593,18.8-12.15,38.279Zm-7.463-1.336,6.6.471c-1.162-18.565,10.453-35.7,12.148-38.09A37.564,37.564,0,0,0,79.343,27.765c8.456,19.717,7.38,35.922,7.368,36.085C86.6,68.09,85.653,76.276,85.424,78.215Z" transform="translate(-36.957 -26.766)" fill="#fff"/>
      <path id="Path_399" data-name="Path 399" d="M111.636,44.384c1.1,1.363,3.256,4.555,3.463,4.86A38.307,38.307,0,0,0,111.636,44.384Z" transform="translate(-43.638 -30.254)" fill="#fff"/>
      <path id="Path_400" data-name="Path 400" d="M114.689,49.4c-.239-.354-2.368-3.5-3.443-4.833l.618-.509a38.842,38.842,0,0,1,3.5,4.911Z" transform="translate(-43.561 -30.192)" fill="#fff"/>
      <path id="Path_401" data-name="Path 401" d="M118.6,70.125a38.069,38.069,0,0,0-5.42-19.63,46.568,46.568,0,0,0-11.184,33.193c11.555-.664,14.875-2.265,14.91-2.281A38.216,38.216,0,0,0,118.6,70.125Z" transform="translate(-41.693 -31.471)" fill="#fff"/>
      <path id="Path_402" data-name="Path 402" d="M101.543,83.942l-.042-.377a47.379,47.379,0,0,1,11.28-33.5l.363-.414.283.472a38.723,38.723,0,0,1,3.767,31.235l-.051.167-.159.076c-.141.067-3.586,1.661-15.06,2.32ZM113.02,51.011A46.7,46.7,0,0,0,102.264,83.1c9.825-.591,13.455-1.845,14.216-2.153a37.922,37.922,0,0,0-3.46-29.932Z" transform="translate(-41.599 -31.301)" fill="#fff"/>
      <path id="Path_403" data-name="Path 403" d="M105.225,111.181,101.534,114A38.528,38.528,0,0,0,105.225,111.181Z" transform="translate(-41.628 -43.542)" fill="#fff"/>
      <path id="Path_404" data-name="Path 404" d="M101.7,114.254l-.466-.651,3.691-2.82.5.622A38.922,38.922,0,0,1,101.7,114.254Z" transform="translate(-41.564 -43.464)" fill="#fff"/>
      <path id="Path_405" data-name="Path 405" d="M73.124,78.3c1.427-2.67,1.511-15.116,1.511-15.116-.131-23.558-8.817-35.525-8.991-35.761a38.077,38.077,0,0,0-22.112,9.359C72.5,55.337,65.955,76.694,65.955,76.694Z" transform="translate(-30.088 -26.88)" fill="#fff"/>
      <path id="Path_406" data-name="Path 406" d="M73.168,78.65l-7.887-1.763.126-.413c.064-.211,6.091-21.3-22.257-39.462l-.449-.287.4-.351a38.285,38.285,0,0,1,22.344-9.458l.222-.018.133.179c.364.5,8.938,12.407,9.069,36,0,.517-.1,12.582-1.558,15.308Zm-6.889-2.361,6.453,1.442c1.244-3.048,1.336-14.538,1.337-14.658-.123-22.05-7.658-33.718-8.785-35.34a37.475,37.475,0,0,0-21.252,8.894C70.21,53.647,66.986,73.2,66.278,76.289Z" transform="translate(-29.926 -26.776)" fill="#fff"/>
      <path id="Path_407" data-name="Path 407" d="M96.641,111.284c-2.288-2.17-4.117-13.453-4.117-13.453l-8.278-.4c-3.663,15.661-6.733,19.8-7.156,20.241A38.033,38.033,0,0,0,96.641,111.284Z" transform="translate(-36.764 -40.807)" fill="#fff"/>
      <path id="Path_408" data-name="Path 408" d="M75.86,118.011l.7-.722c.031-.032,3.162-3.416,7.053-20.053l.076-.325,8.936.433.052.32c.5,3.1,2.2,11.523,4,13.227l.364.345-.417.279a38.524,38.524,0,0,1-19.756,6.454Zm8.455-20.268c-2.989,12.674-5.588,17.7-6.659,19.38A37.73,37.73,0,0,0,95.792,111.1c-2.005-2.625-3.546-11.184-3.854-12.988Z" transform="translate(-36.517 -40.703)" fill="#fff"/>
      <path id="Path_409" data-name="Path 409" d="M27.949,62.336l3.264,3.006C42.428,74.326,58.449,78.92,58.449,78.92c2.269-9.079-3.2-17.624-3.2-17.624C46.484,47.622,36.687,44.015,36.577,43.975A38.086,38.086,0,0,0,27.949,62.336Z" transform="translate(-26.989 -30.172)" fill="#fff"/>
      <path id="Path_410" data-name="Path 410" d="M58.631,79.3l-.4-.115C58.071,79.14,42,74.468,30.856,65.536l-3.445-3.171.037-.215A38.545,38.545,0,0,1,36.165,43.6l.181-.211.261.1c.409.15,10.119,3.827,18.869,17.481.056.087,5.541,8.8,3.256,17.937ZM28.275,62.071l3.1,2.857C41.4,72.956,55.5,77.513,58.051,78.3c1.939-8.65-3.2-16.819-3.25-16.9C46.872,49.021,38.214,45,36.589,44.335A37.734,37.734,0,0,0,28.275,62.071Z" transform="translate(-26.881 -30.055)" fill="#fff"/>
      <path id="Path_411" data-name="Path 411" d="M49.511,111.308a38.018,38.018,0,0,0,16.8,5.737c3.438-3.528,8-20.776,8-20.776L65.5,94.948C60.954,109.127,49.7,111.272,49.511,111.308Z" transform="translate(-31.278 -40.312)" fill="#fff"/>
      <path id="Path_412" data-name="Path 412" d="M66.2,117.35l-.191-.018a38.668,38.668,0,0,1-16.981-5.8l-.862-.545,1-.187c.457-.085,11.244-2.249,15.68-16.089l.1-.324,9.593,1.438-.115.433c-.187.708-4.626,17.391-8.1,20.953Zm-15.94-6a37.871,37.871,0,0,0,15.628,5.163c3.011-3.371,6.929-17.379,7.652-20.029l-8.035-1.2C61.593,107.078,53.116,110.512,50.262,111.353Z" transform="translate(-31.009 -40.202)" fill="#fff"/>
      <path id="Path_413" data-name="Path 413" d="M77.218,27.374c-.975-.074-1.957-.124-2.95-.124s-1.975.05-2.95.124Z" transform="translate(-35.614 -26.846)" fill="#fff"/>
      <path id="Path_414" data-name="Path 414" d="M77.21,27.674h-5.9l-.03-.8a34.608,34.608,0,0,1,5.961,0Z" transform="translate(-35.607 -26.745)" fill="#fff"/>
      <path id="Path_415" data-name="Path 415" d="M70.635,122.543c1.152.1,2.318.166,3.5.166.2,0,1.19-.012,1.385-.015C74.171,122.654,71.152,122.564,70.635,122.543Z" transform="translate(-35.48 -45.802)" fill="#fff"/>
      <path id="Path_416" data-name="Path 416" d="M74.123,123.01c-1.134,0-2.289-.054-3.533-.167l.052-.8c.465.018,2.954.093,4.426.137l.451.014-.006.8C75.318,123,74.319,123.01,74.123,123.01Z" transform="translate(-35.471 -45.702)" fill="#fff"/>
      <path id="Path_417" data-name="Path 417" d="M102.519,97.458c-.266,2.92,2.917,10.6,2.955,10.7a38.383,38.383,0,0,0,9.26-11.93C113.445,96.731,102.519,97.458,102.519,97.458Z" transform="translate(-41.819 -40.568)" fill="#fff"/>
      <path id="Path_418" data-name="Path 418" d="M105.218,108.637l-.213-.514c-.333-.807-3.25-7.964-2.984-10.887l.031-.34.341-.022c4.367-.291,11.192-.852,12.1-1.2l.966-.376-.461.928a38.574,38.574,0,0,1-9.356,12.054Zm-2.413-10.99c0,2.257,1.657,6.977,2.729,9.651a37.767,37.767,0,0,0,8.357-10.681C111.3,97.051,104.622,97.524,102.805,97.647Z" transform="translate(-41.721 -40.38)" fill="#fff"/>
      <path id="Path_419" data-name="Path 419" d="M117.8,94.757a37.921,37.921,0,0,0,2.265-5.66Z" transform="translate(-44.862 -39.149)" fill="#fff"/>
      <path id="Path_420" data-name="Path 420" d="M118.071,94.9l-.731-.327,2.265-5.66.755.267A38.351,38.351,0,0,1,118.071,94.9Z" transform="translate(-44.77 -39.111)" fill="#fff"/>
      <path id="Path_421" data-name="Path 421" d="M42.517,39.177a38.382,38.382,0,0,0-3.735,3.784Z" transform="translate(-29.144 -29.218)" fill="#fff"/>
      <path id="Path_422" data-name="Path 422" d="M38.992,43.168l-.589-.542A38.93,38.93,0,0,1,42.178,38.8l.55.582Z" transform="translate(-29.067 -29.143)" fill="#fff"/>
      <path id="Path_423" data-name="Path 423" d="M43.151,110.569a38.351,38.351,0,0,0,5.023,3.8Z" transform="translate(-30.012 -43.42)" fill="#fff"/>
      <path id="Path_424" data-name="Path 424" d="M47.893,114.627a39.028,39.028,0,0,1-5.075-3.839l.509-.618,5.023,3.8Z" transform="translate(-29.947 -43.341)" fill="#fff"/>
      <path id="Path_425" data-name="Path 425" d="M27.25,73.405l.548-6.423A38.411,38.411,0,0,0,27.25,73.405Z" transform="translate(-26.849 -34.75)" fill="#fff"/>
      <path id="Path_426" data-name="Path 426" d="M27.549,73.422l-.8-.034A39.042,39.042,0,0,1,27.3,66.9l.794.1Z" transform="translate(-26.75 -34.733)" fill="#fff"/>
      <path id="Path_427" data-name="Path 427" d="M56.708,89.5A81.3,81.3,0,0,1,27.25,75a38.151,38.151,0,0,0,12.691,28.453A18.788,18.788,0,0,0,56.708,89.5Z" transform="translate(-26.849 -36.345)" fill="#fff"/>
      <path id="Path_428" data-name="Path 428" d="M39.706,103.657l-.132-.118A38.724,38.724,0,0,1,26.75,74.787v-.856l.658.549A81.593,81.593,0,0,0,56.705,88.9l.377.094-.082.38a19.33,19.33,0,0,1-17.119,14.27ZM27.561,75.624a37.92,37.92,0,0,0,12.418,27.2,18.492,18.492,0,0,0,16.141-13.25A83.168,83.168,0,0,1,27.561,75.624Z" transform="translate(-26.75 -36.132)" fill="#fff"/>
    </g>
  </g>
</svg>
